<?xml version="1.0" encoding="iso-8859-1"?>
<!-- Generator: Adobe Illustrator 16.0.0, SVG Export Plug-In . SVG Version: 6.00 Build 0)  -->
<!DOCTYPE svg PUBLIC "-//W3C//DTD SVG 1.1//EN" "http://www.w3.org/Graphics/SVG/1.1/DTD/svg11.dtd" [
	<!ENTITY ns_flows "http://ns.adobe.com/Flows/1.0/">
	<!ENTITY ns_extend "http://ns.adobe.com/Extensibility/1.0/">
	<!ENTITY ns_ai "http://ns.adobe.com/AdobeIllustrator/10.0/">
	<!ENTITY ns_graphs "http://ns.adobe.com/Graphs/1.0/">
	<!ENTITY st0 "clip-path:url(#SVGID_2_);">
	<!ENTITY st1 "fill:url(#SVGID_3_);">
	<!ENTITY st2 "fill:#FFFFFF;">
]>
<svg version="1.1" id="Capa_1" xmlns:x="&ns_extend;" xmlns:i="&ns_ai;" xmlns:graph="&ns_graphs;"
	 xmlns="http://www.w3.org/2000/svg" xmlns:xlink="http://www.w3.org/1999/xlink" xmlns:a="http://ns.adobe.com/AdobeSVGViewerExtensions/3.0/"
	 x="0px" y="0px" width="153.588px" height="46.076px" viewBox="0 0 153.588 46.076"
	 style="enable-background:new 0 0 153.588 46.076;" xml:space="preserve">
<g>
	<g>
		<defs>
			<rect id="SVGID_1_" width="153.588" height="46.076"/>
		</defs>
		<use xlink:href="#SVGID_1_"  style="overflow:visible;fill:#E8271D;"/>
		<clipPath id="SVGID_2_">
			<use xlink:href="#SVGID_1_"  style="overflow:visible;"/>
		</clipPath>
		<g style="&st0;">
			<linearGradient id="SVGID_3_" gradientUnits="userSpaceOnUse" x1="-2.2461" y1="53.8906" x2="40.3444" y2="18.1529">
				<stop  offset="0" style="stop-color:#AC1D17;stop-opacity:0"/>
				<stop  offset="1" style="stop-color:#AC1D17"/>
				<a:midPointStop  offset="0" style="stop-color:#AC1D17;stop-opacity:0"/>
				<a:midPointStop  offset="0.7" style="stop-color:#AC1D17;stop-opacity:0"/>
				<a:midPointStop  offset="1" style="stop-color:#AC1D17"/>
			</linearGradient>
			<path style="&st1;" d="M39.65,21.167c-1.666,0-3.186,0.6-4.377,1.582l2.393-2.819c-0.197-3.169-1.684-5.941-4.064-7.728
				l-1.388,1.39l-1.313,1.554c-0.643-0.435-1.363-0.77-2.152-0.959v-0.697c0-0.794-0.695-1.485-1.49-1.485
				c-0.615,0-1.168,0.422-1.384,0.982l-3.28,1.122l-0.188-0.517l-1.389-1.39l-1.386,1.25C18.694,14.217-6.977,43.836-8.804,46.076
				h42.292l11.039-13.101c1.256-1.252,2.035-2.983,2.035-4.896C46.562,24.262,43.466,21.167,39.65,21.167z"/>
			<g>
				<g>
					<path style="&st2;" d="M22.405,13.592l-1.389-1.39c-2.376,1.786-3.962,4.559-4.161,7.728h1.984
						C19.039,17.253,20.325,14.975,22.405,13.592z"/>
					<path style="&st2;" d="M35.681,19.93h1.984c-0.197-3.169-1.684-5.941-4.064-7.728l-1.388,1.39
						C34.197,14.975,35.486,17.253,35.681,19.93z"/>
					<path style="&st2;" d="M31.286,28.205c0-2.173,0.936-4.126,2.417-5.495v-2.281c0-3.073-2.081-5.551-4.954-6.242v-0.697
						c0-0.794-0.695-1.485-1.49-1.485c-0.79,0-1.485,0.691-1.485,1.485v0.697c-2.874,0.691-4.955,3.169-4.955,6.242v5.447
						l-1.979,1.983v0.992h12.479C31.299,28.639,31.286,28.423,31.286,28.205z"/>
					<path style="&st2;" d="M27.258,31.821h0.396c0.697-0.096,1.191-0.596,1.391-1.19c0.1-0.197,0.197-0.492,0.197-0.792h-3.964
						C25.278,30.933,26.17,31.821,27.258,31.821z"/>
				</g>
				<path style="&st2;" d="M39.65,21.167c-3.818,0-6.912,3.095-6.912,6.912s3.094,6.912,6.912,6.912
					c3.816,0,6.912-3.095,6.912-6.912S43.466,21.167,39.65,21.167z M39.65,22.863c1.199,0,2.172,0.973,2.172,2.17
					c0,1.198-0.973,2.169-2.172,2.169c-1.197,0-2.17-0.971-2.17-2.168C37.48,23.836,38.453,22.863,39.65,22.863z M43.349,32.384
					h-0.016l-0.145,0.072c-0.072,0.038-1.256,0.619-3.299,0.619c-1.047,0-2.318-0.152-3.779-0.609l-0.154-0.047l-0.006-0.035v-2.253
					c0-1.533,1.246-2.78,2.779-2.78h1.84c1.533,0,2.779,1.247,2.779,2.78V32.384z"/>
			</g>
		</g>
	</g>
	<g>
		<path style="&st2;" d="M53.162,24.431c-0.84,0-1.607-0.138-2.303-0.413c-0.695-0.274-1.357-0.697-1.988-1.268l0.736-0.87
			c0.549,0.501,1.104,0.873,1.664,1.118s1.205,0.367,1.936,0.367c0.709,0,1.277-0.167,1.703-0.503
			c0.424-0.334,0.637-0.762,0.637-1.282v-0.03c0-0.239-0.039-0.457-0.119-0.652c-0.082-0.194-0.221-0.372-0.422-0.532
			s-0.479-0.305-0.834-0.435s-0.811-0.256-1.361-0.375c-0.602-0.13-1.125-0.28-1.572-0.45c-0.445-0.17-0.814-0.375-1.104-0.615
			c-0.291-0.24-0.508-0.52-0.646-0.84c-0.141-0.32-0.211-0.695-0.211-1.125v-0.03c0-0.41,0.084-0.79,0.254-1.14
			c0.17-0.351,0.41-0.652,0.721-0.907c0.311-0.256,0.676-0.455,1.096-0.601c0.42-0.145,0.879-0.218,1.379-0.218
			c0.77,0,1.443,0.108,2.018,0.323c0.576,0.215,1.133,0.537,1.674,0.967l-0.691,0.915c-0.49-0.399-0.982-0.689-1.477-0.87
			c-0.496-0.18-1.014-0.27-1.553-0.27c-0.689,0-1.236,0.163-1.635,0.487c-0.4,0.325-0.6,0.728-0.6,1.208v0.029
			c0,0.25,0.039,0.473,0.119,0.668s0.225,0.375,0.436,0.54c0.209,0.165,0.5,0.314,0.869,0.45c0.371,0.135,0.846,0.262,1.426,0.382
			c1.17,0.261,2.031,0.62,2.588,1.08c0.555,0.46,0.832,1.09,0.832,1.891v0.029c0,0.45-0.09,0.857-0.268,1.223
			s-0.422,0.678-0.734,0.938c-0.313,0.261-0.689,0.46-1.129,0.601C54.162,24.36,53.681,24.431,53.162,24.431z"/>
		<path style="&st2;" d="M63.271,24.46c-0.801,0-1.527-0.145-2.182-0.435c-0.656-0.29-1.219-0.683-1.688-1.178
			c-0.471-0.495-0.834-1.069-1.088-1.725c-0.256-0.655-0.383-1.343-0.383-2.063v-0.03c0-0.72,0.129-1.41,0.391-2.07
			c0.26-0.66,0.625-1.237,1.094-1.732c0.471-0.495,1.035-0.89,1.695-1.185s1.391-0.442,2.189-0.442c0.801,0,1.527,0.145,2.184,0.435
			c0.654,0.29,1.217,0.683,1.688,1.178c0.469,0.495,0.832,1.07,1.088,1.725c0.254,0.655,0.383,1.343,0.383,2.063
			c0.01,0.011,0.01,0.021,0,0.03c0,0.72-0.131,1.41-0.391,2.07s-0.625,1.237-1.096,1.732s-1.035,0.89-1.695,1.185
			S64.072,24.46,63.271,24.46z M63.3,23.365c0.602,0,1.152-0.112,1.658-0.338c0.506-0.225,0.938-0.532,1.297-0.922
			c0.361-0.391,0.643-0.845,0.848-1.365c0.205-0.52,0.309-1.08,0.309-1.68v-0.03c0-0.6-0.104-1.162-0.309-1.688
			s-0.492-0.982-0.861-1.372c-0.371-0.391-0.809-0.7-1.313-0.931c-0.506-0.229-1.059-0.345-1.658-0.345s-1.152,0.112-1.658,0.338
			c-0.504,0.225-0.938,0.532-1.297,0.922c-0.359,0.391-0.643,0.846-0.848,1.365c-0.205,0.521-0.307,1.08-0.307,1.68v0.03
			c0,0.6,0.102,1.162,0.307,1.688s0.492,0.982,0.863,1.372c0.369,0.391,0.807,0.7,1.313,0.931
			C62.148,23.25,62.701,23.365,63.3,23.365z"/>
		<path style="&st2;" d="M74.012,24.431c-0.84,0-1.608-0.138-2.303-0.413c-0.695-0.274-1.357-0.697-1.988-1.268l0.736-0.87
			c0.549,0.501,1.104,0.873,1.664,1.118s1.205,0.367,1.936,0.367c0.709,0,1.277-0.167,1.703-0.503
			c0.424-0.334,0.637-0.762,0.637-1.282v-0.03c0-0.239-0.039-0.457-0.119-0.652c-0.082-0.194-0.221-0.372-0.422-0.532
			s-0.479-0.305-0.834-0.435s-0.811-0.256-1.361-0.375c-0.602-0.13-1.125-0.28-1.573-0.45c-0.445-0.17-0.814-0.375-1.104-0.615
			c-0.291-0.24-0.508-0.52-0.646-0.84c-0.141-0.32-0.211-0.695-0.211-1.125v-0.03c0-0.41,0.084-0.79,0.254-1.14
			c0.17-0.351,0.41-0.652,0.721-0.907c0.311-0.256,0.676-0.455,1.096-0.601c0.42-0.145,0.879-0.218,1.379-0.218
			c0.77,0,1.443,0.108,2.018,0.323c0.576,0.215,1.133,0.537,1.674,0.967l-0.691,0.915c-0.49-0.399-0.982-0.689-1.477-0.87
			c-0.496-0.18-1.014-0.27-1.553-0.27c-0.69,0-1.237,0.163-1.635,0.487c-0.4,0.325-0.6,0.728-0.6,1.208v0.029
			c0,0.25,0.039,0.473,0.119,0.668s0.225,0.375,0.436,0.54c0.209,0.165,0.5,0.314,0.869,0.45c0.371,0.135,0.846,0.262,1.426,0.382
			c1.17,0.261,2.031,0.62,2.588,1.08c0.555,0.46,0.832,1.09,0.832,1.891v0.029c0,0.45-0.09,0.857-0.268,1.223
			s-0.422,0.678-0.734,0.938c-0.313,0.261-0.689,0.46-1.129,0.601C75.012,24.36,74.531,24.431,74.012,24.431z"/>
	</g>
	<g>
		<g>
			<path style="&st2;" d="M85.039,24.445c-0.359,0-0.715-0.05-1.064-0.15c-0.35-0.1-0.66-0.252-0.93-0.457s-0.488-0.458-0.652-0.758
				c-0.166-0.3-0.248-0.649-0.248-1.05V22c0-0.42,0.08-0.787,0.24-1.103c0.16-0.314,0.387-0.577,0.684-0.787
				c0.293-0.21,0.645-0.37,1.049-0.48c0.404-0.109,0.854-0.165,1.342-0.165c0.5,0,0.934,0.03,1.299,0.091
				c0.365,0.06,0.723,0.14,1.072,0.239v-0.238c0-0.686-0.201-1.204-0.6-1.558c-0.4-0.353-0.965-0.528-1.695-0.528
				c-0.461,0-0.877,0.05-1.252,0.149c-0.375,0.101-0.744,0.235-1.104,0.405l-0.346-0.951c0.432-0.202,0.865-0.364,1.307-0.486
				c0.439-0.122,0.943-0.183,1.514-0.183c1.1,0,1.936,0.285,2.506,0.855c0.539,0.539,0.811,1.3,0.811,2.279v4.74H87.83v-1.155
				c-0.27,0.351-0.633,0.658-1.088,0.923S85.721,24.445,85.039,24.445z M85.273,23.5c0.359,0,0.693-0.05,1.002-0.149
				c0.309-0.099,0.58-0.241,0.814-0.425c0.234-0.185,0.418-0.403,0.553-0.657s0.203-0.535,0.203-0.843v-0.717
				c-0.289-0.08-0.619-0.154-0.988-0.225c-0.367-0.069-0.791-0.104-1.27-0.104c-0.719,0-1.273,0.143-1.668,0.426
				c-0.393,0.284-0.59,0.659-0.59,1.127v0.03c0,0.238,0.053,0.455,0.156,0.649c0.105,0.193,0.248,0.355,0.426,0.484
				c0.18,0.13,0.387,0.229,0.621,0.299C84.768,23.466,85.014,23.5,85.273,23.5z"/>
			<path style="&st2;" d="M90.77,13.33h1.154v10.95H90.77V13.33z"/>
			<path style="&st2;" d="M96.17,24.445c-0.359,0-0.715-0.05-1.064-0.15c-0.352-0.1-0.66-0.252-0.93-0.457
				c-0.271-0.205-0.488-0.458-0.654-0.758c-0.164-0.3-0.246-0.649-0.246-1.05V22c0-0.42,0.08-0.787,0.24-1.103
				c0.158-0.314,0.387-0.577,0.682-0.787s0.645-0.37,1.051-0.48c0.404-0.109,0.852-0.165,1.342-0.165c0.5,0,0.932,0.03,1.297,0.091
				c0.365,0.06,0.723,0.14,1.072,0.239v-0.238c0-0.686-0.199-1.204-0.6-1.558c-0.4-0.353-0.965-0.528-1.695-0.528
				c-0.459,0-0.877,0.05-1.252,0.149c-0.375,0.101-0.742,0.235-1.102,0.405l-0.346-0.951c0.43-0.202,0.865-0.364,1.305-0.486
				s0.945-0.183,1.516-0.183c1.1,0,1.936,0.285,2.504,0.855c0.541,0.539,0.811,1.3,0.811,2.279v4.74h-1.141v-1.155
				c-0.27,0.351-0.631,0.658-1.086,0.923S96.85,24.445,96.17,24.445z M96.402,23.5c0.359,0,0.693-0.05,1.002-0.149
				c0.311-0.099,0.582-0.241,0.816-0.425c0.232-0.185,0.418-0.403,0.553-0.657s0.201-0.535,0.201-0.843v-0.717
				c-0.289-0.08-0.617-0.154-0.986-0.225c-0.369-0.069-0.793-0.104-1.271-0.104c-0.717,0-1.273,0.143-1.666,0.426
				c-0.395,0.284-0.592,0.659-0.592,1.127v0.03c0,0.238,0.053,0.455,0.158,0.649c0.104,0.193,0.246,0.355,0.426,0.484
				c0.18,0.13,0.387,0.229,0.621,0.299C95.898,23.466,96.145,23.5,96.402,23.5z"/>
			<path style="&st2;" d="M101.795,16.525h1.154v2.024c0.141-0.319,0.314-0.614,0.525-0.885c0.209-0.27,0.449-0.502,0.721-0.697
				c0.27-0.195,0.564-0.343,0.885-0.442c0.318-0.1,0.664-0.145,1.035-0.135v1.245h-0.092c-0.42,0-0.816,0.074-1.191,0.225
				s-0.703,0.375-0.982,0.675c-0.281,0.3-0.5,0.673-0.66,1.117c-0.16,0.445-0.24,0.958-0.24,1.538v3.09h-1.154V16.525z"/>
			<path style="&st2;" d="M107.119,16.525h1.156v1.305c0.129-0.189,0.271-0.375,0.426-0.555c0.156-0.18,0.334-0.338,0.533-0.473
				s0.426-0.242,0.676-0.322s0.539-0.12,0.869-0.12c0.631,0,1.15,0.147,1.561,0.442s0.721,0.663,0.93,1.103
				c0.141-0.21,0.297-0.41,0.473-0.6c0.174-0.19,0.373-0.355,0.592-0.495c0.221-0.141,0.469-0.25,0.742-0.33
				c0.275-0.08,0.584-0.12,0.924-0.12c0.9,0,1.605,0.277,2.115,0.832c0.51,0.556,0.764,1.318,0.764,2.288v4.8h-1.154V19.76
				c0-0.748-0.178-1.324-0.533-1.729c-0.354-0.403-0.848-0.606-1.477-0.606c-0.291,0-0.564,0.053-0.826,0.158
				c-0.26,0.104-0.486,0.259-0.682,0.463c-0.195,0.205-0.35,0.457-0.465,0.756c-0.115,0.3-0.172,0.639-0.172,1.019v4.46h-1.141
				v-4.55c0-0.729-0.178-1.295-0.533-1.699c-0.354-0.403-0.842-0.606-1.461-0.606c-0.311,0-0.596,0.061-0.855,0.181
				c-0.26,0.119-0.488,0.289-0.684,0.509c-0.195,0.219-0.348,0.476-0.457,0.771c-0.109,0.294-0.164,0.621-0.164,0.98v4.415h-1.156
				V16.525z"/>
			<path style="&st2;" d="M122.943,24.445c-0.359,0-0.715-0.05-1.064-0.15c-0.35-0.1-0.66-0.252-0.93-0.457
				s-0.488-0.458-0.652-0.758c-0.166-0.3-0.248-0.649-0.248-1.05V22c0-0.42,0.08-0.787,0.24-1.103
				c0.16-0.314,0.387-0.577,0.684-0.787c0.293-0.21,0.645-0.37,1.049-0.48c0.404-0.109,0.854-0.165,1.342-0.165
				c0.5,0,0.934,0.03,1.299,0.091c0.365,0.06,0.723,0.14,1.072,0.239v-0.238c0-0.686-0.201-1.204-0.6-1.558
				c-0.4-0.353-0.965-0.528-1.695-0.528c-0.461,0-0.877,0.05-1.252,0.149c-0.375,0.101-0.744,0.235-1.104,0.405l-0.346-0.951
				c0.432-0.202,0.865-0.364,1.307-0.486c0.439-0.122,0.943-0.183,1.514-0.183c1.1,0,1.936,0.285,2.506,0.855
				c0.539,0.539,0.811,1.3,0.811,2.279v4.74h-1.141v-1.155c-0.27,0.351-0.633,0.658-1.088,0.923S123.625,24.445,122.943,24.445z
				 M123.178,23.5c0.359,0,0.693-0.05,1.002-0.149c0.309-0.099,0.58-0.241,0.814-0.425c0.234-0.185,0.418-0.403,0.553-0.657
				s0.203-0.535,0.203-0.843v-0.717c-0.289-0.08-0.619-0.154-0.988-0.225c-0.367-0.069-0.791-0.104-1.27-0.104
				c-0.719,0-1.273,0.143-1.668,0.426c-0.393,0.284-0.59,0.659-0.59,1.127v0.03c0,0.238,0.053,0.455,0.156,0.649
				c0.105,0.193,0.248,0.355,0.426,0.484c0.18,0.13,0.387,0.229,0.621,0.299C122.672,23.466,122.918,23.5,123.178,23.5z"/>
		</g>
	</g>
	<g>
		<g>
			<path style="&st2;" d="M48.673,28.962h0.549v0.641c0.125-0.199,0.285-0.369,0.484-0.509c0.201-0.141,0.459-0.21,0.777-0.21
				c0.223,0,0.422,0.035,0.596,0.106c0.172,0.071,0.32,0.172,0.441,0.303s0.213,0.286,0.277,0.467s0.096,0.38,0.096,0.599v2.287
				h-0.547v-2.147c0-0.341-0.088-0.611-0.264-0.811c-0.176-0.198-0.428-0.298-0.756-0.298c-0.156,0-0.303,0.027-0.439,0.081
				c-0.135,0.055-0.252,0.133-0.352,0.235c-0.1,0.102-0.178,0.224-0.232,0.366c-0.055,0.142-0.082,0.298-0.082,0.469v2.104h-0.549
				V28.962z"/>
			<path style="&st2;" d="M54.388,32.731c-0.275,0-0.529-0.052-0.762-0.153c-0.232-0.103-0.434-0.24-0.605-0.413
				c-0.172-0.174-0.305-0.376-0.398-0.606c-0.096-0.23-0.143-0.476-0.143-0.737v-0.014c0-0.262,0.047-0.509,0.143-0.741
				c0.094-0.233,0.227-0.438,0.398-0.613s0.375-0.314,0.609-0.417c0.234-0.102,0.492-0.152,0.773-0.152
				c0.275,0,0.531,0.051,0.766,0.152c0.234,0.103,0.438,0.24,0.609,0.414c0.17,0.173,0.303,0.375,0.398,0.605
				s0.143,0.477,0.143,0.737v0.015c0,0.261-0.049,0.508-0.146,0.74c-0.098,0.233-0.23,0.438-0.402,0.613
				c-0.17,0.176-0.375,0.314-0.613,0.417C54.921,32.68,54.664,32.731,54.388,32.731z M54.404,32.239
				c0.199,0,0.381-0.038,0.549-0.114c0.166-0.075,0.309-0.178,0.428-0.306c0.117-0.129,0.211-0.278,0.277-0.449s0.1-0.354,0.1-0.549
				v-0.014c0-0.2-0.035-0.387-0.104-0.56c-0.068-0.174-0.166-0.325-0.289-0.456s-0.268-0.234-0.434-0.311
				c-0.166-0.075-0.348-0.113-0.543-0.113c-0.199,0-0.381,0.038-0.547,0.113c-0.168,0.076-0.309,0.179-0.426,0.307
				c-0.115,0.129-0.207,0.279-0.273,0.453c-0.066,0.173-0.1,0.357-0.1,0.552v0.015c0,0.199,0.035,0.386,0.104,0.559
				c0.068,0.174,0.164,0.324,0.285,0.453c0.121,0.128,0.264,0.23,0.43,0.306C54.029,32.201,54.208,32.239,54.404,32.239z"/>
			<path style="&st2;" d="M58.187,32.71c-0.148,0-0.285-0.02-0.414-0.058s-0.238-0.099-0.332-0.182
				c-0.092-0.083-0.164-0.191-0.217-0.324s-0.078-0.292-0.078-0.478v-2.223h-0.514v-0.484h0.514v-1.111h0.549v1.111h1.168v0.484
				h-1.168v2.146c0,0.228,0.057,0.386,0.17,0.476c0.115,0.091,0.264,0.136,0.449,0.136c0.096,0,0.186-0.009,0.268-0.027
				c0.084-0.018,0.172-0.049,0.268-0.094v0.47c-0.096,0.053-0.195,0.092-0.303,0.118C58.439,32.696,58.32,32.71,58.187,32.71z"/>
			<path style="&st2;" d="M59.49,27.551h0.627v0.605H59.49V27.551z M59.527,28.962h0.547v3.684h-0.547V28.962z"/>
			<path style="&st2;" d="M61.201,29.446h-0.506v-0.478h0.506v-0.32c0-0.418,0.107-0.734,0.32-0.948
				c0.189-0.189,0.453-0.284,0.791-0.284c0.129,0,0.238,0.007,0.332,0.021c0.092,0.015,0.184,0.038,0.273,0.071v0.478
				c-0.1-0.028-0.189-0.051-0.271-0.067c-0.08-0.017-0.168-0.025-0.264-0.025c-0.428,0-0.641,0.262-0.641,0.784v0.299h1.168v0.471
				h-1.16v3.199h-0.549V29.446z M63.623,27.551h0.627v0.605h-0.627V27.551z M63.666,28.962h0.541v3.684h-0.541V28.962z"/>
			<path style="&st2;" d="M66.794,32.731c-0.271,0-0.521-0.052-0.752-0.153c-0.23-0.103-0.432-0.24-0.6-0.413
				c-0.168-0.174-0.301-0.377-0.395-0.609c-0.096-0.233-0.143-0.478-0.143-0.734v-0.014c0-0.262,0.047-0.509,0.143-0.741
				c0.094-0.233,0.227-0.438,0.395-0.613s0.369-0.314,0.6-0.417c0.23-0.102,0.48-0.152,0.752-0.152c0.174,0,0.334,0.017,0.477,0.05
				s0.273,0.079,0.393,0.139c0.117,0.06,0.227,0.129,0.326,0.21s0.193,0.166,0.279,0.257l-0.363,0.385
				c-0.148-0.152-0.309-0.283-0.482-0.392c-0.172-0.109-0.385-0.164-0.637-0.164c-0.186,0-0.359,0.036-0.52,0.11
				c-0.162,0.073-0.303,0.175-0.422,0.303s-0.211,0.279-0.277,0.452c-0.066,0.174-0.1,0.36-0.1,0.56v0.015
				c0,0.199,0.035,0.386,0.104,0.559c0.068,0.174,0.164,0.326,0.285,0.456c0.121,0.131,0.264,0.233,0.428,0.307
				s0.342,0.11,0.537,0.11c0.238,0,0.447-0.052,0.631-0.156s0.348-0.235,0.496-0.393l0.348,0.328
				c-0.186,0.209-0.395,0.38-0.631,0.513C67.431,32.664,67.14,32.731,66.794,32.731z"/>
			<path style="&st2;" d="M69.943,32.724c-0.172,0-0.34-0.023-0.506-0.071c-0.166-0.047-0.314-0.119-0.441-0.217
				c-0.129-0.098-0.232-0.218-0.311-0.36s-0.117-0.309-0.117-0.498v-0.015c0-0.199,0.037-0.374,0.113-0.523
				c0.076-0.15,0.184-0.274,0.324-0.374c0.141-0.101,0.307-0.176,0.498-0.229c0.193-0.052,0.406-0.078,0.639-0.078
				c0.238,0,0.443,0.014,0.617,0.043c0.172,0.028,0.342,0.066,0.508,0.113v-0.113c0-0.325-0.094-0.572-0.285-0.739
				c-0.189-0.168-0.457-0.252-0.805-0.252c-0.219,0-0.416,0.024-0.594,0.071c-0.18,0.048-0.354,0.112-0.525,0.192l-0.162-0.451
				c0.203-0.097,0.41-0.173,0.619-0.231c0.209-0.058,0.449-0.087,0.719-0.087c0.523,0,0.92,0.136,1.191,0.406
				c0.256,0.257,0.385,0.618,0.385,1.083v2.252h-0.543v-0.549c-0.127,0.167-0.299,0.313-0.516,0.438S70.265,32.724,69.943,32.724z
				 M70.054,32.275c0.17,0,0.328-0.024,0.475-0.071s0.275-0.114,0.387-0.202s0.199-0.191,0.264-0.313
				c0.064-0.12,0.096-0.254,0.096-0.4v-0.34c-0.137-0.038-0.293-0.073-0.469-0.106s-0.377-0.05-0.604-0.05
				c-0.342,0-0.605,0.067-0.791,0.202c-0.188,0.135-0.281,0.313-0.281,0.535v0.015c0,0.113,0.025,0.216,0.074,0.309
				c0.051,0.092,0.117,0.169,0.203,0.23c0.084,0.061,0.184,0.108,0.295,0.142S69.931,32.275,70.054,32.275z"/>
			<path style="&st2;" d="M74.275,32.731c-0.271,0-0.521-0.052-0.752-0.153c-0.231-0.103-0.43-0.24-0.598-0.413
				c-0.17-0.174-0.301-0.377-0.396-0.609c-0.094-0.233-0.143-0.478-0.143-0.734v-0.014c0-0.262,0.049-0.509,0.143-0.741
				c0.096-0.233,0.227-0.438,0.396-0.613c0.168-0.176,0.367-0.314,0.598-0.417c0.23-0.102,0.48-0.152,0.752-0.152
				c0.176,0,0.334,0.017,0.477,0.05s0.273,0.079,0.393,0.139s0.229,0.129,0.328,0.21s0.191,0.166,0.277,0.257l-0.363,0.385
				c-0.146-0.152-0.307-0.283-0.48-0.392c-0.174-0.109-0.387-0.164-0.639-0.164c-0.184,0-0.357,0.036-0.52,0.11
				c-0.162,0.073-0.301,0.175-0.42,0.303c-0.119,0.128-0.211,0.279-0.277,0.452c-0.068,0.174-0.102,0.36-0.102,0.56v0.015
				c0,0.199,0.035,0.386,0.104,0.559c0.07,0.174,0.164,0.326,0.285,0.456c0.122,0.131,0.264,0.233,0.428,0.307
				s0.344,0.11,0.539,0.11c0.236,0,0.447-0.052,0.629-0.156c0.184-0.104,0.35-0.235,0.496-0.393l0.35,0.328
				c-0.186,0.209-0.396,0.38-0.631,0.513S74.623,32.731,74.275,32.731z"/>
			<path style="&st2;" d="M76.342,27.551h0.627v0.605h-0.627V27.551z M76.379,28.962h0.547v3.684h-0.547V28.962z"/>
			<path style="&st2;" d="M79.525,32.731c-0.275,0-0.529-0.052-0.762-0.153c-0.232-0.103-0.434-0.24-0.605-0.413
				c-0.172-0.174-0.305-0.376-0.398-0.606c-0.096-0.23-0.143-0.476-0.143-0.737v-0.014c0-0.262,0.047-0.509,0.143-0.741
				c0.094-0.233,0.227-0.438,0.398-0.613s0.375-0.314,0.609-0.417c0.234-0.102,0.492-0.152,0.773-0.152
				c0.275,0,0.531,0.051,0.766,0.152c0.234,0.103,0.438,0.24,0.609,0.414c0.17,0.173,0.303,0.375,0.398,0.605
				s0.143,0.477,0.143,0.737v0.015c0,0.261-0.049,0.508-0.146,0.74c-0.098,0.233-0.23,0.438-0.402,0.613
				c-0.17,0.176-0.375,0.314-0.613,0.417C80.059,32.68,79.801,32.731,79.525,32.731z M79.541,32.239
				c0.199,0,0.381-0.038,0.549-0.114c0.166-0.075,0.309-0.178,0.428-0.306c0.117-0.129,0.211-0.278,0.277-0.449s0.1-0.354,0.1-0.549
				v-0.014c0-0.2-0.035-0.387-0.104-0.56c-0.068-0.174-0.166-0.325-0.289-0.456s-0.268-0.234-0.434-0.311
				c-0.166-0.075-0.348-0.113-0.543-0.113c-0.199,0-0.381,0.038-0.547,0.113c-0.168,0.076-0.309,0.179-0.426,0.307
				c-0.115,0.129-0.207,0.279-0.273,0.453c-0.066,0.173-0.1,0.357-0.1,0.552v0.015c0,0.199,0.035,0.386,0.104,0.559
				c0.068,0.174,0.164,0.324,0.285,0.453c0.121,0.128,0.264,0.23,0.43,0.306C79.166,32.201,79.346,32.239,79.541,32.239z
				 M79.996,27.373l0.57,0.264l-0.805,0.77H79.32L79.996,27.373z"/>
			<path style="&st2;" d="M82.092,28.962h0.549v0.641c0.123-0.199,0.285-0.369,0.484-0.509c0.199-0.141,0.459-0.21,0.777-0.21
				c0.223,0,0.42,0.035,0.594,0.106s0.32,0.172,0.441,0.303s0.215,0.286,0.279,0.467s0.096,0.38,0.096,0.599v2.287h-0.549v-2.147
				c0-0.341-0.088-0.611-0.264-0.811c-0.176-0.198-0.428-0.298-0.756-0.298c-0.156,0-0.303,0.027-0.438,0.081
				c-0.135,0.055-0.254,0.133-0.354,0.235c-0.1,0.102-0.176,0.224-0.23,0.366c-0.055,0.142-0.082,0.298-0.082,0.469v2.104h-0.549
				V28.962z"/>
			<path style="&st2;" d="M89.004,32.724c-0.172,0-0.34-0.023-0.506-0.071c-0.166-0.047-0.314-0.119-0.441-0.217
				c-0.129-0.098-0.232-0.218-0.311-0.36s-0.117-0.309-0.117-0.498v-0.015c0-0.199,0.037-0.374,0.113-0.523
				c0.076-0.15,0.184-0.274,0.324-0.374c0.141-0.101,0.307-0.176,0.498-0.229c0.193-0.052,0.406-0.078,0.639-0.078
				c0.238,0,0.443,0.014,0.617,0.043c0.172,0.028,0.342,0.066,0.508,0.113v-0.113c0-0.325-0.094-0.572-0.285-0.739
				c-0.189-0.168-0.457-0.252-0.805-0.252c-0.219,0-0.416,0.024-0.594,0.071c-0.18,0.048-0.354,0.112-0.525,0.192l-0.162-0.451
				c0.203-0.097,0.41-0.173,0.619-0.231c0.209-0.058,0.449-0.087,0.719-0.087c0.523,0,0.92,0.136,1.191,0.406
				c0.256,0.257,0.385,0.618,0.385,1.083v2.252h-0.543v-0.549c-0.127,0.167-0.299,0.313-0.516,0.438S89.326,32.724,89.004,32.724z
				 M89.115,32.275c0.17,0,0.328-0.024,0.475-0.071s0.275-0.114,0.387-0.202s0.199-0.191,0.264-0.313
				c0.064-0.12,0.096-0.254,0.096-0.4v-0.34c-0.137-0.038-0.293-0.073-0.469-0.106s-0.377-0.05-0.604-0.05
				c-0.342,0-0.605,0.067-0.791,0.202c-0.188,0.135-0.281,0.313-0.281,0.535v0.015c0,0.113,0.025,0.216,0.074,0.309
				c0.051,0.092,0.117,0.169,0.203,0.23c0.084,0.061,0.184,0.108,0.295,0.142S88.992,32.275,89.115,32.275z"/>
			<path style="&st2;" d="M95.117,32.731c-0.271,0-0.521-0.052-0.752-0.153c-0.23-0.103-0.432-0.24-0.6-0.413
				c-0.168-0.174-0.301-0.377-0.395-0.609c-0.096-0.233-0.143-0.478-0.143-0.734v-0.014c0-0.262,0.047-0.509,0.143-0.741
				c0.094-0.233,0.227-0.438,0.395-0.613s0.369-0.314,0.6-0.417c0.23-0.102,0.48-0.152,0.752-0.152c0.174,0,0.334,0.017,0.477,0.05
				s0.273,0.079,0.393,0.139c0.117,0.06,0.227,0.129,0.326,0.21s0.193,0.166,0.279,0.257l-0.363,0.385
				c-0.148-0.152-0.309-0.283-0.482-0.392c-0.172-0.109-0.385-0.164-0.637-0.164c-0.186,0-0.359,0.036-0.52,0.11
				c-0.162,0.073-0.303,0.175-0.422,0.303s-0.211,0.279-0.277,0.452c-0.066,0.174-0.1,0.36-0.1,0.56v0.015
				c0,0.199,0.035,0.386,0.104,0.559c0.068,0.174,0.164,0.326,0.285,0.456c0.121,0.131,0.264,0.233,0.428,0.307
				s0.342,0.11,0.537,0.11c0.238,0,0.447-0.052,0.631-0.156s0.348-0.235,0.496-0.393l0.348,0.328
				c-0.186,0.209-0.395,0.38-0.631,0.513C95.754,32.664,95.463,32.731,95.117,32.731z"/>
			<path style="&st2;" d="M98.85,32.731c-0.275,0-0.529-0.052-0.762-0.153c-0.232-0.103-0.434-0.24-0.605-0.413
				c-0.172-0.174-0.305-0.376-0.398-0.606c-0.096-0.23-0.143-0.476-0.143-0.737v-0.014c0-0.262,0.047-0.509,0.143-0.741
				c0.094-0.233,0.227-0.438,0.398-0.613s0.375-0.314,0.609-0.417c0.234-0.102,0.492-0.152,0.773-0.152
				c0.275,0,0.531,0.051,0.766,0.152c0.234,0.103,0.438,0.24,0.609,0.414c0.17,0.173,0.303,0.375,0.398,0.605
				s0.143,0.477,0.143,0.737v0.015c0,0.261-0.049,0.508-0.146,0.74c-0.098,0.233-0.23,0.438-0.402,0.613
				c-0.17,0.176-0.375,0.314-0.613,0.417C99.383,32.68,99.125,32.731,98.85,32.731z M98.865,32.239c0.199,0,0.381-0.038,0.549-0.114
				c0.166-0.075,0.309-0.178,0.428-0.306c0.117-0.129,0.211-0.278,0.277-0.449s0.1-0.354,0.1-0.549v-0.014
				c0-0.2-0.035-0.387-0.104-0.56c-0.068-0.174-0.166-0.325-0.289-0.456s-0.268-0.234-0.434-0.311
				c-0.166-0.075-0.348-0.113-0.543-0.113c-0.199,0-0.381,0.038-0.547,0.113c-0.168,0.076-0.309,0.179-0.426,0.307
				c-0.115,0.129-0.207,0.279-0.273,0.453c-0.066,0.173-0.1,0.357-0.1,0.552v0.015c0,0.199,0.035,0.386,0.104,0.559
				c0.068,0.174,0.164,0.324,0.285,0.453c0.121,0.128,0.264,0.23,0.43,0.306C98.49,32.201,98.67,32.239,98.865,32.239z"/>
			<path style="&st2;" d="M101.414,28.962h0.549v0.641c0.125-0.199,0.285-0.369,0.484-0.509c0.201-0.141,0.459-0.21,0.777-0.21
				c0.223,0,0.422,0.035,0.596,0.106c0.172,0.071,0.32,0.172,0.441,0.303s0.213,0.286,0.277,0.467s0.096,0.38,0.096,0.599v2.287
				h-0.547v-2.147c0-0.341-0.088-0.611-0.264-0.811c-0.176-0.198-0.428-0.298-0.756-0.298c-0.156,0-0.303,0.027-0.439,0.081
				c-0.135,0.055-0.252,0.133-0.352,0.235c-0.1,0.102-0.178,0.224-0.232,0.366c-0.055,0.142-0.082,0.298-0.082,0.469v2.104h-0.549
				V28.962z"/>
			<path style="&st2;" d="M106.682,32.71c-0.148,0-0.285-0.02-0.414-0.058s-0.238-0.099-0.332-0.182
				c-0.092-0.083-0.164-0.191-0.217-0.324s-0.078-0.292-0.078-0.478v-2.223h-0.514v-0.484h0.514v-1.111h0.549v1.111h1.168v0.484
				h-1.168v2.146c0,0.228,0.057,0.386,0.17,0.476c0.115,0.091,0.264,0.136,0.449,0.136c0.096,0,0.186-0.009,0.268-0.027
				c0.084-0.018,0.172-0.049,0.268-0.094v0.47c-0.096,0.053-0.195,0.092-0.303,0.118C106.934,32.696,106.814,32.71,106.682,32.71z"
				/>
			<path style="&st2;" d="M109.068,32.724c-0.172,0-0.34-0.023-0.506-0.071c-0.166-0.047-0.314-0.119-0.441-0.217
				c-0.129-0.098-0.232-0.218-0.311-0.36s-0.117-0.309-0.117-0.498v-0.015c0-0.199,0.037-0.374,0.113-0.523
				c0.076-0.15,0.184-0.274,0.324-0.374c0.141-0.101,0.307-0.176,0.498-0.229c0.193-0.052,0.406-0.078,0.639-0.078
				c0.238,0,0.443,0.014,0.617,0.043c0.172,0.028,0.342,0.066,0.508,0.113v-0.113c0-0.325-0.094-0.572-0.285-0.739
				c-0.189-0.168-0.457-0.252-0.805-0.252c-0.219,0-0.416,0.024-0.594,0.071c-0.18,0.048-0.354,0.112-0.525,0.192l-0.162-0.451
				c0.203-0.097,0.41-0.173,0.619-0.231c0.209-0.058,0.449-0.087,0.719-0.087c0.523,0,0.92,0.136,1.191,0.406
				c0.256,0.257,0.385,0.618,0.385,1.083v2.252h-0.543v-0.549c-0.127,0.167-0.299,0.313-0.516,0.438S109.391,32.724,109.068,32.724z
				 M109.18,32.275c0.17,0,0.328-0.024,0.475-0.071s0.275-0.114,0.387-0.202s0.199-0.191,0.264-0.313
				c0.064-0.12,0.096-0.254,0.096-0.4v-0.34c-0.137-0.038-0.293-0.073-0.469-0.106s-0.377-0.05-0.604-0.05
				c-0.342,0-0.605,0.067-0.791,0.202c-0.188,0.135-0.281,0.313-0.281,0.535v0.015c0,0.113,0.025,0.216,0.074,0.309
				c0.051,0.092,0.117,0.169,0.203,0.23c0.084,0.061,0.184,0.108,0.295,0.142S109.057,32.275,109.18,32.275z"/>
			<path style="&st2;" d="M113.4,32.731c-0.271,0-0.521-0.052-0.752-0.153c-0.23-0.103-0.432-0.24-0.6-0.413
				c-0.168-0.174-0.301-0.377-0.395-0.609c-0.096-0.233-0.143-0.478-0.143-0.734v-0.014c0-0.262,0.047-0.509,0.143-0.741
				c0.094-0.233,0.227-0.438,0.395-0.613s0.369-0.314,0.6-0.417c0.23-0.102,0.48-0.152,0.752-0.152c0.174,0,0.334,0.017,0.477,0.05
				s0.273,0.079,0.393,0.139c0.117,0.06,0.227,0.129,0.326,0.21s0.193,0.166,0.279,0.257l-0.363,0.385
				c-0.148-0.152-0.309-0.283-0.482-0.392c-0.172-0.109-0.385-0.164-0.637-0.164c-0.186,0-0.359,0.036-0.52,0.11
				c-0.162,0.073-0.303,0.175-0.422,0.303s-0.211,0.279-0.277,0.452c-0.066,0.174-0.1,0.36-0.1,0.56v0.015
				c0,0.199,0.035,0.386,0.104,0.559c0.068,0.174,0.164,0.326,0.285,0.456c0.121,0.131,0.264,0.233,0.428,0.307
				s0.342,0.11,0.537,0.11c0.238,0,0.447-0.052,0.631-0.156s0.348-0.235,0.496-0.393l0.348,0.328
				c-0.186,0.209-0.395,0.38-0.631,0.513C114.037,32.664,113.746,32.731,113.4,32.731z"/>
			<path style="&st2;" d="M116.686,32.71c-0.148,0-0.285-0.02-0.414-0.058s-0.238-0.099-0.332-0.182
				c-0.092-0.083-0.164-0.191-0.217-0.324s-0.078-0.292-0.078-0.478v-2.223h-0.514v-0.484h0.514v-1.111h0.549v1.111h1.168v0.484
				h-1.168v2.146c0,0.228,0.057,0.386,0.17,0.476c0.115,0.091,0.264,0.136,0.449,0.136c0.096,0,0.186-0.009,0.268-0.027
				c0.084-0.018,0.172-0.049,0.268-0.094v0.47c-0.096,0.053-0.195,0.092-0.303,0.118C116.938,32.696,116.818,32.71,116.686,32.71z"
				/>
			<path style="&st2;" d="M119.656,32.731c-0.275,0-0.529-0.052-0.762-0.153c-0.234-0.103-0.436-0.24-0.605-0.413
				c-0.172-0.174-0.305-0.376-0.4-0.606c-0.094-0.23-0.143-0.476-0.143-0.737v-0.014c0-0.262,0.049-0.509,0.143-0.741
				c0.096-0.233,0.229-0.438,0.4-0.613c0.17-0.176,0.373-0.314,0.607-0.417c0.236-0.102,0.494-0.152,0.773-0.152
				c0.275,0,0.531,0.051,0.766,0.152c0.236,0.103,0.439,0.24,0.609,0.414c0.172,0.173,0.305,0.375,0.4,0.605
				c0.094,0.23,0.143,0.477,0.143,0.737v0.015c0,0.261-0.049,0.508-0.146,0.74c-0.098,0.233-0.232,0.438-0.402,0.613
				c-0.172,0.176-0.375,0.314-0.613,0.417C120.188,32.68,119.932,32.731,119.656,32.731z M119.67,32.239
				c0.199,0,0.383-0.038,0.549-0.114c0.166-0.075,0.309-0.178,0.428-0.306c0.119-0.129,0.211-0.278,0.277-0.449s0.1-0.354,0.1-0.549
				v-0.014c0-0.2-0.033-0.387-0.104-0.56c-0.068-0.174-0.164-0.325-0.287-0.456c-0.125-0.131-0.27-0.234-0.436-0.311
				c-0.166-0.075-0.346-0.113-0.541-0.113c-0.199,0-0.383,0.038-0.549,0.113c-0.166,0.076-0.307,0.179-0.424,0.307
				c-0.117,0.129-0.207,0.279-0.273,0.453c-0.068,0.173-0.102,0.357-0.102,0.552v0.015c0,0.199,0.035,0.386,0.104,0.559
				c0.07,0.174,0.164,0.324,0.285,0.453c0.121,0.128,0.266,0.23,0.432,0.306C119.295,32.201,119.475,32.239,119.67,32.239z"/>
			<path style="&st2;" d="M123.439,32.717c-0.266,0-0.535-0.049-0.805-0.146c-0.271-0.097-0.512-0.229-0.721-0.396l0.277-0.392
				c0.201,0.152,0.408,0.269,0.625,0.35c0.215,0.08,0.434,0.121,0.65,0.121c0.225,0,0.406-0.053,0.549-0.157
				s0.215-0.247,0.215-0.428v-0.014c0-0.091-0.025-0.169-0.076-0.235c-0.049-0.066-0.117-0.125-0.203-0.175
				c-0.084-0.05-0.184-0.094-0.295-0.132s-0.227-0.073-0.346-0.106c-0.143-0.043-0.285-0.089-0.432-0.139
				c-0.145-0.05-0.275-0.113-0.391-0.189c-0.117-0.076-0.211-0.171-0.285-0.285c-0.074-0.113-0.111-0.256-0.111-0.427v-0.015
				c0-0.157,0.031-0.301,0.094-0.431c0.061-0.131,0.148-0.242,0.26-0.335s0.244-0.164,0.398-0.214s0.322-0.075,0.502-0.075
				c0.229,0,0.459,0.037,0.691,0.11c0.232,0.074,0.445,0.173,0.635,0.296l-0.25,0.413c-0.17-0.109-0.35-0.195-0.537-0.26
				s-0.371-0.097-0.553-0.097c-0.219,0-0.393,0.052-0.52,0.153c-0.129,0.103-0.193,0.229-0.193,0.382v0.014
				c0,0.086,0.027,0.16,0.078,0.225c0.053,0.064,0.123,0.12,0.211,0.168c0.088,0.047,0.189,0.09,0.303,0.128
				s0.232,0.076,0.355,0.114c0.143,0.042,0.285,0.09,0.426,0.143c0.139,0.052,0.266,0.118,0.381,0.199
				c0.113,0.081,0.205,0.178,0.273,0.292s0.104,0.254,0.104,0.42v0.015c0,0.176-0.035,0.331-0.104,0.467s-0.162,0.251-0.277,0.346
				c-0.117,0.095-0.254,0.167-0.414,0.217C123.797,32.691,123.625,32.717,123.439,32.717z"/>
		</g>
	</g>
</g>
</svg>
