<?xml version="1.0" encoding="iso-8859-1"?>
<!-- Generator: Adobe Illustrator 16.0.0, SVG Export Plug-In . SVG Version: 6.00 Build 0)  -->
<!DOCTYPE svg PUBLIC "-//W3C//DTD SVG 1.1//EN" "http://www.w3.org/Graphics/SVG/1.1/DTD/svg11.dtd" [
	<!ENTITY ns_flows "http://ns.adobe.com/Flows/1.0/">
	<!ENTITY ns_extend "http://ns.adobe.com/Extensibility/1.0/">
	<!ENTITY ns_ai "http://ns.adobe.com/AdobeIllustrator/10.0/">
	<!ENTITY ns_graphs "http://ns.adobe.com/Graphs/1.0/">
	<!ENTITY st0 "clip-path:url(#SVGID_1_);">
	<!ENTITY st1 "fill:url(#SVGID_2_);">
	<!ENTITY st2 "fill:#FFFFFF;">
]>
<svg version="1.1" id="Capa_1" xmlns:x="&ns_extend;" xmlns:i="&ns_ai;" xmlns:graph="&ns_graphs;"
	 xmlns="http://www.w3.org/2000/svg" xmlns:xlink="http://www.w3.org/1999/xlink" xmlns:a="http://ns.adobe.com/AdobeSVGViewerExtensions/3.0/"
	 x="0px" y="0px" width="153.588px" height="46.076px" viewBox="0 0 153.588 46.076"
	 style="enable-background:new 0 0 153.588 46.076;" xml:space="preserve">
<g>
	<g>
		<defs>
			<rect id="SVGID_4_" x="0" width="153.588" height="46.076"/>
		</defs>
		<use xlink:href="#SVGID_4_"  style="overflow:visible;fill:#2EA2BA;"/>
		<clipPath id="SVGID_1_">
			<use xlink:href="#SVGID_4_"  style="overflow:visible;"/>
		</clipPath>
		<g style="&st0;">
			<linearGradient id="SVGID_2_" gradientUnits="userSpaceOnUse" x1="5.7334" y1="48.9355" x2="39.2362" y2="20.8233">
				<stop  offset="0" style="stop-color:#257A8E;stop-opacity:0"/>
				<stop  offset="1" style="stop-color:#257A8E"/>
				<a:midPointStop  offset="0" style="stop-color:#257A8E;stop-opacity:0"/>
				<a:midPointStop  offset="0.7" style="stop-color:#257A8E;stop-opacity:0"/>
				<a:midPointStop  offset="1" style="stop-color:#257A8E"/>
			</linearGradient>
			<polygon style="&st1;" points="3.304,46.041 26.879,46.076 41.667,29.048 31.906,12.088 			"/>
			<path style="&st2;" d="M42.019,27.308L33.854,11.91c-0.207-0.382-0.604-0.624-1.039-0.624c-0.438,0-0.835,0.242-1.036,0.624
				l-8.208,15.397c-0.196,0.363-0.185,0.809,0.028,1.162c0.212,0.357,0.598,0.578,1.012,0.578h16.373
				c0.414,0,0.793-0.221,1.006-0.578C42.202,28.116,42.214,27.671,42.019,27.308L42.019,27.308z M32.815,26.677
				c-0.651,0-1.181-0.525-1.181-1.18c0-0.652,0.529-1.186,1.181-1.186c0.648,0,1.178,0.533,1.178,1.186
				C33.993,26.151,33.464,26.677,32.815,26.677L32.815,26.677z M33.993,21.958c0,0.659-0.529,1.186-1.178,1.186
				c-0.651,0-1.181-0.526-1.181-1.186v-4.734c0-0.654,0.529-1.186,1.181-1.186c0.648,0,1.178,0.531,1.178,1.186V21.958z
				 M33.993,21.958"/>
		</g>
	</g>
	<g>
		<path style="&st2;" d="M53.161,24.431c-0.84,0-1.607-0.138-2.303-0.413c-0.695-0.274-1.357-0.697-1.988-1.268l0.736-0.87
			c0.549,0.501,1.104,0.873,1.664,1.118s1.205,0.367,1.936,0.367c0.709,0,1.277-0.167,1.703-0.503
			c0.424-0.334,0.637-0.762,0.637-1.282v-0.03c0-0.239-0.039-0.457-0.119-0.652c-0.082-0.194-0.221-0.372-0.422-0.532
			s-0.479-0.305-0.834-0.435s-0.811-0.256-1.361-0.375c-0.602-0.13-1.125-0.28-1.572-0.45c-0.445-0.17-0.814-0.375-1.104-0.615
			c-0.291-0.24-0.508-0.52-0.646-0.84c-0.141-0.32-0.211-0.695-0.211-1.125v-0.03c0-0.41,0.084-0.79,0.254-1.14
			c0.17-0.351,0.41-0.652,0.721-0.907c0.311-0.256,0.676-0.455,1.096-0.601c0.42-0.145,0.879-0.218,1.379-0.218
			c0.77,0,1.443,0.108,2.018,0.323c0.576,0.215,1.133,0.537,1.674,0.967l-0.691,0.915c-0.49-0.399-0.982-0.689-1.477-0.87
			c-0.496-0.18-1.014-0.27-1.553-0.27c-0.689,0-1.236,0.163-1.635,0.487c-0.4,0.325-0.6,0.728-0.6,1.208v0.029
			c0,0.25,0.039,0.473,0.119,0.668s0.225,0.375,0.436,0.54c0.209,0.165,0.5,0.314,0.869,0.45c0.371,0.135,0.846,0.262,1.426,0.382
			c1.17,0.261,2.031,0.62,2.588,1.08c0.555,0.46,0.832,1.09,0.832,1.891v0.029c0,0.45-0.09,0.857-0.268,1.223
			s-0.422,0.678-0.734,0.938c-0.313,0.261-0.689,0.46-1.129,0.601C54.161,24.36,53.681,24.431,53.161,24.431z"/>
		<path style="&st2;" d="M63.271,24.46c-0.801,0-1.527-0.145-2.182-0.435c-0.656-0.29-1.219-0.683-1.688-1.178
			c-0.471-0.495-0.834-1.069-1.088-1.725c-0.256-0.655-0.383-1.343-0.383-2.063v-0.03c0-0.72,0.129-1.41,0.391-2.07
			c0.26-0.66,0.625-1.237,1.094-1.732c0.471-0.495,1.035-0.89,1.695-1.185s1.391-0.442,2.189-0.442c0.801,0,1.527,0.145,2.184,0.435
			c0.654,0.29,1.217,0.683,1.688,1.178c0.469,0.495,0.832,1.07,1.088,1.725c0.254,0.655,0.383,1.343,0.383,2.063
			c0.01,0.011,0.01,0.021,0,0.03c0,0.72-0.131,1.41-0.391,2.07s-0.625,1.237-1.096,1.732s-1.035,0.89-1.695,1.185
			S64.071,24.46,63.271,24.46z M63.3,23.365c0.602,0,1.152-0.112,1.658-0.338c0.506-0.225,0.938-0.532,1.297-0.922
			c0.361-0.391,0.643-0.845,0.848-1.365c0.205-0.52,0.309-1.08,0.309-1.68v-0.03c0-0.6-0.104-1.162-0.309-1.688
			s-0.492-0.982-0.861-1.372c-0.371-0.391-0.809-0.7-1.313-0.931c-0.506-0.229-1.059-0.345-1.658-0.345s-1.152,0.112-1.658,0.338
			c-0.504,0.225-0.938,0.532-1.297,0.922c-0.359,0.391-0.643,0.846-0.848,1.365c-0.205,0.521-0.307,1.08-0.307,1.68v0.03
			c0,0.6,0.102,1.162,0.307,1.688s0.492,0.982,0.863,1.372c0.369,0.391,0.807,0.7,1.313,0.931C62.147,23.25,62.7,23.365,63.3,23.365
			z"/>
		<path style="&st2;" d="M74.011,24.431c-0.84,0-1.607-0.138-2.303-0.413c-0.695-0.274-1.357-0.697-1.988-1.268l0.736-0.87
			c0.549,0.501,1.104,0.873,1.664,1.118s1.205,0.367,1.936,0.367c0.709,0,1.277-0.167,1.703-0.503
			c0.424-0.334,0.637-0.762,0.637-1.282v-0.03c0-0.239-0.039-0.457-0.119-0.652c-0.082-0.194-0.221-0.372-0.422-0.532
			s-0.479-0.305-0.834-0.435s-0.811-0.256-1.361-0.375c-0.602-0.13-1.125-0.28-1.572-0.45c-0.445-0.17-0.814-0.375-1.104-0.615
			c-0.291-0.24-0.508-0.52-0.646-0.84c-0.141-0.32-0.211-0.695-0.211-1.125v-0.03c0-0.41,0.084-0.79,0.254-1.14
			c0.17-0.351,0.41-0.652,0.721-0.907c0.311-0.256,0.676-0.455,1.096-0.601c0.42-0.145,0.879-0.218,1.379-0.218
			c0.77,0,1.443,0.108,2.018,0.323c0.576,0.215,1.133,0.537,1.674,0.967l-0.691,0.915c-0.49-0.399-0.982-0.689-1.477-0.87
			c-0.496-0.18-1.014-0.27-1.553-0.27c-0.689,0-1.236,0.163-1.635,0.487c-0.4,0.325-0.6,0.728-0.6,1.208v0.029
			c0,0.25,0.039,0.473,0.119,0.668s0.225,0.375,0.436,0.54c0.209,0.165,0.5,0.314,0.869,0.45c0.371,0.135,0.846,0.262,1.426,0.382
			c1.17,0.261,2.031,0.62,2.588,1.08c0.555,0.46,0.832,1.09,0.832,1.891v0.029c0,0.45-0.09,0.857-0.268,1.223
			s-0.422,0.678-0.734,0.938c-0.313,0.261-0.689,0.46-1.129,0.601C75.011,24.36,74.53,24.431,74.011,24.431z"/>
	</g>
	<g>
		<g>
			<path style="&st2;" d="M82.099,26.726c-0.141,0-0.262-0.006-0.367-0.016s-0.223-0.029-0.352-0.06v-0.945
				c0.09,0.021,0.188,0.032,0.291,0.038c0.105,0.005,0.197,0.007,0.277,0.007c0.26,0,0.473-0.082,0.639-0.247
				c0.164-0.165,0.246-0.428,0.246-0.788v-8.189h1.156v8.205c0,0.689-0.168,1.194-0.502,1.515
				C83.151,26.565,82.688,26.726,82.099,26.726z M82.759,13.556h1.32v1.274h-1.32V13.556z"/>
			<path style="&st2;" d="M89.464,24.46c-0.58,0-1.115-0.107-1.605-0.322s-0.916-0.505-1.275-0.87
				c-0.359-0.364-0.641-0.79-0.84-1.274c-0.199-0.485-0.301-1.003-0.301-1.553v-0.03c0-0.55,0.102-1.069,0.301-1.56
				s0.48-0.92,0.84-1.29s0.787-0.663,1.283-0.878c0.494-0.215,1.037-0.322,1.627-0.322c0.58,0,1.117,0.107,1.613,0.322
				c0.494,0.215,0.922,0.505,1.281,0.87c0.361,0.365,0.641,0.79,0.84,1.275c0.201,0.484,0.301,1.002,0.301,1.552v0.03
				c0,0.55-0.104,1.07-0.307,1.561c-0.205,0.489-0.488,0.92-0.848,1.29c-0.361,0.369-0.791,0.662-1.291,0.877
				S90.044,24.46,89.464,24.46z M89.493,23.425c0.42,0,0.805-0.079,1.154-0.239c0.352-0.16,0.65-0.375,0.9-0.646
				c0.25-0.27,0.445-0.585,0.586-0.944c0.139-0.36,0.209-0.745,0.209-1.155v-0.03c0-0.42-0.072-0.813-0.217-1.178
				c-0.145-0.364-0.348-0.685-0.607-0.96c-0.26-0.274-0.564-0.492-0.916-0.652c-0.35-0.16-0.729-0.24-1.139-0.24
				c-0.42,0-0.805,0.08-1.156,0.24c-0.35,0.16-0.646,0.375-0.893,0.646c-0.244,0.27-0.438,0.587-0.576,0.952
				c-0.141,0.365-0.211,0.753-0.211,1.162v0.03c0,0.42,0.072,0.813,0.219,1.178c0.145,0.365,0.344,0.683,0.6,0.952
				c0.254,0.271,0.557,0.485,0.906,0.646C88.704,23.346,89.083,23.425,89.493,23.425z"/>
			<path style="&st2;" d="M94.099,16.525h1.275l2.609,6.435l2.625-6.435h1.246l-3.375,7.814h-1.021L94.099,16.525z"/>
			<path style="&st2;" d="M103.608,20.875c0.039,0.41,0.141,0.775,0.301,1.096c0.158,0.319,0.363,0.59,0.613,0.81
				s0.531,0.388,0.842,0.503c0.309,0.114,0.635,0.172,0.975,0.172c0.539,0,1.002-0.1,1.387-0.3s0.738-0.465,1.059-0.795l0.719,0.645
				c-0.389,0.44-0.834,0.793-1.334,1.058s-1.121,0.397-1.861,0.397c-0.529,0-1.029-0.098-1.5-0.292
				c-0.469-0.195-0.879-0.47-1.229-0.825c-0.352-0.354-0.629-0.782-0.834-1.282s-0.307-1.05-0.307-1.65
				c0-0.56,0.092-1.087,0.277-1.582s0.443-0.925,0.773-1.29s0.721-0.652,1.176-0.863c0.455-0.21,0.953-0.314,1.494-0.314
				c0.568,0,1.08,0.107,1.529,0.322s0.83,0.508,1.141,0.878c0.309,0.37,0.545,0.805,0.705,1.305c0.158,0.5,0.238,1.035,0.238,1.605
				c0,0.05,0,0.107,0,0.172c0,0.065-0.004,0.143-0.014,0.232H103.608z M108.603,19.931c-0.029-0.349-0.104-0.679-0.225-0.992
				c-0.119-0.313-0.281-0.589-0.486-0.828c-0.205-0.238-0.455-0.427-0.75-0.566c-0.295-0.139-0.633-0.209-1.014-0.209
				c-0.33,0-0.639,0.065-0.93,0.194c-0.289,0.129-0.545,0.311-0.766,0.544c-0.219,0.234-0.402,0.51-0.547,0.828
				s-0.238,0.661-0.277,1.029H108.603z"/>
			<path style="&st2;" d="M111.048,16.525h1.156v1.35c0.26-0.42,0.6-0.777,1.02-1.072s0.965-0.442,1.635-0.442
				c0.471,0,0.887,0.075,1.252,0.225c0.365,0.15,0.676,0.363,0.93,0.638c0.256,0.275,0.452,0.603,0.586,0.982
				s0.203,0.801,0.203,1.26v4.815h-1.157V19.76c0-0.718-0.186-1.287-0.555-1.706s-0.9-0.629-1.59-0.629
				c-0.33,0-0.637,0.058-0.922,0.173c-0.285,0.114-0.533,0.279-0.742,0.494c-0.211,0.214-0.373,0.471-0.488,0.771
				c-0.115,0.299-0.172,0.629-0.172,0.987v4.431h-1.156V16.525z"/>
		</g>
	</g>
	<g>
		<g>
			<path style="&st2;" d="M48.673,28.962h0.549v0.62c0.063-0.091,0.131-0.179,0.203-0.264c0.074-0.086,0.158-0.161,0.254-0.225
				c0.096-0.064,0.201-0.115,0.32-0.153s0.256-0.057,0.414-0.057c0.299,0,0.545,0.069,0.74,0.21c0.195,0.14,0.342,0.314,0.441,0.523
				c0.066-0.1,0.143-0.194,0.225-0.285c0.084-0.09,0.178-0.168,0.281-0.235c0.105-0.066,0.223-0.118,0.354-0.156
				s0.275-0.057,0.438-0.057c0.428,0,0.764,0.132,1.006,0.396c0.242,0.263,0.363,0.625,0.363,1.086v2.28h-0.549v-2.147
				c0-0.355-0.084-0.629-0.254-0.82c-0.168-0.192-0.402-0.288-0.701-0.288c-0.139,0-0.27,0.024-0.393,0.074s-0.23,0.123-0.324,0.221
				c-0.092,0.097-0.166,0.217-0.221,0.358c-0.055,0.143-0.082,0.304-0.082,0.483v2.119h-0.541v-2.161
				c0-0.346-0.084-0.615-0.254-0.807c-0.168-0.192-0.398-0.288-0.693-0.288c-0.148,0-0.283,0.028-0.406,0.085
				s-0.232,0.138-0.324,0.242c-0.094,0.104-0.166,0.226-0.217,0.365c-0.053,0.141-0.08,0.296-0.08,0.466v2.098h-0.549V28.962z"/>
			<path style="&st2;" d="M55.421,31.028c0.02,0.194,0.066,0.368,0.143,0.52c0.076,0.152,0.174,0.28,0.293,0.385
				s0.252,0.185,0.398,0.239s0.303,0.082,0.463,0.082c0.258,0,0.477-0.048,0.66-0.143c0.182-0.095,0.35-0.221,0.502-0.378
				l0.342,0.307c-0.186,0.209-0.396,0.376-0.635,0.502c-0.236,0.126-0.531,0.189-0.883,0.189c-0.252,0-0.49-0.047-0.713-0.14
				s-0.418-0.223-0.584-0.392s-0.299-0.372-0.395-0.609c-0.098-0.237-0.146-0.499-0.146-0.783c0-0.267,0.043-0.517,0.131-0.752
				s0.211-0.439,0.367-0.613c0.156-0.173,0.344-0.31,0.559-0.409c0.217-0.1,0.453-0.149,0.709-0.149
				c0.271,0,0.514,0.051,0.729,0.152c0.213,0.103,0.393,0.241,0.541,0.417c0.146,0.176,0.258,0.383,0.334,0.62
				s0.115,0.491,0.115,0.763c0,0.023,0,0.051,0,0.082c0,0.03-0.004,0.067-0.008,0.11H55.421z M57.794,30.579
				c-0.014-0.165-0.049-0.322-0.107-0.471c-0.057-0.149-0.133-0.28-0.23-0.394s-0.217-0.203-0.357-0.27
				c-0.139-0.065-0.299-0.099-0.48-0.099c-0.156,0-0.303,0.03-0.441,0.092s-0.26,0.147-0.363,0.259
				c-0.105,0.111-0.191,0.242-0.26,0.394c-0.068,0.15-0.113,0.313-0.133,0.488H57.794z"/>
			<path style="&st2;" d="M58.954,28.962h0.549v0.641c0.125-0.199,0.285-0.369,0.484-0.509c0.201-0.141,0.459-0.21,0.777-0.21
				c0.223,0,0.422,0.035,0.596,0.106c0.172,0.071,0.32,0.172,0.441,0.303s0.213,0.286,0.277,0.467s0.096,0.38,0.096,0.599v2.287
				h-0.547v-2.147c0-0.341-0.088-0.611-0.264-0.811c-0.176-0.198-0.428-0.298-0.756-0.298c-0.156,0-0.303,0.027-0.439,0.081
				c-0.135,0.055-0.252,0.133-0.352,0.235c-0.1,0.102-0.178,0.224-0.232,0.366c-0.055,0.142-0.082,0.298-0.082,0.469v2.104h-0.549
				V28.962z"/>
			<path style="&st2;" d="M64.343,32.724c-0.225,0-0.422-0.035-0.596-0.106s-0.32-0.172-0.441-0.303s-0.215-0.286-0.277-0.467
				c-0.064-0.181-0.098-0.38-0.098-0.599v-2.287h0.549v2.147c0,0.341,0.088,0.611,0.264,0.81c0.176,0.199,0.428,0.299,0.756,0.299
				c0.156,0,0.303-0.027,0.438-0.081c0.137-0.055,0.252-0.133,0.35-0.235c0.098-0.102,0.174-0.224,0.232-0.366
				c0.057-0.142,0.084-0.298,0.084-0.469v-2.104h0.543v3.684h-0.543v-0.642c-0.123,0.2-0.285,0.37-0.484,0.51
				S64.661,32.724,64.343,32.724z M64.948,27.401l0.57,0.264l-0.807,0.77h-0.441L64.948,27.401z"/>
			<path style="&st2;" d="M70.483,32.731c-0.275,0-0.529-0.052-0.762-0.153c-0.232-0.103-0.434-0.24-0.605-0.413
				c-0.172-0.174-0.305-0.376-0.398-0.606c-0.096-0.23-0.143-0.476-0.143-0.737v-0.014c0-0.262,0.047-0.509,0.143-0.741
				c0.094-0.233,0.227-0.438,0.398-0.613s0.375-0.314,0.609-0.417c0.234-0.102,0.492-0.152,0.773-0.152
				c0.275,0,0.531,0.051,0.766,0.152c0.234,0.103,0.438,0.24,0.609,0.414c0.17,0.173,0.303,0.375,0.398,0.605
				s0.143,0.477,0.143,0.737v0.015c0,0.261-0.049,0.508-0.146,0.74c-0.098,0.233-0.23,0.438-0.402,0.613
				c-0.17,0.176-0.375,0.314-0.613,0.417C71.017,32.68,70.759,32.731,70.483,32.731z M70.499,32.239
				c0.199,0,0.381-0.038,0.549-0.114c0.166-0.075,0.309-0.178,0.428-0.306c0.117-0.129,0.211-0.278,0.277-0.449s0.1-0.354,0.1-0.549
				v-0.014c0-0.2-0.035-0.387-0.104-0.56c-0.068-0.174-0.166-0.325-0.289-0.456s-0.268-0.234-0.434-0.311
				c-0.166-0.075-0.348-0.113-0.543-0.113c-0.199,0-0.381,0.038-0.547,0.113c-0.168,0.076-0.309,0.179-0.426,0.307
				c-0.115,0.129-0.207,0.279-0.273,0.453c-0.066,0.173-0.1,0.357-0.1,0.552v0.015c0,0.199,0.035,0.386,0.104,0.559
				c0.068,0.174,0.164,0.324,0.285,0.453c0.121,0.128,0.264,0.23,0.43,0.306C70.124,32.201,70.304,32.239,70.499,32.239z"/>
			<path style="&st2;" d="M73.048,28.962h0.549v0.741c0.076-0.109,0.16-0.214,0.254-0.313c0.092-0.101,0.195-0.187,0.311-0.261
				c0.113-0.073,0.24-0.133,0.381-0.178c0.139-0.045,0.295-0.067,0.467-0.067c0.219,0,0.434,0.042,0.645,0.128
				c0.211,0.085,0.4,0.21,0.566,0.374s0.299,0.363,0.398,0.599s0.15,0.505,0.15,0.809v0.015c0,0.299-0.051,0.567-0.15,0.805
				s-0.23,0.438-0.395,0.603c-0.164,0.163-0.352,0.289-0.563,0.377c-0.213,0.088-0.43,0.132-0.652,0.132
				c-0.172,0-0.328-0.021-0.471-0.063c-0.143-0.043-0.271-0.101-0.385-0.172c-0.113-0.07-0.217-0.154-0.311-0.249
				c-0.092-0.095-0.174-0.194-0.246-0.299v1.845h-0.549V28.962z M74.909,32.232c0.176,0,0.342-0.032,0.502-0.097
				c0.158-0.063,0.297-0.156,0.412-0.277c0.117-0.121,0.209-0.27,0.279-0.445c0.068-0.176,0.104-0.375,0.104-0.599V30.8
				c0-0.218-0.035-0.415-0.104-0.591c-0.07-0.176-0.164-0.325-0.281-0.449c-0.119-0.123-0.258-0.219-0.414-0.285
				s-0.322-0.1-0.498-0.1c-0.172,0-0.336,0.034-0.496,0.104c-0.158,0.068-0.301,0.166-0.428,0.292
				c-0.125,0.126-0.225,0.275-0.299,0.449c-0.074,0.173-0.111,0.364-0.111,0.573v0.015c0,0.213,0.037,0.408,0.111,0.584
				s0.174,0.325,0.299,0.449c0.127,0.123,0.27,0.22,0.428,0.288C74.573,32.198,74.737,32.232,74.909,32.232z"/>
			<path style="&st2;" d="M79.085,32.731c-0.271,0-0.521-0.052-0.752-0.153c-0.23-0.103-0.432-0.24-0.6-0.413
				c-0.168-0.174-0.301-0.377-0.395-0.609c-0.096-0.233-0.143-0.478-0.143-0.734v-0.014c0-0.262,0.047-0.509,0.143-0.741
				c0.094-0.233,0.227-0.438,0.395-0.613s0.369-0.314,0.6-0.417c0.23-0.102,0.48-0.152,0.752-0.152c0.174,0,0.334,0.017,0.477,0.05
				s0.273,0.079,0.393,0.139c0.117,0.06,0.227,0.129,0.326,0.21s0.193,0.166,0.279,0.257l-0.363,0.385
				c-0.148-0.152-0.309-0.283-0.482-0.392c-0.172-0.109-0.385-0.164-0.637-0.164c-0.186,0-0.359,0.036-0.52,0.11
				c-0.162,0.073-0.303,0.175-0.422,0.303s-0.211,0.279-0.277,0.452c-0.066,0.174-0.1,0.36-0.1,0.56v0.015
				c0,0.199,0.035,0.386,0.104,0.559c0.068,0.174,0.164,0.326,0.285,0.456c0.121,0.131,0.264,0.233,0.428,0.307
				s0.342,0.11,0.537,0.11c0.238,0,0.447-0.052,0.631-0.156s0.348-0.235,0.496-0.393l0.348,0.328
				c-0.186,0.209-0.395,0.38-0.631,0.513C79.722,32.664,79.431,32.731,79.085,32.731z"/>
			<path style="&st2;" d="M81.149,27.551h0.627v0.605h-0.627V27.551z M81.187,28.962h0.547v3.684h-0.547V28.962z"/>
			<path style="&st2;" d="M84.335,32.731c-0.275,0-0.529-0.052-0.762-0.153c-0.234-0.103-0.436-0.24-0.605-0.413
				c-0.172-0.174-0.305-0.376-0.4-0.606c-0.094-0.23-0.143-0.476-0.143-0.737v-0.014c0-0.262,0.049-0.509,0.143-0.741
				c0.096-0.233,0.229-0.438,0.4-0.613c0.17-0.176,0.373-0.314,0.607-0.417c0.236-0.102,0.494-0.152,0.773-0.152
				c0.275,0,0.531,0.051,0.766,0.152c0.236,0.103,0.439,0.24,0.609,0.414c0.172,0.173,0.305,0.375,0.4,0.605
				c0.094,0.23,0.143,0.477,0.143,0.737v0.015c0,0.261-0.049,0.508-0.146,0.74c-0.098,0.233-0.232,0.438-0.402,0.613
				c-0.172,0.176-0.375,0.314-0.613,0.417C84.866,32.68,84.61,32.731,84.335,32.731z M84.349,32.239
				c0.199,0,0.383-0.038,0.549-0.114c0.166-0.075,0.309-0.178,0.428-0.306c0.119-0.129,0.211-0.278,0.277-0.449s0.1-0.354,0.1-0.549
				v-0.014c0-0.2-0.033-0.387-0.104-0.56c-0.068-0.174-0.164-0.325-0.287-0.456c-0.125-0.131-0.27-0.234-0.436-0.311
				c-0.166-0.075-0.346-0.113-0.541-0.113c-0.199,0-0.383,0.038-0.549,0.113c-0.166,0.076-0.307,0.179-0.424,0.307
				c-0.117,0.129-0.207,0.279-0.273,0.453c-0.068,0.173-0.102,0.357-0.102,0.552v0.015c0,0.199,0.035,0.386,0.104,0.559
				c0.07,0.174,0.164,0.324,0.285,0.453c0.121,0.128,0.266,0.23,0.432,0.306C83.974,32.201,84.153,32.239,84.349,32.239z"/>
			<path style="&st2;" d="M86.899,28.962h0.549v0.641c0.125-0.199,0.285-0.369,0.484-0.509c0.201-0.141,0.459-0.21,0.777-0.21
				c0.223,0,0.422,0.035,0.596,0.106c0.172,0.071,0.32,0.172,0.441,0.303s0.213,0.286,0.277,0.467s0.096,0.38,0.096,0.599v2.287
				h-0.547v-2.147c0-0.341-0.088-0.611-0.264-0.811c-0.176-0.198-0.428-0.298-0.756-0.298c-0.156,0-0.303,0.027-0.439,0.081
				c-0.135,0.055-0.252,0.133-0.352,0.235c-0.1,0.102-0.178,0.224-0.232,0.366c-0.055,0.142-0.082,0.298-0.082,0.469v2.104h-0.549
				V28.962z"/>
			<path style="&st2;" d="M91.261,31.028c0.02,0.194,0.066,0.368,0.143,0.52c0.076,0.152,0.174,0.28,0.293,0.385
				s0.252,0.185,0.398,0.239s0.303,0.082,0.463,0.082c0.258,0,0.477-0.048,0.66-0.143c0.182-0.095,0.35-0.221,0.502-0.378
				l0.342,0.307c-0.186,0.209-0.396,0.376-0.635,0.502c-0.236,0.126-0.531,0.189-0.883,0.189c-0.252,0-0.49-0.047-0.713-0.14
				s-0.418-0.223-0.584-0.392s-0.299-0.372-0.395-0.609c-0.098-0.237-0.146-0.499-0.146-0.783c0-0.267,0.043-0.517,0.131-0.752
				s0.211-0.439,0.367-0.613c0.156-0.173,0.344-0.31,0.559-0.409c0.217-0.1,0.453-0.149,0.709-0.149
				c0.271,0,0.514,0.051,0.729,0.152c0.213,0.103,0.393,0.241,0.541,0.417c0.146,0.176,0.258,0.383,0.334,0.62
				s0.115,0.491,0.115,0.763c0,0.023,0,0.051,0,0.082c0,0.03-0.004,0.067-0.008,0.11H91.261z M93.634,30.579
				c-0.014-0.165-0.049-0.322-0.107-0.471c-0.057-0.149-0.133-0.28-0.23-0.394s-0.217-0.203-0.357-0.27
				c-0.139-0.065-0.299-0.099-0.48-0.099c-0.156,0-0.303,0.03-0.441,0.092s-0.26,0.147-0.363,0.259
				c-0.105,0.111-0.191,0.242-0.26,0.394c-0.068,0.15-0.113,0.313-0.133,0.488H93.634z"/>
			<path style="&st2;" d="M96.013,32.717c-0.266,0-0.533-0.049-0.805-0.146c-0.271-0.097-0.51-0.229-0.719-0.396l0.277-0.392
				c0.199,0.152,0.406,0.269,0.623,0.35c0.217,0.08,0.434,0.121,0.652,0.121c0.223,0,0.406-0.053,0.549-0.157
				s0.213-0.247,0.213-0.428v-0.014c0-0.091-0.025-0.169-0.074-0.235c-0.051-0.066-0.117-0.125-0.203-0.175
				s-0.184-0.094-0.295-0.132c-0.113-0.038-0.229-0.073-0.346-0.106c-0.143-0.043-0.287-0.089-0.432-0.139s-0.275-0.113-0.393-0.189
				c-0.115-0.076-0.211-0.171-0.285-0.285c-0.072-0.113-0.109-0.256-0.109-0.427v-0.015c0-0.157,0.031-0.301,0.092-0.431
				c0.063-0.131,0.148-0.242,0.26-0.335c0.113-0.093,0.246-0.164,0.4-0.214s0.32-0.075,0.502-0.075c0.229,0,0.459,0.037,0.691,0.11
				c0.232,0.074,0.443,0.173,0.633,0.296l-0.248,0.413c-0.172-0.109-0.352-0.195-0.539-0.26s-0.371-0.097-0.551-0.097
				c-0.219,0-0.393,0.052-0.521,0.153c-0.127,0.103-0.191,0.229-0.191,0.382v0.014c0,0.086,0.025,0.16,0.078,0.225
				s0.123,0.12,0.211,0.168c0.088,0.047,0.188,0.09,0.303,0.128c0.113,0.038,0.232,0.076,0.355,0.114
				c0.143,0.042,0.283,0.09,0.424,0.143c0.141,0.052,0.268,0.118,0.381,0.199c0.115,0.081,0.205,0.178,0.275,0.292
				c0.068,0.114,0.104,0.254,0.104,0.42v0.015c0,0.176-0.035,0.331-0.104,0.467c-0.07,0.136-0.162,0.251-0.279,0.346
				c-0.115,0.095-0.254,0.167-0.412,0.217C96.37,32.691,96.198,32.717,96.013,32.717z"/>
		</g>
	</g>
</g>
</svg>
