<?xml version="1.0" encoding="iso-8859-1"?>
<!-- Generator: Adobe Illustrator 16.0.0, SVG Export Plug-In . SVG Version: 6.00 Build 0)  -->
<!DOCTYPE svg PUBLIC "-//W3C//DTD SVG 1.1//EN" "http://www.w3.org/Graphics/SVG/1.1/DTD/svg11.dtd" [
	<!ENTITY ns_flows "http://ns.adobe.com/Flows/1.0/">
	<!ENTITY ns_extend "http://ns.adobe.com/Extensibility/1.0/">
	<!ENTITY ns_ai "http://ns.adobe.com/AdobeIllustrator/10.0/">
	<!ENTITY ns_graphs "http://ns.adobe.com/Graphs/1.0/">
	<!ENTITY st0 "clip-path:url(#SVGID_2_);">
	<!ENTITY st1 "fill:url(#SVGID_3_);">
	<!ENTITY st2 "fill:#FFFFFF;">
]>
<svg version="1.1" id="Capa_1" xmlns:x="&ns_extend;" xmlns:i="&ns_ai;" xmlns:graph="&ns_graphs;"
	 xmlns="http://www.w3.org/2000/svg" xmlns:xlink="http://www.w3.org/1999/xlink" xmlns:a="http://ns.adobe.com/AdobeSVGViewerExtensions/3.0/"
	 x="0px" y="0px" width="153.588px" height="46.076px" viewBox="0 0 153.588 46.076"
	 style="enable-background:new 0 0 153.588 46.076;" xml:space="preserve">
<g>
	<g>
		<defs>
			<rect id="SVGID_1_" x="0" width="153.588" height="46.076"/>
		</defs>
		<use xlink:href="#SVGID_1_"  style="overflow:visible;fill:#A4A2A3;"/>
		<clipPath id="SVGID_2_">
			<use xlink:href="#SVGID_1_"  style="overflow:visible;"/>
		</clipPath>
		<g style="&st0;">
			<linearGradient id="SVGID_3_" gradientUnits="userSpaceOnUse" x1="1.0298" y1="49.0693" x2="42.8764" y2="13.9559">
				<stop  offset="0" style="stop-color:#7C7A7C;stop-opacity:0"/>
				<stop  offset="1" style="stop-color:#7C7A7C"/>
				<a:midPointStop  offset="0" style="stop-color:#7C7A7C;stop-opacity:0"/>
				<a:midPointStop  offset="0.7" style="stop-color:#7C7A7C;stop-opacity:0"/>
				<a:midPointStop  offset="1" style="stop-color:#7C7A7C"/>
			</linearGradient>
			<path style="&st1;" d="M34.152,8.286c-2.884,0-5.433,1.436-6.972,3.631L-1.482,46.076h24.654l12.009-14.72
				c1.111-0.955,3.408-3.162,5.168-6.336l0.08-0.098l-0.014-0.015c1.113-2.038,1.996-4.464,2.197-7.21
				c0.031-0.298,0.047-0.599,0.047-0.904c0-0.09-0.002-0.181-0.004-0.271C42.512,11.949,38.76,8.286,34.152,8.286z"/>
			<path style="&st2;" d="M34.521,31.895c-0.094,0.095-0.225,0.153-0.369,0.153s-0.275-0.059-0.369-0.153
				c-0.004-0.003-7.458-5.51-8.091-14.196c-0.031-0.298-0.048-0.599-0.048-0.904c0-0.09,0.002-0.181,0.005-0.271l0,0l0,0
				c0.144-4.574,3.895-8.237,8.503-8.237c4.607,0,8.359,3.663,8.504,8.237l0,0l0,0c0.002,0.09,0.004,0.181,0.004,0.271
				c0,0.306-0.016,0.606-0.047,0.904C41.979,26.383,34.529,31.89,34.521,31.895z M34.152,10.883c-3.265,0-5.911,2.646-5.911,5.911
				s2.646,5.911,5.911,5.911c3.264,0,5.912-2.646,5.912-5.911S37.416,10.883,34.152,10.883z"/>
		</g>
	</g>
	<g>
		<path style="&st2;" d="M53.162,24.431c-0.84,0-1.607-0.138-2.303-0.413c-0.695-0.274-1.357-0.697-1.988-1.268l0.736-0.87
			c0.549,0.501,1.104,0.873,1.664,1.118s1.205,0.367,1.936,0.367c0.709,0,1.277-0.167,1.703-0.503
			c0.424-0.334,0.637-0.762,0.637-1.282v-0.03c0-0.239-0.039-0.457-0.119-0.652c-0.082-0.194-0.221-0.372-0.422-0.532
			s-0.479-0.305-0.834-0.435s-0.811-0.256-1.361-0.375c-0.602-0.13-1.125-0.28-1.572-0.45c-0.445-0.17-0.814-0.375-1.104-0.615
			c-0.291-0.24-0.508-0.52-0.646-0.84c-0.141-0.32-0.211-0.695-0.211-1.125v-0.03c0-0.41,0.084-0.79,0.254-1.14
			c0.17-0.351,0.41-0.652,0.721-0.907c0.311-0.256,0.676-0.455,1.096-0.601c0.42-0.145,0.879-0.218,1.379-0.218
			c0.77,0,1.443,0.108,2.018,0.323c0.576,0.215,1.133,0.537,1.674,0.967l-0.691,0.915c-0.49-0.399-0.982-0.689-1.477-0.87
			c-0.496-0.18-1.014-0.27-1.553-0.27c-0.689,0-1.236,0.163-1.635,0.487c-0.4,0.325-0.6,0.728-0.6,1.208v0.029
			c0,0.25,0.039,0.473,0.119,0.668s0.225,0.375,0.436,0.54c0.209,0.165,0.5,0.314,0.869,0.45c0.371,0.135,0.846,0.262,1.426,0.382
			c1.17,0.261,2.031,0.62,2.588,1.08c0.555,0.46,0.832,1.09,0.832,1.891v0.029c0,0.45-0.09,0.857-0.268,1.223
			s-0.422,0.678-0.734,0.938c-0.313,0.261-0.689,0.46-1.129,0.601C54.162,24.36,53.682,24.431,53.162,24.431z"/>
		<path style="&st2;" d="M63.271,24.46c-0.801,0-1.527-0.145-2.182-0.435c-0.656-0.29-1.219-0.683-1.688-1.178
			c-0.471-0.495-0.834-1.069-1.088-1.725c-0.256-0.655-0.383-1.343-0.383-2.063v-0.03c0-0.72,0.129-1.41,0.391-2.07
			c0.26-0.66,0.625-1.237,1.094-1.732c0.471-0.495,1.035-0.89,1.695-1.185s1.391-0.442,2.189-0.442c0.801,0,1.527,0.145,2.184,0.435
			c0.654,0.29,1.217,0.683,1.688,1.178c0.469,0.495,0.832,1.07,1.088,1.725c0.254,0.655,0.383,1.343,0.383,2.063
			c0.01,0.011,0.01,0.021,0,0.03c0,0.72-0.131,1.41-0.391,2.07s-0.625,1.237-1.096,1.732s-1.035,0.89-1.695,1.185
			S64.072,24.46,63.271,24.46z M63.301,23.365c0.602,0,1.152-0.112,1.658-0.338c0.506-0.225,0.938-0.532,1.297-0.922
			c0.361-0.391,0.643-0.845,0.848-1.365c0.205-0.52,0.309-1.08,0.309-1.68v-0.03c0-0.6-0.104-1.162-0.309-1.688
			s-0.492-0.982-0.861-1.372c-0.371-0.391-0.809-0.7-1.313-0.931c-0.506-0.229-1.059-0.345-1.658-0.345s-1.152,0.112-1.658,0.338
			c-0.504,0.225-0.938,0.532-1.297,0.922c-0.359,0.391-0.643,0.846-0.848,1.365c-0.205,0.521-0.307,1.08-0.307,1.68v0.03
			c0,0.6,0.102,1.162,0.307,1.688s0.492,0.982,0.863,1.372c0.369,0.391,0.807,0.7,1.313,0.931
			C62.148,23.25,62.701,23.365,63.301,23.365z"/>
		<path style="&st2;" d="M74.012,24.431c-0.84,0-1.607-0.138-2.303-0.413c-0.695-0.274-1.357-0.697-1.988-1.268l0.736-0.87
			c0.549,0.501,1.104,0.873,1.664,1.118s1.205,0.367,1.936,0.367c0.709,0,1.277-0.167,1.703-0.503
			c0.424-0.334,0.637-0.762,0.637-1.282v-0.03c0-0.239-0.039-0.457-0.119-0.652c-0.082-0.194-0.221-0.372-0.422-0.532
			s-0.479-0.305-0.834-0.435s-0.811-0.256-1.361-0.375c-0.602-0.13-1.125-0.28-1.572-0.45c-0.445-0.17-0.814-0.375-1.104-0.615
			c-0.291-0.24-0.508-0.52-0.646-0.84c-0.141-0.32-0.211-0.695-0.211-1.125v-0.03c0-0.41,0.084-0.79,0.254-1.14
			c0.17-0.351,0.41-0.652,0.721-0.907c0.311-0.256,0.676-0.455,1.096-0.601c0.42-0.145,0.879-0.218,1.379-0.218
			c0.77,0,1.443,0.108,2.018,0.323c0.576,0.215,1.133,0.537,1.674,0.967l-0.691,0.915c-0.49-0.399-0.982-0.689-1.477-0.87
			c-0.496-0.18-1.014-0.27-1.553-0.27c-0.689,0-1.236,0.163-1.635,0.487c-0.4,0.325-0.6,0.728-0.6,1.208v0.029
			c0,0.25,0.039,0.473,0.119,0.668s0.225,0.375,0.436,0.54c0.209,0.165,0.5,0.314,0.869,0.45c0.371,0.135,0.846,0.262,1.426,0.382
			c1.17,0.261,2.031,0.62,2.588,1.08c0.555,0.46,0.832,1.09,0.832,1.891v0.029c0,0.45-0.09,0.857-0.268,1.223
			s-0.422,0.678-0.734,0.938c-0.313,0.261-0.689,0.46-1.129,0.601C75.012,24.36,74.531,24.431,74.012,24.431z"/>
	</g>
	<g>
		<g>
			<path style="&st2;" d="M82.73,16.525h1.154v1.305c0.131-0.189,0.273-0.375,0.428-0.555s0.332-0.338,0.533-0.473
				c0.199-0.135,0.424-0.242,0.674-0.322s0.541-0.12,0.871-0.12c0.629,0,1.148,0.147,1.559,0.442s0.721,0.663,0.932,1.103
				c0.139-0.21,0.297-0.41,0.471-0.6c0.176-0.19,0.373-0.355,0.594-0.495c0.219-0.141,0.467-0.25,0.742-0.33s0.582-0.12,0.922-0.12
				c0.9,0,1.605,0.277,2.115,0.832c0.51,0.556,0.766,1.318,0.766,2.288v4.8h-1.156V19.76c0-0.748-0.176-1.324-0.531-1.729
				c-0.355-0.403-0.848-0.606-1.479-0.606c-0.289,0-0.564,0.053-0.824,0.158c-0.26,0.104-0.488,0.259-0.682,0.463
				c-0.195,0.205-0.352,0.457-0.467,0.756c-0.113,0.3-0.172,0.639-0.172,1.019v4.46h-1.141v-4.55c0-0.729-0.178-1.295-0.531-1.699
				c-0.355-0.403-0.844-0.606-1.463-0.606c-0.311,0-0.596,0.061-0.855,0.181c-0.26,0.119-0.486,0.289-0.682,0.509
				c-0.195,0.219-0.348,0.476-0.457,0.771c-0.111,0.294-0.166,0.621-0.166,0.98v4.415H82.73V16.525z"/>
			<path style="&st2;" d="M98.555,24.445c-0.359,0-0.715-0.05-1.064-0.15c-0.352-0.1-0.66-0.252-0.93-0.457
				c-0.271-0.205-0.488-0.458-0.654-0.758c-0.164-0.3-0.246-0.649-0.246-1.05V22c0-0.42,0.08-0.787,0.24-1.103
				c0.158-0.314,0.387-0.577,0.682-0.787s0.645-0.37,1.051-0.48c0.404-0.109,0.852-0.165,1.342-0.165c0.5,0,0.932,0.03,1.297,0.091
				c0.365,0.06,0.723,0.14,1.072,0.239v-0.238c0-0.686-0.199-1.204-0.6-1.558c-0.4-0.353-0.965-0.528-1.695-0.528
				c-0.459,0-0.877,0.05-1.252,0.149c-0.375,0.101-0.742,0.235-1.102,0.405l-0.346-0.951c0.43-0.202,0.865-0.364,1.305-0.486
				s0.945-0.183,1.516-0.183c1.1,0,1.936,0.285,2.504,0.855c0.541,0.539,0.811,1.3,0.811,2.279v4.74h-1.141v-1.155
				c-0.27,0.351-0.631,0.658-1.086,0.923S99.234,24.445,98.555,24.445z M98.787,23.5c0.359,0,0.693-0.05,1.002-0.149
				c0.311-0.099,0.582-0.241,0.816-0.425c0.232-0.185,0.418-0.403,0.553-0.657s0.201-0.535,0.201-0.843v-0.717
				c-0.289-0.08-0.617-0.154-0.986-0.225c-0.369-0.069-0.793-0.104-1.271-0.104c-0.717,0-1.273,0.143-1.666,0.426
				c-0.395,0.284-0.592,0.659-0.592,1.127v0.03c0,0.238,0.053,0.455,0.158,0.649c0.104,0.193,0.246,0.355,0.426,0.484
				c0.18,0.13,0.387,0.229,0.621,0.299C98.283,23.466,98.529,23.5,98.787,23.5z"/>
			<path style="&st2;" d="M104.18,16.525h1.156v1.56c0.158-0.229,0.336-0.449,0.531-0.66c0.195-0.21,0.412-0.392,0.652-0.547
				s0.508-0.28,0.803-0.375s0.623-0.143,0.982-0.143c0.461,0,0.912,0.09,1.357,0.27c0.445,0.181,0.844,0.443,1.193,0.788
				s0.629,0.765,0.84,1.26c0.209,0.495,0.314,1.063,0.314,1.702v0.03c0,0.63-0.105,1.195-0.314,1.695
				c-0.211,0.5-0.488,0.922-0.832,1.268c-0.346,0.345-0.74,0.609-1.186,0.795c-0.445,0.185-0.902,0.277-1.373,0.277
				c-0.359,0-0.689-0.045-0.99-0.135c-0.299-0.09-0.568-0.21-0.809-0.36s-0.459-0.325-0.652-0.525
				c-0.195-0.199-0.369-0.409-0.518-0.63v3.886h-1.156V16.525z M108.096,23.41c0.369,0,0.723-0.067,1.057-0.202
				c0.336-0.135,0.625-0.33,0.871-0.585c0.244-0.255,0.439-0.567,0.584-0.938s0.217-0.79,0.217-1.261v-0.029
				c0-0.46-0.072-0.875-0.217-1.245s-0.342-0.685-0.592-0.945c-0.25-0.26-0.541-0.46-0.871-0.6s-0.68-0.21-1.049-0.21
				c-0.361,0-0.709,0.072-1.043,0.217c-0.336,0.146-0.635,0.351-0.9,0.615c-0.266,0.266-0.475,0.58-0.629,0.945
				c-0.156,0.365-0.232,0.768-0.232,1.207v0.03c0,0.45,0.076,0.86,0.232,1.23c0.154,0.37,0.363,0.685,0.629,0.944
				c0.266,0.261,0.564,0.463,0.9,0.607C107.387,23.338,107.734,23.41,108.096,23.41z"/>
			<path style="&st2;" d="M115.699,24.445c-0.359,0-0.715-0.05-1.064-0.15c-0.352-0.1-0.66-0.252-0.93-0.457
				c-0.271-0.205-0.488-0.458-0.654-0.758c-0.164-0.3-0.246-0.649-0.246-1.05V22c0-0.42,0.08-0.787,0.24-1.103
				c0.158-0.314,0.387-0.577,0.682-0.787s0.645-0.37,1.051-0.48c0.404-0.109,0.852-0.165,1.342-0.165c0.5,0,0.932,0.03,1.297,0.091
				c0.365,0.06,0.723,0.14,1.072,0.239v-0.238c0-0.686-0.199-1.204-0.6-1.558c-0.4-0.353-0.965-0.528-1.696-0.528
				c-0.459,0-0.877,0.05-1.252,0.149c-0.375,0.101-0.742,0.235-1.102,0.405l-0.346-0.951c0.43-0.202,0.865-0.364,1.305-0.486
				s0.945-0.183,1.516-0.183c1.1,0,1.936,0.285,2.504,0.855c0.541,0.539,0.811,1.3,0.811,2.279v4.74h-1.141v-1.155
				c-0.27,0.351-0.631,0.658-1.086,0.923C116.947,24.313,116.379,24.445,115.699,24.445z M115.932,23.5
				c0.359,0,0.693-0.05,1.002-0.149c0.311-0.099,0.583-0.241,0.817-0.425c0.232-0.185,0.418-0.403,0.553-0.657
				s0.201-0.535,0.201-0.843v-0.717c-0.289-0.08-0.617-0.154-0.986-0.225c-0.37-0.069-0.793-0.104-1.272-0.104
				c-0.717,0-1.273,0.143-1.666,0.426c-0.395,0.284-0.592,0.659-0.592,1.127v0.03c0,0.238,0.053,0.455,0.158,0.649
				c0.104,0.193,0.246,0.355,0.426,0.484c0.18,0.13,0.387,0.229,0.621,0.299C115.428,23.466,115.674,23.5,115.932,23.5z"/>
		</g>
	</g>
	<g>
		<g>
			<path style="&st2;" d="M49.893,32.717c-0.266,0-0.533-0.049-0.805-0.146c-0.271-0.097-0.51-0.229-0.719-0.396l0.277-0.392
				c0.199,0.152,0.406,0.269,0.623,0.35c0.217,0.08,0.434,0.121,0.652,0.121c0.223,0,0.406-0.053,0.549-0.157
				s0.213-0.247,0.213-0.428v-0.014c0-0.091-0.025-0.169-0.074-0.235c-0.051-0.066-0.117-0.125-0.203-0.175
				s-0.184-0.094-0.295-0.132c-0.113-0.038-0.229-0.073-0.346-0.106c-0.143-0.043-0.287-0.089-0.432-0.139s-0.275-0.113-0.393-0.189
				c-0.115-0.076-0.211-0.171-0.285-0.285c-0.072-0.113-0.109-0.256-0.109-0.427v-0.015c0-0.157,0.031-0.301,0.092-0.431
				c0.063-0.131,0.148-0.242,0.26-0.335c0.113-0.093,0.246-0.164,0.4-0.214s0.32-0.075,0.502-0.075c0.229,0,0.459,0.037,0.691,0.11
				c0.232,0.074,0.443,0.173,0.633,0.296l-0.248,0.413c-0.172-0.109-0.352-0.195-0.539-0.26s-0.371-0.097-0.551-0.097
				c-0.219,0-0.393,0.052-0.521,0.153c-0.127,0.103-0.191,0.229-0.191,0.382v0.014c0,0.086,0.025,0.16,0.078,0.225
				s0.123,0.12,0.211,0.168c0.088,0.047,0.188,0.09,0.303,0.128c0.113,0.038,0.232,0.076,0.355,0.114
				c0.143,0.042,0.283,0.09,0.424,0.143c0.141,0.052,0.268,0.118,0.381,0.199c0.115,0.081,0.205,0.178,0.275,0.292
				c0.068,0.114,0.104,0.254,0.104,0.42v0.015c0,0.176-0.035,0.331-0.104,0.467c-0.07,0.136-0.162,0.251-0.279,0.346
				c-0.115,0.095-0.254,0.167-0.412,0.217C50.25,32.691,50.078,32.717,49.893,32.717z"/>
			<path style="&st2;" d="M53.549,32.731c-0.275,0-0.529-0.052-0.762-0.153c-0.234-0.103-0.436-0.24-0.605-0.413
				c-0.172-0.174-0.305-0.376-0.4-0.606c-0.094-0.23-0.143-0.476-0.143-0.737v-0.014c0-0.262,0.049-0.509,0.143-0.741
				c0.096-0.233,0.229-0.438,0.4-0.613c0.17-0.176,0.373-0.314,0.607-0.417c0.236-0.102,0.494-0.152,0.773-0.152
				c0.275,0,0.531,0.051,0.766,0.152c0.236,0.103,0.439,0.24,0.609,0.414c0.172,0.173,0.305,0.375,0.4,0.605
				c0.094,0.23,0.143,0.477,0.143,0.737v0.015c0,0.261-0.049,0.508-0.146,0.74c-0.098,0.233-0.232,0.438-0.402,0.613
				c-0.172,0.176-0.375,0.314-0.613,0.417C54.08,32.68,53.824,32.731,53.549,32.731z M53.563,32.239
				c0.199,0,0.383-0.038,0.549-0.114c0.166-0.075,0.309-0.178,0.428-0.306c0.119-0.129,0.211-0.278,0.277-0.449s0.1-0.354,0.1-0.549
				v-0.014c0-0.2-0.033-0.387-0.104-0.56c-0.068-0.174-0.164-0.325-0.287-0.456c-0.125-0.131-0.27-0.234-0.436-0.311
				c-0.166-0.075-0.346-0.113-0.541-0.113c-0.199,0-0.383,0.038-0.549,0.113c-0.166,0.076-0.307,0.179-0.424,0.307
				c-0.117,0.129-0.207,0.279-0.273,0.453c-0.068,0.173-0.102,0.357-0.102,0.552v0.015c0,0.199,0.035,0.386,0.104,0.559
				c0.07,0.174,0.164,0.324,0.285,0.453c0.121,0.128,0.266,0.23,0.432,0.306C53.188,32.201,53.367,32.239,53.563,32.239z"/>
			<path style="&st2;" d="M56.164,27.444h0.547v5.201h-0.547V27.444z"/>
			<path style="&st2;" d="M57.645,27.551h0.627v0.605h-0.627V27.551z M57.682,28.962h0.547v3.684h-0.547V28.962z"/>
			<path style="&st2;" d="M60.809,32.731c-0.271,0-0.521-0.052-0.752-0.153c-0.23-0.103-0.43-0.24-0.598-0.413
				c-0.17-0.174-0.301-0.377-0.396-0.609c-0.094-0.233-0.143-0.478-0.143-0.734v-0.014c0-0.262,0.049-0.509,0.143-0.741
				c0.096-0.233,0.227-0.438,0.396-0.613c0.168-0.176,0.367-0.314,0.598-0.417c0.23-0.102,0.48-0.152,0.752-0.152
				c0.176,0,0.334,0.017,0.477,0.05s0.273,0.079,0.393,0.139s0.229,0.129,0.328,0.21s0.191,0.166,0.277,0.257l-0.363,0.385
				c-0.146-0.152-0.307-0.283-0.48-0.392c-0.174-0.109-0.387-0.164-0.639-0.164c-0.184,0-0.357,0.036-0.52,0.11
				c-0.162,0.073-0.301,0.175-0.42,0.303s-0.211,0.279-0.277,0.452c-0.068,0.174-0.102,0.36-0.102,0.56v0.015
				c0,0.199,0.035,0.386,0.104,0.559c0.07,0.174,0.164,0.326,0.285,0.456c0.121,0.131,0.264,0.233,0.428,0.307
				s0.344,0.11,0.539,0.11c0.236,0,0.447-0.052,0.629-0.156c0.184-0.104,0.35-0.235,0.496-0.393l0.35,0.328
				c-0.186,0.209-0.396,0.38-0.631,0.513S61.156,32.731,60.809,32.731z"/>
			<path style="&st2;" d="M62.875,27.551h0.627v0.605h-0.627V27.551z M62.912,28.962h0.547v3.684h-0.547V28.962z"/>
			<path style="&st2;" d="M65.611,32.71c-0.146,0-0.285-0.02-0.412-0.058c-0.129-0.038-0.24-0.099-0.332-0.182
				c-0.094-0.083-0.166-0.191-0.217-0.324c-0.053-0.133-0.08-0.292-0.08-0.478v-2.223h-0.512v-0.484h0.512v-1.111h0.549v1.111h1.17
				v0.484h-1.17v2.146c0,0.228,0.059,0.386,0.172,0.476c0.113,0.091,0.264,0.136,0.449,0.136c0.094,0,0.184-0.009,0.268-0.027
				c0.082-0.018,0.172-0.049,0.266-0.094v0.47c-0.094,0.053-0.195,0.092-0.303,0.118C65.865,32.696,65.744,32.71,65.611,32.71z"/>
			<path style="&st2;" d="M68.254,32.724c-0.223,0-0.422-0.035-0.594-0.106c-0.174-0.071-0.322-0.172-0.443-0.303
				s-0.213-0.286-0.277-0.467s-0.096-0.38-0.096-0.599v-2.287h0.549v2.147c0,0.341,0.088,0.611,0.264,0.81
				c0.176,0.199,0.428,0.299,0.754,0.299c0.158,0,0.303-0.027,0.439-0.081c0.135-0.055,0.252-0.133,0.35-0.235
				c0.096-0.102,0.174-0.224,0.23-0.366c0.057-0.142,0.086-0.298,0.086-0.469v-2.104h0.541v3.684h-0.541v-0.642
				c-0.123,0.2-0.285,0.37-0.484,0.51S68.572,32.724,68.254,32.724z"/>
			<path style="&st2;" d="M72.48,32.724c-0.225,0-0.439-0.043-0.648-0.128c-0.209-0.086-0.396-0.21-0.564-0.374
				c-0.166-0.164-0.299-0.363-0.398-0.599s-0.148-0.505-0.148-0.809V30.8c0-0.299,0.049-0.567,0.148-0.805s0.232-0.438,0.398-0.603
				c0.168-0.164,0.355-0.289,0.564-0.377s0.424-0.132,0.648-0.132c0.17,0,0.326,0.021,0.469,0.063s0.271,0.1,0.385,0.171
				c0.115,0.071,0.219,0.154,0.311,0.25c0.094,0.095,0.174,0.194,0.246,0.299v-2.223h0.549v5.201h-0.549v-0.741
				c-0.076,0.109-0.16,0.214-0.254,0.313c-0.092,0.1-0.195,0.188-0.309,0.264c-0.115,0.076-0.242,0.136-0.381,0.179
				C72.807,32.702,72.65,32.724,72.48,32.724z M72.58,32.232c0.17,0,0.336-0.034,0.494-0.104c0.16-0.068,0.303-0.166,0.428-0.292
				c0.127-0.126,0.227-0.275,0.299-0.449c0.074-0.173,0.111-0.367,0.111-0.58v-0.015c0-0.214-0.037-0.407-0.111-0.581
				c-0.072-0.173-0.172-0.321-0.299-0.445c-0.125-0.123-0.268-0.22-0.428-0.288c-0.158-0.069-0.324-0.104-0.494-0.104
				c-0.182,0-0.35,0.032-0.506,0.097c-0.158,0.063-0.295,0.156-0.41,0.277c-0.117,0.121-0.209,0.27-0.277,0.445
				c-0.07,0.176-0.104,0.375-0.104,0.599v0.015c0,0.218,0.033,0.415,0.104,0.591c0.068,0.176,0.162,0.325,0.281,0.449
				c0.119,0.123,0.256,0.219,0.412,0.285C72.238,32.199,72.404,32.232,72.58,32.232z"/>
			<path style="&st2;" d="M78.75,32.731c-0.271,0-0.521-0.052-0.752-0.153c-0.23-0.103-0.43-0.24-0.598-0.413
				c-0.17-0.174-0.301-0.377-0.396-0.609c-0.094-0.233-0.143-0.478-0.143-0.734v-0.014c0-0.262,0.049-0.509,0.143-0.741
				c0.096-0.233,0.227-0.438,0.396-0.613c0.168-0.176,0.367-0.314,0.598-0.417c0.23-0.102,0.48-0.152,0.752-0.152
				c0.176,0,0.334,0.017,0.477,0.05s0.273,0.079,0.393,0.139s0.229,0.129,0.328,0.21s0.191,0.166,0.277,0.257l-0.363,0.385
				c-0.146-0.152-0.307-0.283-0.48-0.392c-0.174-0.109-0.387-0.164-0.639-0.164c-0.184,0-0.357,0.036-0.52,0.11
				c-0.162,0.073-0.301,0.175-0.42,0.303s-0.211,0.279-0.277,0.452c-0.068,0.174-0.102,0.36-0.102,0.56v0.015
				c0,0.199,0.035,0.386,0.104,0.559c0.07,0.174,0.164,0.326,0.285,0.456c0.121,0.131,0.264,0.233,0.428,0.307
				s0.344,0.11,0.539,0.11c0.236,0,0.447-0.052,0.629-0.156c0.184-0.104,0.35-0.235,0.496-0.393l0.35,0.328
				c-0.186,0.209-0.396,0.38-0.631,0.513S79.098,32.731,78.75,32.731z"/>
			<path style="&st2;" d="M82.482,32.731c-0.275,0-0.529-0.052-0.762-0.153c-0.232-0.103-0.434-0.24-0.605-0.413
				c-0.172-0.174-0.305-0.376-0.398-0.606c-0.096-0.23-0.143-0.476-0.143-0.737v-0.014c0-0.262,0.047-0.509,0.143-0.741
				c0.094-0.233,0.227-0.438,0.398-0.613s0.375-0.314,0.609-0.417c0.234-0.102,0.492-0.152,0.773-0.152
				c0.275,0,0.531,0.051,0.766,0.152c0.234,0.103,0.438,0.24,0.609,0.414c0.17,0.173,0.303,0.375,0.398,0.605
				s0.143,0.477,0.143,0.737v0.015c0,0.261-0.049,0.508-0.146,0.74c-0.098,0.233-0.23,0.438-0.402,0.613
				c-0.17,0.176-0.375,0.314-0.613,0.417C83.016,32.68,82.758,32.731,82.482,32.731z M82.498,32.239
				c0.199,0,0.381-0.038,0.549-0.114c0.166-0.075,0.309-0.178,0.428-0.306c0.117-0.129,0.211-0.278,0.277-0.449s0.1-0.354,0.1-0.549
				v-0.014c0-0.2-0.035-0.387-0.104-0.56c-0.068-0.174-0.166-0.325-0.289-0.456s-0.268-0.234-0.434-0.311
				c-0.166-0.075-0.348-0.113-0.543-0.113c-0.199,0-0.381,0.038-0.547,0.113c-0.168,0.076-0.309,0.179-0.426,0.307
				c-0.115,0.129-0.207,0.279-0.273,0.453c-0.066,0.173-0.1,0.357-0.1,0.552v0.015c0,0.199,0.035,0.386,0.104,0.559
				c0.068,0.174,0.164,0.324,0.285,0.453c0.121,0.128,0.264,0.23,0.43,0.306C82.123,32.201,82.303,32.239,82.498,32.239z"/>
			<path style="&st2;" d="M85.049,28.962h0.549v0.641c0.123-0.199,0.285-0.369,0.484-0.509c0.199-0.141,0.459-0.21,0.777-0.21
				c0.223,0,0.42,0.035,0.594,0.106s0.32,0.172,0.441,0.303s0.215,0.286,0.279,0.467s0.096,0.38,0.096,0.599v2.287h-0.549v-2.147
				c0-0.341-0.088-0.611-0.264-0.811c-0.176-0.198-0.428-0.298-0.756-0.298c-0.156,0-0.303,0.027-0.438,0.081
				c-0.135,0.055-0.254,0.133-0.354,0.235c-0.1,0.102-0.176,0.224-0.23,0.366c-0.055,0.142-0.082,0.298-0.082,0.469v2.104h-0.549
				V28.962z"/>
			<path style="&st2;" d="M93.271,32.731c-0.395,0-0.748-0.067-1.059-0.2c-0.313-0.133-0.578-0.315-0.799-0.549
				c-0.221-0.232-0.389-0.504-0.506-0.815c-0.115-0.312-0.174-0.645-0.174-1.001v-0.015c0-0.342,0.061-0.668,0.182-0.979
				c0.121-0.311,0.291-0.585,0.51-0.823c0.219-0.237,0.48-0.426,0.787-0.566c0.307-0.14,0.646-0.21,1.021-0.21
				c0.209,0,0.4,0.015,0.574,0.043s0.334,0.071,0.484,0.128c0.15,0.058,0.289,0.127,0.42,0.21c0.131,0.084,0.258,0.178,0.381,0.282
				l-0.363,0.427c-0.094-0.085-0.193-0.162-0.299-0.231c-0.104-0.068-0.217-0.128-0.338-0.178s-0.254-0.089-0.398-0.118
				c-0.146-0.028-0.307-0.042-0.482-0.042c-0.275,0-0.529,0.055-0.762,0.163c-0.232,0.109-0.432,0.257-0.598,0.442
				c-0.168,0.186-0.297,0.402-0.393,0.651c-0.096,0.25-0.143,0.513-0.143,0.788v0.014c0,0.3,0.047,0.575,0.139,0.827
				c0.094,0.252,0.225,0.47,0.396,0.655c0.17,0.186,0.377,0.33,0.619,0.435s0.516,0.157,0.82,0.157c0.283,0,0.553-0.049,0.805-0.146
				s0.463-0.215,0.633-0.353v-1.24h-1.518V29.98h2.061v1.988c-0.234,0.209-0.52,0.389-0.859,0.538S93.693,32.731,93.271,32.731z"/>
			<path style="&st2;" d="M96.186,27.658h1.867c0.279,0,0.535,0.036,0.766,0.11c0.23,0.073,0.428,0.178,0.592,0.313
				c0.164,0.135,0.289,0.3,0.377,0.495c0.088,0.194,0.133,0.416,0.133,0.662v0.015c0,0.271-0.053,0.507-0.158,0.709
				c-0.104,0.202-0.246,0.372-0.424,0.51s-0.385,0.241-0.623,0.31c-0.238,0.069-0.49,0.104-0.756,0.104h-1.211v1.76h-0.563V27.658z
				 M97.984,30.38c0.205,0,0.393-0.026,0.561-0.079c0.17-0.052,0.314-0.127,0.436-0.225s0.215-0.214,0.279-0.347
				c0.064-0.134,0.096-0.284,0.096-0.45v-0.015c0-0.357-0.121-0.628-0.367-0.812s-0.57-0.275-0.975-0.275h-1.266v2.202H97.984z"/>
			<path style="&st2;" d="M102.307,32.717c-0.4,0-0.764-0.065-1.094-0.196c-0.33-0.13-0.646-0.331-0.945-0.602l0.35-0.413
				c0.262,0.237,0.525,0.414,0.791,0.53s0.572,0.175,0.92,0.175c0.336,0,0.605-0.079,0.809-0.238
				c0.201-0.159,0.303-0.362,0.303-0.609v-0.015c0-0.114-0.02-0.217-0.059-0.31c-0.037-0.093-0.104-0.177-0.199-0.253
				s-0.227-0.146-0.396-0.207c-0.168-0.062-0.385-0.121-0.646-0.178c-0.285-0.062-0.535-0.133-0.746-0.214
				c-0.213-0.081-0.387-0.179-0.525-0.292c-0.139-0.114-0.24-0.247-0.307-0.399s-0.1-0.33-0.1-0.534v-0.015
				c0-0.194,0.039-0.375,0.121-0.541c0.08-0.166,0.193-0.311,0.342-0.432c0.146-0.121,0.32-0.216,0.52-0.285
				c0.199-0.068,0.418-0.103,0.656-0.103c0.365,0,0.686,0.051,0.957,0.153c0.273,0.102,0.539,0.255,0.795,0.459l-0.328,0.435
				c-0.232-0.189-0.467-0.327-0.701-0.413s-0.48-0.128-0.736-0.128c-0.328,0-0.588,0.077-0.777,0.231s-0.285,0.346-0.285,0.573
				v0.015c0,0.118,0.02,0.225,0.057,0.316c0.039,0.093,0.107,0.179,0.207,0.257s0.238,0.149,0.414,0.214
				c0.174,0.064,0.4,0.125,0.676,0.182c0.557,0.124,0.965,0.295,1.229,0.513c0.264,0.219,0.396,0.519,0.396,0.898v0.014
				c0,0.214-0.043,0.407-0.127,0.581s-0.201,0.322-0.35,0.445c-0.148,0.124-0.326,0.219-0.535,0.285S102.553,32.717,102.307,32.717z
				"/>
		</g>
	</g>
</g>
</svg>
