<?xml version="1.0" encoding="iso-8859-1"?>
<!-- Generator: Adobe Illustrator 16.0.0, SVG Export Plug-In . SVG Version: 6.00 Build 0)  -->
<!DOCTYPE svg PUBLIC "-//W3C//DTD SVG 1.1//EN" "http://www.w3.org/Graphics/SVG/1.1/DTD/svg11.dtd" [
	<!ENTITY ns_flows "http://ns.adobe.com/Flows/1.0/">
	<!ENTITY ns_extend "http://ns.adobe.com/Extensibility/1.0/">
	<!ENTITY ns_ai "http://ns.adobe.com/AdobeIllustrator/10.0/">
	<!ENTITY ns_graphs "http://ns.adobe.com/Graphs/1.0/">
	<!ENTITY st0 "clip-path:url(#SVGID_2_);">
	<!ENTITY st1 "fill:url(#SVGID_3_);">
	<!ENTITY st2 "fill:#FFFFFF;">
]>
<svg version="1.1" id="Capa_1" xmlns:x="&ns_extend;" xmlns:i="&ns_ai;" xmlns:graph="&ns_graphs;"
	 xmlns="http://www.w3.org/2000/svg" xmlns:xlink="http://www.w3.org/1999/xlink" xmlns:a="http://ns.adobe.com/AdobeSVGViewerExtensions/3.0/"
	 x="0px" y="0px" width="153.588px" height="92.512px" viewBox="0 0 153.588 92.512"
	 style="enable-background:new 0 0 153.588 92.512;" xml:space="preserve">
<g>
	<g>
		<defs>
			<rect id="SVGID_1_" width="153.588" height="92.512"/>
		</defs>
		<use xlink:href="#SVGID_1_"  style="overflow:visible;fill:#E9521D;"/>
		<clipPath id="SVGID_2_">
			<use xlink:href="#SVGID_1_"  style="overflow:visible;"/>
		</clipPath>
		<g style="&st0;">
			<linearGradient id="SVGID_3_" gradientUnits="userSpaceOnUse" x1="-15.0337" y1="101.7705" x2="68.9945" y2="31.2625">
				<stop  offset="0" style="stop-color:#9A3311;stop-opacity:0"/>
				<stop  offset="1" style="stop-color:#9A3311"/>
				<a:midPointStop  offset="0" style="stop-color:#9A3311;stop-opacity:0"/>
				<a:midPointStop  offset="0.7" style="stop-color:#9A3311;stop-opacity:0"/>
				<a:midPointStop  offset="1" style="stop-color:#9A3311"/>
			</linearGradient>
			<path style="&st1;" d="M53.421,20.104L53.421,20.104c-5.762,0-10.773,3.607-12.617,8.666c-1.09,0.551-2.191,1.08-3.279,1.631
				c-0.381,0.039-0.758,0.087-1.131,0.145c-0.139,0.022-0.279,0.044-0.418,0.068c-0.586,0.104-1.164,0.225-1.732,0.374
				c-0.094,0.025-0.186,0.056-0.279,0.082c-0.484,0.135-0.961,0.287-1.433,0.455c-0.152,0.055-0.307,0.107-0.459,0.165
				c-0.508,0.193-1.006,0.404-1.492,0.635c-0.172,0.08-0.34,0.169-0.508,0.255c-0.346,0.174-0.686,0.357-1.02,0.55
				c-0.188,0.107-0.377,0.211-0.559,0.324c-0.41,0.252-0.809,0.519-1.197,0.796c-0.226,0.161-0.445,0.329-0.664,0.498
				c-0.211,0.162-0.417,0.33-0.621,0.501c-0.392,0.325-0.769,0.665-1.135,1.017c-0.147,0.142-0.297,0.281-0.44,0.428
				c-0.242,0.246-0.478,0.498-0.707,0.756c-0.1,0.111-0.195,0.227-0.292,0.34c-0.418,0.487-0.813,0.993-1.186,1.518
				c-0.073,0.103-0.148,0.205-0.22,0.31c-0.213,0.311-0.419,0.625-0.615,0.946c-0.003,0.006-0.007,0.011-0.011,0.017l-43.894,52.311
				h56.267c12.01-14.266,22.352-26.662,23.262-28.108c2.25-3.581,2.25-4.041,2.793-5.421c0.043-0.106,0.09-0.21,0.131-0.316
				c0.119-0.318,0.223-0.645,0.326-0.97c0.09-0.278,0.178-0.558,0.258-0.841c0.076-0.282,0.148-0.566,0.215-0.853
				c0.084-0.361,0.154-0.728,0.221-1.096c0.041-0.237,0.088-0.473,0.121-0.713c0.082-0.584,0.145-1.174,0.178-1.772
				c0.002-0.034,0.01-0.1,0.01-0.1v-0.001c-0.109,0.135,1.92-6.385,2.756-8.14c1.354-2.836,2.37-6.086,2.633-9.687
				c0.049-0.467,0.102-0.939,0.102-1.418c0-0.143,0.02-0.283,0.02-0.425v-0.001C66.447,25.853,60.701,20.104,53.421,20.104z"/>
			<g>
				<path style="&st2;" d="M57.511,56.77c-0.328,1.287-0.758,2.473-1.287,3.097h-6.09c0.174-0.564,0.322-1.18,0.455-1.816
					c-0.662-0.558-1.625-1.418-2.73-2.556c-0.209,1.652-0.535,3.253-0.98,4.372h-5.859v-6.664h4.773
					c-0.652-0.779-1.316-1.637-1.971-2.563h-2.803v-4.678c-1.572-3.155-2.777-6.816-3.084-10.91
					c-0.049-0.488-0.047-0.956-0.045-1.371v-0.227c0-0.269,0.047-0.494,0.086-0.65c0.014-0.844,0.104-1.67,0.254-2.474
					c-11.148,0.768-19.927,10.013-19.927,21.284c0,11.775,9.676,21.357,21.525,21.357c11.482,0,20.895-9,21.467-20.273
					C59.921,54.394,58.587,55.762,57.511,56.77z M33.517,34.636c-1.196,1.809-2.196,4.213-2.985,5.75h-5.018
					C27.588,38.336,30.348,35.799,33.517,34.636z M23.498,43.462h6.004c-0.598,2.563-0.959,4.614-1.072,7.178h-6.868
					C21.768,48.076,22.443,45.513,23.498,43.462z M23.497,59.866c-1.054-1.537-1.729-4.101-1.935-6.664h6.87
					c0.113,2.563,0.479,5.127,1.082,6.664H23.497z M25.512,63.455h5.042c0.793,2.051,1.797,3.951,2.999,5.771
					C30.368,68.063,27.594,66.019,25.512,63.455z M37.406,69.567c-1.531-1.899-2.467-3.739-3.475-6.112h3.475V69.567z
					 M37.406,59.866h-4.637c-0.673-1.537-1.083-4.101-1.21-6.664h5.847V59.866z M37.406,50.64h-5.847
					c0.125-2.563,0.531-4.614,1.194-7.178h4.652V50.64z M37.406,40.386h-3.498c1.086-2.05,1.951-4.827,3.498-6.877V40.386z
					 M41.433,70.12c-0.004,0-0.414,0-0.414,0v-6.665h4.699C44.632,66.019,43.193,67.557,41.433,70.12z M46.085,69.253
					c1.209-1.828,2.215-3.747,3.012-5.798h5.113C52.109,66.019,49.306,68.097,46.085,69.253z"/>
				<path style="&st2;" d="M66.805,33.029L66.805,33.029c-0.357-7.177-6.104-12.926-13.383-12.926s-13.383,5.749-13.383,12.925
					v0.001c0,0.142-0.084,0.282-0.084,0.425c0,0.479-0.012,0.951,0.037,1.418c1.002,13.631,12.756,22.273,12.76,22.277
					c0.15,0.148,0.348,0.239,0.574,0.239c0.23,0,0.432-0.091,0.58-0.239c0.01-0.008,11.777-8.649,12.778-22.277
					c0.049-0.467,0.102-0.939,0.102-1.418C66.785,33.312,66.805,33.171,66.805,33.029z M53.318,42.729
					c-5.158,0-9.338-4.152-9.338-9.275s4.18-9.276,9.338-9.276c5.156,0,9.336,4.153,9.336,9.276S58.474,42.729,53.318,42.729z"/>
			</g>
		</g>
	</g>
	<g>
		<path style="&st2;" d="M80.326,52.533c-1.859,0-3.557-0.305-5.094-0.913c-1.539-0.607-3.004-1.543-4.396-2.804l1.625-1.924
			c1.217,1.105,2.443,1.93,3.684,2.472c1.238,0.542,2.666,0.813,4.279,0.813c1.572,0,2.826-0.37,3.768-1.111
			c0.939-0.741,1.41-1.687,1.41-2.837v-0.066c0-0.531-0.09-1.012-0.266-1.443c-0.178-0.432-0.488-0.824-0.932-1.178
			c-0.445-0.354-1.059-0.675-1.846-0.963c-0.787-0.287-1.791-0.563-3.012-0.829c-1.33-0.287-2.488-0.619-3.475-0.995
			c-0.988-0.376-1.803-0.83-2.445-1.361c-0.643-0.53-1.121-1.149-1.43-1.857c-0.311-0.708-0.467-1.537-0.467-2.489v-0.066
			c0-0.906,0.188-1.747,0.564-2.521s0.906-1.443,1.594-2.008c0.686-0.563,1.492-1.006,2.422-1.327c0.93-0.32,1.945-0.48,3.053-0.48
			c1.703,0,3.189,0.237,4.463,0.713c1.271,0.476,2.506,1.189,3.699,2.141L86,33.52c-1.084-0.884-2.174-1.526-3.27-1.924
			c-1.094-0.398-2.24-0.598-3.434-0.598c-1.527,0-2.732,0.359-3.617,1.078c-0.885,0.72-1.328,1.609-1.328,2.672v0.065
			c0,0.554,0.09,1.046,0.266,1.478c0.178,0.431,0.498,0.829,0.963,1.194c0.465,0.364,1.105,0.696,1.924,0.995
			s1.869,0.581,3.152,0.847c2.59,0.575,4.496,1.371,5.725,2.389s1.842,2.411,1.842,4.181v0.066c0,0.995-0.197,1.897-0.59,2.704
			c-0.393,0.808-0.936,1.499-1.627,2.074c-0.689,0.575-1.521,1.018-2.496,1.327C82.537,52.378,81.475,52.533,80.326,52.533z"/>
		<path style="&st2;" d="M102.689,52.6c-1.77,0-3.379-0.321-4.828-0.963c-1.449-0.641-2.693-1.51-3.732-2.604
			c-1.041-1.095-1.842-2.366-2.406-3.815s-0.846-2.97-0.846-4.563v-0.066c0-1.593,0.287-3.119,0.863-4.579
			c0.574-1.46,1.381-2.737,2.422-3.833c1.039-1.095,2.289-1.969,3.75-2.621c1.459-0.652,3.074-0.979,4.844-0.979
			s3.379,0.32,4.828,0.962s2.693,1.51,3.732,2.604c1.039,1.096,1.842,2.367,2.406,3.816s0.846,2.97,0.846,4.563
			c0.021,0.022,0.021,0.044,0,0.066c0,1.593-0.287,3.119-0.863,4.579c-0.574,1.46-1.383,2.737-2.422,3.832s-2.289,1.97-3.75,2.621
			C106.074,52.272,104.459,52.6,102.689,52.6z M102.756,50.177c1.328,0,2.549-0.248,3.666-0.746s2.074-1.178,2.871-2.041
			c0.797-0.862,1.422-1.869,1.875-3.02c0.453-1.149,0.68-2.389,0.68-3.716v-0.066c0-1.327-0.227-2.572-0.68-3.733
			s-1.09-2.173-1.908-3.036c-0.818-0.862-1.787-1.548-2.904-2.057s-2.338-0.764-3.666-0.764c-1.326,0-2.549,0.249-3.666,0.747
			c-1.117,0.497-2.074,1.178-2.871,2.04c-0.795,0.863-1.422,1.87-1.875,3.02c-0.453,1.15-0.68,2.39-0.68,3.717v0.066
			c0,1.327,0.227,2.571,0.68,3.732s1.09,2.174,1.908,3.036c0.818,0.863,1.787,1.549,2.904,2.058S101.43,50.177,102.756,50.177z"/>
		<path style="&st2;" d="M126.447,52.533c-1.857,0-3.557-0.305-5.094-0.913c-1.537-0.607-3.002-1.543-4.396-2.804l1.627-1.924
			c1.215,1.105,2.443,1.93,3.682,2.472c1.24,0.542,2.666,0.813,4.281,0.813c1.57,0,2.826-0.37,3.766-1.111
			c0.941-0.741,1.41-1.687,1.41-2.837v-0.066c0-0.531-0.088-1.012-0.266-1.443s-0.488-0.824-0.932-1.178s-1.059-0.675-1.846-0.963
			c-0.787-0.287-1.791-0.563-3.01-0.829c-1.33-0.287-2.49-0.619-3.477-0.995s-1.801-0.83-2.445-1.361
			c-0.643-0.53-1.119-1.149-1.43-1.857s-0.465-1.537-0.465-2.489v-0.066c0-0.906,0.188-1.747,0.564-2.521
			c0.375-0.774,0.906-1.443,1.592-2.008c0.686-0.563,1.494-1.006,2.422-1.327c0.93-0.32,1.947-0.48,3.053-0.48
			c1.703,0,3.191,0.237,4.463,0.713c1.273,0.476,2.506,1.189,3.701,2.141l-1.527,2.023c-1.084-0.884-2.174-1.526-3.268-1.924
			c-1.096-0.398-2.24-0.598-3.436-0.598c-1.525,0-2.732,0.359-3.615,1.078c-0.887,0.72-1.328,1.609-1.328,2.672v0.065
			c0,0.554,0.088,1.046,0.266,1.478c0.176,0.431,0.498,0.829,0.963,1.194c0.463,0.364,1.105,0.696,1.924,0.995
			s1.869,0.581,3.152,0.847c2.588,0.575,4.496,1.371,5.725,2.389c1.227,1.018,1.84,2.411,1.84,4.181v0.066
			c0,0.995-0.195,1.897-0.59,2.704c-0.393,0.808-0.936,1.499-1.625,2.074c-0.691,0.575-1.523,1.018-2.496,1.327
			C128.658,52.378,127.598,52.533,126.447,52.533z"/>
	</g>
	<g>
		<g>
			<path style="&st2;" d="M72.359,67.432c-0.455,0-0.904-0.063-1.348-0.19c-0.443-0.126-0.834-0.319-1.176-0.578
				c-0.342-0.26-0.617-0.579-0.826-0.959s-0.313-0.822-0.313-1.329v-0.037c0-0.532,0.1-0.997,0.303-1.396s0.49-0.73,0.863-0.996
				c0.373-0.267,0.816-0.469,1.328-0.607c0.514-0.14,1.08-0.209,1.699-0.209c0.633,0,1.18,0.038,1.643,0.113
				c0.461,0.076,0.914,0.178,1.357,0.304v-0.302c0-0.867-0.254-1.524-0.76-1.971s-1.221-0.669-2.145-0.669
				c-0.582,0-1.111,0.063-1.586,0.189c-0.475,0.127-0.939,0.298-1.395,0.513l-0.436-1.203c0.543-0.257,1.094-0.462,1.65-0.616
				c0.557-0.153,1.195-0.23,1.918-0.23c1.391,0,2.447,0.36,3.17,1.082c0.682,0.683,1.023,1.645,1.023,2.885v5.998h-1.441v-1.462
				c-0.342,0.443-0.801,0.833-1.377,1.168S73.221,67.432,72.359,67.432z M72.654,66.235c0.455,0,0.877-0.063,1.268-0.188
				c0.393-0.126,0.736-0.306,1.031-0.538c0.297-0.233,0.531-0.511,0.701-0.832c0.17-0.32,0.256-0.677,0.256-1.066v-0.907
				c-0.367-0.101-0.783-0.195-1.25-0.283s-1.002-0.133-1.607-0.133c-0.908,0-1.611,0.18-2.109,0.539
				c-0.498,0.358-0.748,0.834-0.748,1.426v0.038c0,0.302,0.066,0.576,0.199,0.821c0.133,0.246,0.313,0.45,0.539,0.614
				s0.488,0.29,0.785,0.378S72.326,66.235,72.654,66.235z"/>
			<path style="&st2;" d="M79.479,57.409h1.461v1.651c0.164-0.24,0.344-0.475,0.541-0.702c0.195-0.228,0.42-0.427,0.674-0.598
				c0.252-0.171,0.537-0.307,0.854-0.408s0.684-0.152,1.102-0.152c0.797,0,1.455,0.188,1.975,0.561
				c0.518,0.373,0.91,0.838,1.176,1.395c0.178-0.266,0.377-0.519,0.598-0.759c0.223-0.24,0.473-0.449,0.75-0.627
				c0.279-0.177,0.592-0.315,0.939-0.417s0.738-0.152,1.168-0.152c1.139,0,2.031,0.352,2.676,1.054
				c0.646,0.702,0.969,1.667,0.969,2.895v6.074h-1.463v-5.72c0-0.947-0.225-1.676-0.674-2.188s-1.072-0.768-1.869-0.768
				c-0.367,0-0.715,0.066-1.043,0.199c-0.33,0.133-0.617,0.328-0.863,0.587c-0.248,0.259-0.443,0.578-0.59,0.957
				c-0.145,0.379-0.219,0.808-0.219,1.288v5.644h-1.441v-5.758c0-0.922-0.225-1.638-0.674-2.149s-1.066-0.768-1.852-0.768
				c-0.393,0-0.752,0.076-1.082,0.228c-0.328,0.151-0.615,0.366-0.863,0.645c-0.246,0.277-0.439,0.603-0.578,0.975
				c-0.141,0.373-0.209,0.786-0.209,1.241v5.587h-1.461V57.409z"/>
			<path style="&st2;" d="M97.453,62.914c0.049,0.519,0.176,0.98,0.379,1.386s0.461,0.746,0.777,1.024s0.672,0.491,1.064,0.636
				c0.391,0.146,0.803,0.219,1.232,0.219c0.684,0,1.27-0.126,1.756-0.38c0.488-0.253,0.934-0.588,1.338-1.006l0.912,0.816
				c-0.494,0.557-1.057,1.003-1.689,1.338s-1.418,0.503-2.354,0.503c-0.672,0-1.303-0.123-1.898-0.37
				c-0.596-0.246-1.113-0.595-1.557-1.044s-0.795-0.99-1.053-1.623c-0.26-0.632-0.389-1.328-0.389-2.088
				c0-0.708,0.115-1.376,0.35-2.002c0.234-0.627,0.561-1.171,0.979-1.633s0.914-0.825,1.49-1.092
				c0.574-0.266,1.205-0.398,1.889-0.398c0.721,0,1.365,0.137,1.936,0.408c0.57,0.272,1.051,0.643,1.443,1.11
				c0.391,0.469,0.689,1.019,0.891,1.651c0.203,0.633,0.305,1.31,0.305,2.031c0,0.063,0,0.136,0,0.219
				c0,0.082-0.006,0.18-0.02,0.294H97.453z M103.773,61.737c-0.039-0.443-0.133-0.864-0.285-1.263s-0.357-0.75-0.617-1.054
				s-0.576-0.544-0.949-0.721s-0.801-0.266-1.281-0.266c-0.418,0-0.809,0.082-1.176,0.245c-0.367,0.164-0.689,0.394-0.969,0.688
				c-0.277,0.296-0.51,0.646-0.693,1.048s-0.301,0.837-0.35,1.302L103.773,61.737z M101.57,53.177l1.52,0.702l-2.145,2.05h-1.178
				L101.57,53.177z"/>
			<path style="&st2;" d="M106.867,57.409h1.461v2.563c0.178-0.404,0.398-0.778,0.666-1.12c0.266-0.342,0.568-0.636,0.91-0.882
				c0.342-0.247,0.715-0.434,1.119-0.561c0.406-0.126,0.842-0.184,1.311-0.171v1.575h-0.113c-0.531,0-1.035,0.096-1.51,0.285
				s-0.889,0.475-1.244,0.854c-0.354,0.379-0.633,0.851-0.834,1.414c-0.203,0.563-0.305,1.212-0.305,1.945v3.91h-1.461V57.409z"/>
			<path style="&st2;" d="M113.643,53.651h1.672v1.613h-1.672V53.651z M113.738,57.409h1.461v9.813h-1.461V57.409z"/>
			<path style="&st2;" d="M122.07,67.45c-0.721,0-1.389-0.136-2.002-0.408c-0.613-0.271-1.145-0.639-1.594-1.101
				s-0.801-1.003-1.055-1.623c-0.252-0.62-0.379-1.271-0.379-1.955v-0.038c0-0.695,0.127-1.354,0.379-1.974
				c0.254-0.62,0.605-1.164,1.055-1.633c0.449-0.468,0.98-0.838,1.594-1.11c0.613-0.271,1.281-0.408,2.002-0.408
				c0.469,0,0.893,0.045,1.273,0.133c0.379,0.089,0.727,0.213,1.043,0.37c0.316,0.159,0.607,0.346,0.873,0.561
				s0.514,0.443,0.74,0.684l-0.967,1.024c-0.393-0.404-0.82-0.753-1.281-1.044c-0.463-0.291-1.029-0.437-1.699-0.437
				c-0.494,0-0.957,0.099-1.387,0.294c-0.43,0.196-0.803,0.465-1.119,0.807s-0.563,0.744-0.74,1.206s-0.266,0.958-0.266,1.489v0.038
				c0,0.532,0.092,1.028,0.275,1.49s0.436,0.867,0.758,1.215c0.324,0.349,0.703,0.62,1.141,0.816
				c0.436,0.196,0.914,0.294,1.432,0.294c0.633,0,1.193-0.139,1.68-0.418c0.488-0.277,0.928-0.626,1.32-1.044l0.93,0.874
				c-0.494,0.557-1.053,1.012-1.68,1.366S122.994,67.45,122.07,67.45z"/>
			<path style="&st2;" d="M130.461,67.432c-0.455,0-0.904-0.063-1.348-0.19c-0.443-0.126-0.834-0.319-1.176-0.578
				c-0.342-0.26-0.617-0.579-0.826-0.959s-0.313-0.822-0.313-1.329v-0.037c0-0.532,0.1-0.997,0.303-1.396s0.49-0.73,0.863-0.996
				c0.373-0.267,0.816-0.469,1.328-0.607c0.514-0.14,1.08-0.209,1.699-0.209c0.633,0,1.18,0.038,1.643,0.113
				c0.461,0.076,0.914,0.178,1.357,0.304v-0.302c0-0.867-0.254-1.524-0.76-1.971s-1.221-0.669-2.145-0.669
				c-0.582,0-1.111,0.063-1.586,0.189c-0.475,0.127-0.939,0.298-1.395,0.513l-0.436-1.203c0.543-0.257,1.094-0.462,1.65-0.616
				c0.557-0.153,1.195-0.23,1.918-0.23c1.391,0,2.447,0.36,3.17,1.082c0.682,0.683,1.023,1.645,1.023,2.885v5.998h-1.441v-1.462
				c-0.342,0.443-0.801,0.833-1.377,1.168S131.322,67.432,130.461,67.432z M130.756,66.235c0.455,0,0.877-0.063,1.268-0.188
				c0.393-0.126,0.736-0.306,1.031-0.538c0.297-0.233,0.531-0.511,0.701-0.832c0.17-0.32,0.256-0.677,0.256-1.066v-0.907
				c-0.367-0.101-0.783-0.195-1.25-0.283s-1.002-0.133-1.607-0.133c-0.908,0-1.611,0.18-2.109,0.539
				c-0.498,0.358-0.748,0.834-0.748,1.426v0.038c0,0.302,0.066,0.576,0.199,0.821c0.133,0.246,0.313,0.45,0.539,0.614
				s0.488,0.29,0.785,0.378S130.428,66.235,130.756,66.235z"/>
		</g>
	</g>
</g>
</svg>
