<?xml version="1.0" encoding="iso-8859-1"?>
<!-- Generator: Adobe Illustrator 16.0.0, SVG Export Plug-In . SVG Version: 6.00 Build 0)  -->
<!DOCTYPE svg PUBLIC "-//W3C//DTD SVG 1.1//EN" "http://www.w3.org/Graphics/SVG/1.1/DTD/svg11.dtd" [
	<!ENTITY ns_flows "http://ns.adobe.com/Flows/1.0/">
	<!ENTITY ns_extend "http://ns.adobe.com/Extensibility/1.0/">
	<!ENTITY ns_ai "http://ns.adobe.com/AdobeIllustrator/10.0/">
	<!ENTITY ns_graphs "http://ns.adobe.com/Graphs/1.0/">
	<!ENTITY st0 "fill:url(#SVGID_1_);">
	<!ENTITY st1 "fill:#2EA2BA;">
	<!ENTITY st2 "fill:#FFFFFF;">
]>
<svg version="1.1" id="Capa_1" xmlns:x="&ns_extend;" xmlns:i="&ns_ai;" xmlns:graph="&ns_graphs;"
	 xmlns="http://www.w3.org/2000/svg" xmlns:xlink="http://www.w3.org/1999/xlink" xmlns:a="http://ns.adobe.com/AdobeSVGViewerExtensions/3.0/"
	 x="0px" y="0px" width="153.588px" height="92.512px" viewBox="0 0 153.588 92.512"
	 style="enable-background:new 0 0 153.588 92.512;" xml:space="preserve">
<g>
	<rect style="&st1;" width="153.956" height="92.512"/>
	<g>
		<g>
			<linearGradient id="SVGID_1_" gradientUnits="userSpaceOnUse" x1="30.2012" y1="85.873" x2="88.3177" y2="37.1075">
				<stop  offset="0" style="stop-color:#257A8E;stop-opacity:0"/>
				<stop  offset="1" style="stop-color:#257A8E"/>
				<a:midPointStop  offset="0" style="stop-color:#257A8E;stop-opacity:0"/>
				<a:midPointStop  offset="0.7" style="stop-color:#257A8E;stop-opacity:0"/>
				<a:midPointStop  offset="1" style="stop-color:#257A8E"/>
			</linearGradient>
			<polygon style="&st0;" points="25.988,80.854 66.886,80.914 92.536,51.375 75.603,21.955 			"/>
			<path style="&st2;" d="M93.146,48.356L78.984,21.647c-0.359-0.663-1.047-1.083-1.803-1.083c-0.759,0-1.447,0.42-1.796,1.083
				L61.146,48.356c-0.343,0.631-0.322,1.402,0.047,2.016c0.369,0.62,1.037,1.003,1.755,1.003h28.402
				c0.718,0,1.375-0.383,1.744-1.003C93.465,49.759,93.484,48.987,93.146,48.356L93.146,48.356z M77.182,47.263
				c-1.128,0-2.047-0.912-2.047-2.047c0-1.132,0.919-2.057,2.047-2.057c1.125,0,2.043,0.925,2.043,2.057
				C79.225,46.351,78.307,47.263,77.182,47.263L77.182,47.263z M79.225,39.077c0,1.144-0.918,2.057-2.043,2.057
				c-1.128,0-2.047-0.913-2.047-2.057v-8.212c0-1.135,0.919-2.057,2.047-2.057c1.125,0,2.043,0.921,2.043,2.057V39.077z
				 M79.225,39.077L79.225,39.077z"/>
		</g>
		<g>
			<path style="&st2;" d="M37.877,72.528c-1.173,0-2.244-0.192-3.215-0.576c-0.971-0.385-1.895-0.975-2.774-1.77l1.026-1.215
				c0.768,0.698,1.542,1.219,2.324,1.561c0.781,0.342,1.682,0.513,2.701,0.513c0.991,0,1.783-0.233,2.377-0.702
				c0.593-0.467,0.89-1.064,0.89-1.789v-0.043c0-0.334-0.056-0.639-0.168-0.91c-0.111-0.272-0.308-0.521-0.588-0.744
				c-0.28-0.223-0.668-0.426-1.165-0.607c-0.496-0.181-1.13-0.355-1.899-0.523c-0.84-0.181-1.571-0.391-2.193-0.628
				c-0.623-0.237-1.138-0.523-1.543-0.858c-0.406-0.335-0.707-0.726-0.902-1.173c-0.196-0.446-0.294-0.97-0.294-1.57V61.45
				c0-0.572,0.118-1.103,0.355-1.592c0.237-0.488,0.572-0.91,1.006-1.267c0.433-0.356,0.942-0.635,1.528-0.837
				c0.586-0.203,1.229-0.305,1.927-0.305c1.074,0,2.014,0.15,2.816,0.451c0.803,0.3,1.581,0.75,2.335,1.35l-0.964,1.277
				c-0.684-0.558-1.371-0.963-2.063-1.214c-0.69-0.251-1.413-0.377-2.167-0.377c-0.964,0-1.725,0.228-2.282,0.681
				c-0.559,0.453-0.838,1.016-0.838,1.686v0.042c0,0.349,0.056,0.659,0.167,0.932c0.112,0.272,0.314,0.523,0.607,0.754
				s0.698,0.44,1.215,0.628c0.517,0.189,1.18,0.367,1.989,0.534c1.634,0.363,2.838,0.866,3.612,1.508s1.162,1.522,1.162,2.639v0.042
				c0,0.628-0.124,1.197-0.372,1.707s-0.591,0.945-1.026,1.309s-0.961,0.642-1.575,0.837C39.272,72.431,38.603,72.528,37.877,72.528
				z"/>
			<path style="&st2;" d="M51.99,72.569c-1.117,0-2.133-0.202-3.047-0.607c-0.915-0.404-1.7-0.952-2.355-1.644
				c-0.657-0.69-1.163-1.493-1.519-2.407c-0.356-0.915-0.534-1.875-0.534-2.88v-0.042c0-1.006,0.182-1.969,0.545-2.89
				c0.362-0.921,0.872-1.728,1.528-2.419s1.445-1.242,2.366-1.654c0.922-0.412,1.94-0.617,3.058-0.617
				c1.116,0,2.132,0.202,3.047,0.607c0.914,0.404,1.699,0.952,2.355,1.643c0.656,0.691,1.162,1.494,1.519,2.408
				c0.355,0.915,0.533,1.875,0.533,2.88c0.014,0.015,0.014,0.028,0,0.042c0,1.005-0.182,1.969-0.544,2.89
				c-0.363,0.921-0.873,1.728-1.528,2.419c-0.657,0.691-1.445,1.242-2.367,1.654C54.126,72.363,53.106,72.569,51.99,72.569z
				 M52.032,71.041c0.837,0,1.608-0.157,2.313-0.472c0.705-0.313,1.309-0.742,1.812-1.287s0.896-1.18,1.183-1.906
				c0.286-0.725,0.43-1.508,0.43-2.345v-0.042c0-0.838-0.144-1.623-0.43-2.355c-0.286-0.733-0.688-1.372-1.203-1.916
				c-0.518-0.545-1.128-0.978-1.833-1.299c-0.705-0.32-1.476-0.481-2.313-0.481s-1.609,0.157-2.314,0.472
				c-0.705,0.313-1.309,0.742-1.811,1.287c-0.503,0.545-0.897,1.18-1.184,1.906c-0.286,0.726-0.43,1.508-0.43,2.345v0.042
				c0,0.838,0.144,1.623,0.43,2.355c0.286,0.733,0.688,1.372,1.204,1.916c0.517,0.545,1.127,0.978,1.832,1.299
				S51.194,71.041,52.032,71.041z"/>
			<path style="&st2;" d="M66.983,72.528c-1.173,0-2.244-0.192-3.215-0.576c-0.971-0.385-1.895-0.975-2.774-1.77l1.026-1.215
				c0.768,0.698,1.542,1.219,2.324,1.561c0.781,0.342,1.682,0.513,2.701,0.513c0.991,0,1.783-0.233,2.377-0.702
				c0.593-0.467,0.89-1.064,0.89-1.789v-0.043c0-0.334-0.056-0.639-0.168-0.91c-0.111-0.272-0.308-0.521-0.588-0.744
				c-0.28-0.223-0.668-0.426-1.165-0.607c-0.496-0.181-1.13-0.355-1.899-0.523c-0.84-0.181-1.571-0.391-2.193-0.628
				c-0.623-0.237-1.138-0.523-1.543-0.858c-0.406-0.335-0.707-0.726-0.902-1.173c-0.196-0.446-0.294-0.97-0.294-1.57V61.45
				c0-0.572,0.118-1.103,0.355-1.592c0.237-0.488,0.572-0.91,1.006-1.267c0.433-0.356,0.942-0.635,1.528-0.837
				c0.586-0.203,1.229-0.305,1.927-0.305c1.074,0,2.014,0.15,2.816,0.451c0.803,0.3,1.581,0.75,2.335,1.35l-0.964,1.277
				c-0.684-0.558-1.371-0.963-2.063-1.214c-0.69-0.251-1.413-0.377-2.167-0.377c-0.964,0-1.725,0.228-2.282,0.681
				c-0.559,0.453-0.838,1.016-0.838,1.686v0.042c0,0.349,0.056,0.659,0.167,0.932c0.112,0.272,0.314,0.523,0.607,0.754
				s0.698,0.44,1.215,0.628c0.517,0.189,1.18,0.367,1.989,0.534c1.634,0.363,2.838,0.866,3.612,1.508s1.162,1.522,1.162,2.639v0.042
				c0,0.628-0.124,1.197-0.372,1.707s-0.591,0.945-1.026,1.309s-0.961,0.642-1.575,0.837C68.379,72.431,67.709,72.528,66.983,72.528
				z"/>
		</g>
		<g>
			<g>
				<path style="&st2;" d="M79.918,74.078c-0.176,0-0.329-0.007-0.461-0.019c-0.132-0.013-0.279-0.037-0.442-0.075v-1.187
					c0.113,0.025,0.235,0.041,0.367,0.047c0.132,0.007,0.247,0.01,0.348,0.01c0.326,0,0.593-0.104,0.8-0.311
					s0.311-0.536,0.311-0.988V61.279h1.45v10.296c0,0.865-0.211,1.499-0.631,1.9C81.238,73.878,80.658,74.078,79.918,74.078z
					 M80.746,57.552h1.656v1.601h-1.656V57.552z"/>
				<path style="&st2;" d="M89.159,71.236c-0.728,0-1.399-0.136-2.014-0.405c-0.615-0.27-1.148-0.633-1.6-1.092
					c-0.452-0.457-0.804-0.99-1.055-1.6c-0.251-0.608-0.376-1.258-0.376-1.947v-0.038c0-0.69,0.125-1.343,0.376-1.958
					c0.251-0.614,0.603-1.154,1.055-1.619c0.451-0.463,0.988-0.83,1.609-1.101c0.621-0.27,1.301-0.404,2.042-0.404
					c0.728,0,1.402,0.135,2.023,0.404c0.621,0.271,1.157,0.634,1.609,1.092c0.451,0.458,0.803,0.991,1.054,1.601
					c0.251,0.608,0.377,1.258,0.377,1.947v0.038c0,0.69-0.129,1.343-0.387,1.958c-0.257,0.614-0.611,1.154-1.063,1.618
					c-0.451,0.464-0.991,0.831-1.618,1.101C90.564,71.101,89.887,71.236,89.159,71.236z M89.197,69.938
					c0.526,0,1.01-0.101,1.449-0.302c0.439-0.2,0.815-0.471,1.129-0.809c0.313-0.339,0.559-0.734,0.734-1.186
					c0.176-0.452,0.264-0.936,0.264-1.449v-0.038c0-0.527-0.091-1.02-0.273-1.478c-0.182-0.458-0.436-0.859-0.762-1.205
					c-0.326-0.345-0.709-0.617-1.148-0.818s-0.916-0.301-1.431-0.301c-0.526,0-1.01,0.1-1.449,0.301s-0.813,0.471-1.12,0.809
					c-0.308,0.34-0.549,0.738-0.725,1.195c-0.176,0.459-0.264,0.945-0.264,1.459v0.038c0,0.526,0.092,1.02,0.273,1.478
					s0.433,0.856,0.753,1.195c0.32,0.338,0.699,0.608,1.139,0.809C88.206,69.837,88.683,69.938,89.197,69.938z"/>
				<path style="&st2;" d="M94.976,61.279h1.6l3.275,8.075l3.294-8.075h1.562l-4.234,9.806h-1.28L94.976,61.279z"/>
				<path style="&st2;" d="M106.908,66.737c0.05,0.516,0.176,0.973,0.377,1.375c0.2,0.4,0.458,0.74,0.771,1.016
					c0.313,0.276,0.665,0.486,1.054,0.631s0.797,0.217,1.224,0.217c0.678,0,1.258-0.126,1.741-0.377
					c0.482-0.251,0.925-0.584,1.327-0.998l0.903,0.81c-0.489,0.553-1.048,0.995-1.676,1.327c-0.627,0.332-1.405,0.499-2.333,0.499
					c-0.666,0-1.293-0.122-1.883-0.367s-1.104-0.59-1.543-1.035c-0.439-0.445-0.788-0.981-1.045-1.609
					c-0.258-0.628-0.386-1.317-0.386-2.07c0-0.702,0.115-1.364,0.348-1.985s0.556-1.161,0.97-1.619s0.906-0.818,1.478-1.082
					s1.195-0.396,1.873-0.396c0.715,0,1.354,0.135,1.92,0.404c0.564,0.271,1.041,0.638,1.431,1.101
					c0.389,0.465,0.684,1.011,0.884,1.639c0.201,0.627,0.302,1.299,0.302,2.014c0,0.063,0,0.135,0,0.217s-0.007,0.178-0.019,0.291
					H106.908z M113.176,65.552c-0.037-0.437-0.131-0.852-0.282-1.244c-0.15-0.393-0.354-0.74-0.611-1.039
					c-0.258-0.299-0.571-0.536-0.941-0.711s-0.794-0.262-1.271-0.262c-0.414,0-0.803,0.08-1.167,0.242
					c-0.364,0.163-0.684,0.391-0.96,0.684s-0.505,0.64-0.687,1.039c-0.183,0.399-0.299,0.83-0.349,1.291H113.176z"/>
				<path style="&st2;" d="M116.245,61.279h1.449v1.694c0.326-0.527,0.753-0.977,1.279-1.346c0.527-0.371,1.211-0.556,2.052-0.556
					c0.59,0,1.113,0.094,1.572,0.282c0.457,0.188,0.847,0.455,1.167,0.8c0.319,0.345,0.564,0.757,0.733,1.233
					c0.17,0.477,0.254,1.004,0.254,1.58v6.043h-1.449v-5.672c0-0.902-0.232-1.615-0.696-2.142s-1.129-0.788-1.995-0.788
					c-0.414,0-0.8,0.071-1.157,0.215c-0.357,0.145-0.668,0.352-0.932,0.62c-0.264,0.27-0.468,0.592-0.612,0.968
					c-0.145,0.375-0.216,0.789-0.216,1.238v5.561h-1.449V61.279z"/>
			</g>
		</g>
	</g>
</g>
</svg>
