<?xml version="1.0" encoding="iso-8859-1"?>
<!-- Generator: Adobe Illustrator 16.0.0, SVG Export Plug-In . SVG Version: 6.00 Build 0)  -->
<!DOCTYPE svg PUBLIC "-//W3C//DTD SVG 1.1//EN" "http://www.w3.org/Graphics/SVG/1.1/DTD/svg11.dtd" [
	<!ENTITY ns_flows "http://ns.adobe.com/Flows/1.0/">
	<!ENTITY ns_extend "http://ns.adobe.com/Extensibility/1.0/">
	<!ENTITY ns_ai "http://ns.adobe.com/AdobeIllustrator/10.0/">
	<!ENTITY ns_graphs "http://ns.adobe.com/Graphs/1.0/">
	<!ENTITY st0 "display:inline;fill:#8694D2;">
	<!ENTITY st1 "display:inline;fill-rule:evenodd;clip-rule:evenodd;fill:url(#SVGID_2_);">
	<!ENTITY st2 "display:inline;fill-rule:evenodd;clip-rule:evenodd;fill:url(#SVGID_4_);">
	<!ENTITY st3 "display:inline;fill:#2A2D96;">
	<!ENTITY st4 "display:inline;fill:#FFFFFF;">
	<!ENTITY st5 "fill:#FFFFFF;">
	<!ENTITY st6 "display:inline;">
	<!ENTITY st7 "fill:#0089D1;">
	<!ENTITY st8 "display:inline;fill:#79C1CF;">
	<!ENTITY st9 "display:none;">
	<!ENTITY st10 "fill-rule:evenodd;clip-rule:evenodd;fill:url(#SVGID_1_);">
	<!ENTITY st11 "fill-rule:evenodd;clip-rule:evenodd;fill:url(#SVGID_3_);">
]>
<svg version="1.1" id="Capa_1" xmlns:x="&ns_extend;" xmlns:i="&ns_ai;" xmlns:graph="&ns_graphs;"
	 xmlns="http://www.w3.org/2000/svg" xmlns:xlink="http://www.w3.org/1999/xlink" xmlns:a="http://ns.adobe.com/AdobeSVGViewerExtensions/3.0/"
	 x="0px" y="0px" width="76.801px" height="69.356px" viewBox="0 0 76.801 69.356"
	 style="enable-background:new 0 0 76.801 69.356;" xml:space="preserve">
<g style="&st9;">
	<rect style="&st8;" width="76.801" height="69.356"/>
	<g style="&st6;">
		<linearGradient id="SVGID_1_" gradientUnits="userSpaceOnUse" x1="10.1411" y1="57.0005" x2="51.9731" y2="21.8993">
			<stop  offset="0" style="stop-color:#3F6671;stop-opacity:0"/>
			<stop  offset="1" style="stop-color:#3F6671"/>
			<a:midPointStop  offset="0" style="stop-color:#3F6671;stop-opacity:0"/>
			<a:midPointStop  offset="0.7" style="stop-color:#3F6671;stop-opacity:0"/>
			<a:midPointStop  offset="1" style="stop-color:#3F6671"/>
		</linearGradient>
		<path style="&st10;" d="M32.947,14.621L7.489,41.762c0,0-0.086,5.71,0.215,12.334c9.425,0.002,25.17,0.459,33.6,0.479
			c6.522-6.159,7.304-6.642,13.389-12.813c-1.847-9.254-1.322-17.195-1.061-17.563c0.213-0.297-2.25-0.45-2.651-0.531
			c-2.015-0.411-3.253-0.393-4.243-1.598c0.344-2.712,0.092-3.348,0-5.854c0,0-2.079-5.332-7.615-4.717
			C33.585,12.115,32.947,14.621,32.947,14.621z"/>
		<path style="&st5;" d="M53.949,32.99l0.737-8.608c0,0-5.222-1.422-6.263-1.771c-0.728,1.743-2.652,4.827-2.652,4.827l-0.257,4.499
			l-4.271,1.109l-1.083,0.922l5.472-1.195l1.017,7.335l0.833-0.117l-1.021-7.376l6.629,0.547l1.332,8.113l-6.858-1.293l-8.774,2.043
			l-0.074-0.013l0.488-7.584l-0.006-0.046l-0.029-0.793l-1.091-0.94l0.107,0.698l-6.535-0.684l0.023-0.311l-1.275-7.576l2.097,0.772
			c0,0-0.637-1.018-0.747-1.179l-2.422-0.896l1.501,8.915l-0.72,9.217l8.718,1.274l8.759-2.04l7.861,1.481L53.949,32.99z
			 M52.795,32.311l-6.452-0.532l0.156-3.566l2.66-4.599l4.631,1.356L52.795,32.311z M37.878,41.893l-6.873-1.005l0.578-7.384
			l6.729,0.678L37.878,41.893z M39.671,32.311c1.582,0,7.925-9.224,7.925-13.602c0-4.376-3.548-7.925-7.925-7.925
			c-4.376,0-7.925,3.549-7.925,7.925C31.746,23.087,38.129,32.311,39.671,32.311z M34.3,18.709c0-2.966,2.405-5.37,5.371-5.37
			c2.967,0,5.372,2.404,5.372,5.37c0,2.967-2.405,5.371-5.372,5.371C36.705,24.08,34.3,21.676,34.3,18.709z"/>
	</g>
	<g style="&st6;">
		<g>
			<path style="&st5;" d="M15.204,55.15c-0.388,0-0.732-0.062-1.033-0.186c-0.301-0.123-0.557-0.299-0.768-0.525
				c-0.21-0.227-0.371-0.497-0.482-0.811s-0.167-0.66-0.167-1.039v-3.972h0.953v3.729c0,0.593,0.152,1.062,0.458,1.407
				c0.305,0.346,0.742,0.519,1.312,0.519c0.271,0,0.525-0.048,0.761-0.143s0.438-0.23,0.606-0.407s0.303-0.389,0.402-0.636
				c0.099-0.247,0.148-0.519,0.148-0.814v-3.654h0.94v6.396h-0.94v-1.113c-0.215,0.346-0.495,0.642-0.842,0.885
				S15.757,55.15,15.204,55.15z"/>
			<path style="&st5;" d="M23.259,55.15c-0.297,0-0.569-0.037-0.816-0.111c-0.248-0.074-0.471-0.173-0.668-0.297
				c-0.198-0.123-0.378-0.268-0.539-0.433c-0.16-0.165-0.303-0.338-0.427-0.52v1.225h-0.952v-9.032h0.952v3.922
				c0.132-0.189,0.278-0.371,0.439-0.544c0.161-0.174,0.34-0.324,0.538-0.452s0.419-0.23,0.662-0.309
				c0.243-0.079,0.514-0.118,0.811-0.118c0.379,0,0.753,0.074,1.12,0.223c0.366,0.148,0.694,0.365,0.983,0.649
				c0.288,0.285,0.52,0.632,0.692,1.04c0.174,0.408,0.26,0.876,0.26,1.404v0.024c0,0.52-0.086,0.986-0.26,1.398
				c-0.173,0.412-0.401,0.761-0.687,1.045c-0.284,0.285-0.61,0.504-0.978,0.656S23.646,55.15,23.259,55.15z M23.086,54.297
				c0.305,0,0.596-0.056,0.872-0.167s0.516-0.272,0.718-0.482s0.362-0.468,0.482-0.773c0.119-0.305,0.18-0.651,0.18-1.039V51.81
				c0-0.379-0.061-0.722-0.18-1.026c-0.12-0.306-0.283-0.565-0.489-0.779c-0.206-0.215-0.445-0.38-0.718-0.495
				c-0.271-0.115-0.561-0.174-0.865-0.174c-0.298,0-0.584,0.061-0.86,0.18c-0.276,0.12-0.524,0.289-0.742,0.508
				c-0.219,0.218-0.393,0.479-0.52,0.779c-0.128,0.301-0.192,0.633-0.192,0.996v0.024c0,0.371,0.064,0.71,0.192,1.015
				c0.127,0.306,0.301,0.565,0.52,0.779c0.218,0.215,0.466,0.382,0.742,0.501C22.502,54.237,22.788,54.297,23.086,54.297z"/>
			<path style="&st5;" d="M27.479,46.168h1.089v1.052h-1.089V46.168z M27.54,48.618h0.953v6.396H27.54V48.618z"/>
			<path style="&st5;" d="M32.972,55.163c-0.471,0-0.905-0.089-1.306-0.266c-0.4-0.178-0.746-0.417-1.039-0.718
				s-0.522-0.654-0.687-1.059c-0.165-0.403-0.248-0.828-0.248-1.274v-0.024c0-0.453,0.083-0.883,0.248-1.287
				c0.164-0.403,0.394-0.759,0.687-1.063c0.293-0.306,0.639-0.547,1.039-0.724c0.4-0.178,0.835-0.267,1.306-0.267
				c0.305,0,0.581,0.029,0.829,0.087c0.247,0.058,0.474,0.138,0.681,0.241c0.206,0.104,0.396,0.225,0.568,0.365
				c0.174,0.14,0.334,0.288,0.483,0.445l-0.632,0.668c-0.256-0.264-0.534-0.49-0.835-0.681c-0.301-0.189-0.67-0.284-1.107-0.284
				c-0.321,0-0.623,0.063-0.903,0.191s-0.523,0.304-0.729,0.526c-0.207,0.223-0.367,0.484-0.482,0.785
				c-0.116,0.302-0.174,0.625-0.174,0.972v0.024c0,0.347,0.06,0.67,0.18,0.972c0.119,0.301,0.284,0.564,0.495,0.792
				c0.21,0.227,0.457,0.404,0.742,0.531c0.284,0.128,0.596,0.192,0.934,0.192c0.413,0,0.778-0.091,1.096-0.272
				s0.604-0.408,0.859-0.681l0.606,0.569c-0.321,0.363-0.687,0.66-1.095,0.891C34.079,55.048,33.573,55.163,32.972,55.163z"/>
			<path style="&st5;" d="M38.44,55.15c-0.297,0-0.59-0.041-0.879-0.123c-0.289-0.083-0.544-0.209-0.767-0.378
				s-0.402-0.377-0.538-0.625c-0.137-0.247-0.205-0.536-0.205-0.866v-0.024c0-0.347,0.066-0.649,0.198-0.909
				s0.319-0.477,0.563-0.649c0.243-0.174,0.532-0.306,0.866-0.396s0.703-0.136,1.107-0.136c0.412,0,0.769,0.024,1.07,0.074
				c0.301,0.05,0.596,0.115,0.885,0.198v-0.197c0-0.565-0.166-0.993-0.495-1.284c-0.33-0.291-0.797-0.437-1.398-0.437
				c-0.38,0-0.724,0.041-1.033,0.123c-0.31,0.083-0.612,0.194-0.909,0.335l-0.285-0.784c0.354-0.168,0.714-0.302,1.077-0.402
				c0.362-0.1,0.779-0.15,1.249-0.15c0.907,0,1.597,0.235,2.066,0.705c0.445,0.445,0.668,1.072,0.668,1.881v3.91h-0.939v-0.953
				c-0.224,0.289-0.522,0.543-0.897,0.762C39.469,55.041,39.001,55.15,38.44,55.15z M38.633,54.371c0.296,0,0.571-0.041,0.826-0.123
				s0.479-0.199,0.673-0.351c0.192-0.152,0.345-0.333,0.456-0.542c0.11-0.209,0.166-0.441,0.166-0.695v-0.592
				c-0.238-0.065-0.51-0.127-0.813-0.185c-0.305-0.058-0.654-0.086-1.049-0.086c-0.592,0-1.05,0.117-1.375,0.351
				c-0.324,0.234-0.487,0.544-0.487,0.93v0.024c0,0.197,0.044,0.376,0.13,0.536s0.203,0.293,0.352,0.4
				c0.147,0.106,0.318,0.188,0.512,0.246S38.419,54.371,38.633,54.371z"/>
			<path style="&st5;" d="M45.964,55.163c-0.471,0-0.905-0.089-1.306-0.266c-0.4-0.178-0.746-0.417-1.039-0.718
				s-0.522-0.654-0.687-1.059c-0.165-0.403-0.248-0.828-0.248-1.274v-0.024c0-0.453,0.083-0.883,0.248-1.287
				c0.164-0.403,0.394-0.759,0.687-1.063c0.293-0.306,0.639-0.547,1.039-0.724c0.4-0.178,0.835-0.267,1.306-0.267
				c0.305,0,0.581,0.029,0.829,0.087c0.247,0.058,0.474,0.138,0.681,0.241c0.206,0.104,0.396,0.225,0.568,0.365
				c0.174,0.14,0.334,0.288,0.483,0.445l-0.632,0.668c-0.256-0.264-0.534-0.49-0.835-0.681c-0.301-0.189-0.67-0.284-1.107-0.284
				c-0.321,0-0.623,0.063-0.903,0.191s-0.523,0.304-0.729,0.526c-0.207,0.223-0.367,0.484-0.482,0.785
				c-0.116,0.302-0.174,0.625-0.174,0.972v0.024c0,0.347,0.06,0.67,0.18,0.972c0.119,0.301,0.284,0.564,0.495,0.792
				c0.21,0.227,0.457,0.404,0.742,0.531c0.284,0.128,0.596,0.192,0.934,0.192c0.413,0,0.778-0.091,1.096-0.272
				s0.604-0.408,0.859-0.681l0.606,0.569c-0.321,0.363-0.687,0.66-1.095,0.891C47.071,55.048,46.565,55.163,45.964,55.163z"/>
			<path style="&st5;" d="M49.552,46.168h1.089v1.052h-1.089V46.168z M49.613,48.618h0.953v6.396h-0.953V48.618z"/>
			<path style="&st5;" d="M55.082,55.163c-0.479,0-0.92-0.089-1.324-0.266c-0.404-0.178-0.755-0.417-1.052-0.718
				s-0.528-0.651-0.692-1.052c-0.165-0.4-0.248-0.827-0.248-1.281v-0.024c0-0.453,0.083-0.883,0.248-1.287
				c0.164-0.403,0.396-0.759,0.692-1.063c0.297-0.306,0.649-0.547,1.058-0.724c0.409-0.178,0.856-0.267,1.343-0.267
				c0.479,0,0.922,0.089,1.33,0.267c0.408,0.177,0.761,0.416,1.058,0.717c0.298,0.302,0.528,0.652,0.693,1.052
				c0.165,0.4,0.247,0.827,0.247,1.281v0.024c0,0.454-0.084,0.883-0.253,1.287c-0.17,0.404-0.402,0.759-0.699,1.063
				c-0.297,0.306-0.652,0.547-1.064,0.725C56.006,55.074,55.561,55.163,55.082,55.163z M55.106,54.31
				c0.347,0,0.664-0.066,0.953-0.198c0.288-0.132,0.536-0.31,0.742-0.532s0.367-0.482,0.482-0.779s0.173-0.614,0.173-0.953v-0.024
				c0-0.347-0.06-0.67-0.179-0.972c-0.12-0.301-0.287-0.564-0.501-0.791c-0.215-0.228-0.467-0.406-0.755-0.539
				c-0.289-0.132-0.603-0.197-0.94-0.197c-0.347,0-0.664,0.065-0.953,0.197c-0.289,0.133-0.534,0.31-0.736,0.532
				s-0.36,0.485-0.476,0.786c-0.116,0.301-0.174,0.62-0.174,0.959v0.024c0,0.347,0.06,0.67,0.18,0.972
				c0.119,0.301,0.284,0.563,0.495,0.785c0.21,0.223,0.459,0.4,0.748,0.532S54.769,54.31,55.106,54.31z M55.898,45.858l0.99,0.458
				l-1.398,1.336h-0.768L55.898,45.858z"/>
			<path style="&st5;" d="M59.537,48.618h0.952v1.113c0.215-0.347,0.495-0.642,0.842-0.885s0.796-0.365,1.349-0.365
				c0.388,0,0.731,0.062,1.033,0.186c0.301,0.124,0.557,0.299,0.767,0.526c0.211,0.227,0.371,0.497,0.483,0.811
				c0.111,0.313,0.167,0.659,0.167,1.039v3.972h-0.953v-3.729c0-0.593-0.152-1.062-0.458-1.407
				c-0.305-0.346-0.742-0.519-1.312-0.519c-0.272,0-0.525,0.047-0.761,0.142s-0.439,0.23-0.612,0.407
				c-0.174,0.178-0.308,0.39-0.402,0.636c-0.095,0.247-0.143,0.519-0.143,0.815v3.654h-0.952V48.618z"/>
		</g>
	</g>
</g>
<g style="&st9;">
	<rect style="&st0;" width="76.801" height="69.356"/>
	<linearGradient id="SVGID_2_" gradientUnits="userSpaceOnUse" x1="4.9126" y1="57.2324" x2="55.6514" y2="14.6575">
		<stop  offset="0" style="stop-color:#5C6BAE;stop-opacity:0"/>
		<stop  offset="1" style="stop-color:#5C6BAE"/>
		<a:midPointStop  offset="0" style="stop-color:#5C6BAE;stop-opacity:0"/>
		<a:midPointStop  offset="0.7" style="stop-color:#5C6BAE;stop-opacity:0"/>
		<a:midPointStop  offset="1" style="stop-color:#5C6BAE"/>
	</linearGradient>
	<path style="&st1;" d="M25.4,18.479C22.326,22.081,1.88,45.802,1.88,45.802s0.065,2.252,0.337,8.218
		c8.529,0.003,24.674-0.087,32.303-0.068c4.176-5.278,7.139-9.736,12.848-16.104c5.656-6.385,2.244-13.455,1.553-19.354
		c-0.375-3.203,1.483-4.08,4.32-6.709c-4.511,2.764-5.445,2.83-6.721,4.313c-1.801,2.096-2.957,4.172-5.279,8.146
		C39.658,15.038,29.061,15.702,25.4,18.479z"/>
	<g style="&st6;">
		<g>
			<path style="&st5;" d="M20.987,55.15c-0.388,0-0.763-0.074-1.126-0.223s-0.688-0.364-0.978-0.649
				c-0.289-0.284-0.52-0.631-0.692-1.039c-0.174-0.408-0.26-0.877-0.26-1.404V51.81c0-0.52,0.086-0.985,0.26-1.397
				c0.173-0.413,0.403-0.762,0.692-1.046s0.614-0.503,0.978-0.655c0.363-0.153,0.738-0.229,1.126-0.229
				c0.297,0,0.569,0.037,0.816,0.111c0.248,0.074,0.471,0.174,0.668,0.297c0.198,0.124,0.378,0.269,0.539,0.434
				c0.16,0.165,0.303,0.338,0.427,0.52v-3.86h0.952v9.032h-0.952v-1.287c-0.132,0.19-0.278,0.371-0.439,0.545
				c-0.161,0.173-0.34,0.326-0.538,0.458s-0.419,0.234-0.662,0.309S21.284,55.15,20.987,55.15z M21.16,54.297
				c0.298,0,0.584-0.06,0.86-0.18c0.276-0.119,0.523-0.288,0.742-0.507s0.392-0.479,0.52-0.779c0.128-0.302,0.192-0.638,0.192-1.009
				v-0.024c0-0.371-0.064-0.707-0.192-1.009c-0.128-0.301-0.301-0.559-0.52-0.773c-0.219-0.214-0.466-0.381-0.742-0.501
				c-0.276-0.119-0.563-0.18-0.86-0.18c-0.313,0-0.605,0.056-0.878,0.167s-0.51,0.272-0.712,0.483
				c-0.202,0.21-0.362,0.468-0.482,0.772c-0.119,0.306-0.18,0.652-0.18,1.04v0.024c0,0.38,0.061,0.722,0.18,1.027
				c0.12,0.305,0.282,0.564,0.489,0.779c0.206,0.215,0.445,0.38,0.718,0.495C20.566,54.239,20.855,54.297,21.16,54.297z"/>
			<path style="&st5;" d="M26.468,52.206c0.033,0.338,0.116,0.64,0.248,0.903s0.301,0.486,0.507,0.668s0.438,0.319,0.693,0.414
				c0.256,0.096,0.523,0.143,0.804,0.143c0.446,0,0.827-0.082,1.145-0.247c0.318-0.165,0.608-0.384,0.873-0.656l0.594,0.532
				c-0.322,0.363-0.689,0.654-1.102,0.872c-0.412,0.219-0.924,0.328-1.534,0.328c-0.438,0-0.85-0.08-1.237-0.241
				s-0.726-0.388-1.015-0.681s-0.518-0.646-0.687-1.058s-0.254-0.866-0.254-1.361c0-0.462,0.076-0.897,0.229-1.306
				c0.152-0.408,0.364-0.763,0.637-1.063s0.596-0.538,0.972-0.712c0.375-0.173,0.785-0.26,1.23-0.26
				c0.471,0,0.892,0.089,1.263,0.267c0.371,0.177,0.685,0.418,0.94,0.724c0.255,0.305,0.449,0.664,0.581,1.076
				c0.132,0.413,0.198,0.854,0.198,1.324c0,0.041,0,0.089,0,0.142c0,0.055-0.004,0.118-0.013,0.192H26.468z M30.589,51.427
				c-0.025-0.287-0.087-0.56-0.186-0.818c-0.1-0.258-0.233-0.486-0.402-0.683c-0.169-0.197-0.376-0.353-0.619-0.468
				s-0.521-0.172-0.835-0.172c-0.272,0-0.528,0.053-0.767,0.159c-0.24,0.107-0.45,0.257-0.632,0.449
				c-0.182,0.193-0.332,0.421-0.451,0.684c-0.12,0.262-0.196,0.545-0.229,0.849H30.589z"/>
			<path style="&st5;" d="M34.721,55.139c-0.462,0-0.928-0.085-1.397-0.254c-0.471-0.169-0.888-0.397-1.25-0.687l0.482-0.681
				c0.347,0.264,0.707,0.466,1.083,0.606c0.375,0.14,0.752,0.21,1.132,0.21c0.388,0,0.705-0.091,0.953-0.272
				c0.247-0.181,0.371-0.429,0.371-0.742v-0.024c0-0.157-0.044-0.293-0.13-0.408c-0.087-0.115-0.204-0.217-0.354-0.304
				c-0.148-0.086-0.319-0.162-0.513-0.229c-0.194-0.066-0.395-0.128-0.601-0.186c-0.247-0.074-0.497-0.155-0.748-0.241
				c-0.252-0.087-0.479-0.196-0.681-0.328s-0.367-0.297-0.495-0.495s-0.191-0.445-0.191-0.742v-0.024
				c0-0.272,0.053-0.521,0.16-0.749c0.107-0.227,0.258-0.421,0.452-0.581c0.193-0.161,0.425-0.285,0.692-0.371
				c0.269-0.087,0.559-0.131,0.873-0.131c0.396,0,0.796,0.064,1.2,0.192c0.403,0.128,0.771,0.299,1.101,0.514l-0.433,0.718
				c-0.297-0.19-0.608-0.341-0.935-0.452s-0.646-0.167-0.959-0.167c-0.379,0-0.681,0.089-0.903,0.266
				c-0.223,0.178-0.334,0.398-0.334,0.662v0.025c0,0.148,0.045,0.278,0.137,0.39c0.09,0.111,0.212,0.208,0.364,0.291
				c0.153,0.082,0.328,0.156,0.526,0.223c0.198,0.065,0.404,0.132,0.618,0.197c0.248,0.074,0.493,0.157,0.736,0.248
				s0.464,0.206,0.662,0.346c0.198,0.141,0.356,0.31,0.477,0.508c0.119,0.198,0.18,0.441,0.18,0.729v0.025
				c0,0.305-0.061,0.575-0.18,0.811c-0.12,0.234-0.28,0.435-0.482,0.6s-0.441,0.291-0.718,0.378
				C35.342,55.095,35.043,55.139,34.721,55.139z"/>
			<path style="&st5;" d="M40.29,55.126c-0.256,0-0.495-0.033-0.718-0.099c-0.223-0.066-0.415-0.172-0.575-0.315
				c-0.161-0.145-0.287-0.332-0.378-0.563c-0.091-0.23-0.136-0.507-0.136-0.829v-3.86h-0.892v-0.841h0.892v-1.931h0.952v1.931h2.029
				v0.841h-2.029v3.728c0,0.395,0.1,0.67,0.297,0.826c0.198,0.156,0.458,0.234,0.78,0.234c0.165,0,0.319-0.015,0.464-0.046
				c0.144-0.031,0.299-0.086,0.464-0.164v0.816c-0.165,0.091-0.341,0.159-0.526,0.204C40.729,55.104,40.521,55.126,40.29,55.126z"/>
			<path style="&st5;" d="M42.554,46.168h1.089v1.052h-1.089V46.168z M42.615,48.618h0.953v6.396h-0.953V48.618z"/>
			<path style="&st5;" d="M45.164,48.618h0.952v1.113c0.215-0.347,0.495-0.642,0.842-0.885s0.796-0.365,1.349-0.365
				c0.388,0,0.731,0.062,1.033,0.186c0.301,0.124,0.557,0.299,0.767,0.526c0.211,0.227,0.371,0.497,0.483,0.811
				c0.111,0.313,0.167,0.659,0.167,1.039v3.972h-0.953v-3.729c0-0.593-0.152-1.062-0.458-1.407
				c-0.305-0.346-0.742-0.519-1.312-0.519c-0.272,0-0.525,0.047-0.761,0.142s-0.439,0.23-0.612,0.407
				c-0.174,0.178-0.308,0.39-0.402,0.636c-0.095,0.247-0.143,0.519-0.143,0.815v3.654h-0.952V48.618z"/>
			<path style="&st5;" d="M55.088,55.163c-0.479,0-0.92-0.089-1.324-0.266c-0.404-0.178-0.755-0.417-1.052-0.718
				s-0.528-0.651-0.692-1.052c-0.165-0.4-0.248-0.827-0.248-1.281v-0.024c0-0.453,0.083-0.883,0.248-1.287
				c0.164-0.403,0.396-0.759,0.692-1.063c0.297-0.306,0.649-0.547,1.058-0.724c0.409-0.178,0.856-0.267,1.343-0.267
				c0.479,0,0.922,0.089,1.33,0.267c0.408,0.177,0.761,0.416,1.058,0.717c0.298,0.302,0.528,0.652,0.693,1.052
				c0.165,0.4,0.247,0.827,0.247,1.281v0.024c0,0.454-0.084,0.883-0.253,1.287c-0.17,0.404-0.402,0.759-0.699,1.063
				c-0.297,0.306-0.652,0.547-1.064,0.725C56.012,55.074,55.566,55.163,55.088,55.163z M55.112,54.31
				c0.347,0,0.664-0.066,0.953-0.198c0.288-0.132,0.536-0.31,0.742-0.532s0.367-0.482,0.482-0.779s0.173-0.614,0.173-0.953v-0.024
				c0-0.347-0.06-0.67-0.179-0.972c-0.12-0.301-0.287-0.564-0.501-0.791c-0.215-0.228-0.467-0.406-0.755-0.539
				c-0.289-0.132-0.603-0.197-0.94-0.197c-0.347,0-0.664,0.065-0.953,0.197c-0.289,0.133-0.534,0.31-0.736,0.532
				s-0.36,0.485-0.476,0.786c-0.116,0.301-0.174,0.62-0.174,0.959v0.024c0,0.347,0.06,0.67,0.18,0.972
				c0.119,0.301,0.284,0.563,0.495,0.785c0.21,0.223,0.459,0.4,0.748,0.532S54.774,54.31,55.112,54.31z"/>
		</g>
	</g>
	<path style="&st4;" d="M51.361,24.842c-0.17-0.795-0.39-1.575-0.666-2.34c-0.372-1.026-0.817-2.029-1.158-3.066
		c-0.638-1.939,0.463-3.557,0.669-3.852c0.362-0.515,0.786-0.987,1.232-1.43c0.86-0.853,1.81-1.615,2.802-2.316
		c-0.123-0.189-0.242-0.383-0.355-0.578c-1.428,0.559-8.771,3.123-8.592,8.787c0.036,1.135,0.476,2.215,0.746,3.316
		c0.131,0.53,0.244,1.065,0.313,1.607c0.029,0.244,0.049,0.49,0.068,0.734c0.001-0.002,0-0.003,0-0.004
		c0,0.007,0.018,0.777-0.016,1.111c-0.107,1.044-0.262,2.1-0.703,3.058c-0.409,0.892-1.028,1.666-1.793,2.278
		c-0.646,0.518-1.37,0.92-2.137,1.232c-1.895,4.021-3.035,5.86-5.453,8.73c0.956-0.139,1.905-0.32,2.842-0.551
		c2.207-0.542,4.356-1.361,6.283-2.576c1.924-1.213,3.58-2.854,4.682-4.853c1.152-2.091,1.614-4.485,1.516-6.857
		C51.607,26.464,51.53,25.638,51.361,24.842L51.361,24.842z M51.361,24.842"/>
	<path style="&st4;" d="M32.361,15.807c-5.413,0-9.801,4.384-9.801,9.792s7.893,16.807,9.801,16.807
		c1.956,0,9.803-11.398,9.803-16.807S37.775,15.807,32.361,15.807z M32.361,32.236c-3.668,0-6.643-2.973-6.643-6.638
		s2.975-6.637,6.643-6.637c3.67,0,6.645,2.972,6.645,6.637S36.031,32.236,32.361,32.236z"/>
</g>
<g>
	<rect style="&st7;" width="76.801" height="69.356"/>
	<linearGradient id="SVGID_3_" gradientUnits="userSpaceOnUse" x1="7.793" y1="58.1982" x2="48.9988" y2="23.6225">
		<stop  offset="0" style="stop-color:#0379B6;stop-opacity:0"/>
		<stop  offset="1" style="stop-color:#0379B6"/>
		<a:midPointStop  offset="0" style="stop-color:#0379B6;stop-opacity:0"/>
		<a:midPointStop  offset="0.7" style="stop-color:#0379B6;stop-opacity:0"/>
		<a:midPointStop  offset="1" style="stop-color:#0379B6"/>
	</linearGradient>
	<path style="&st11;" d="M33.326,17.313c-3.462,4.072-26.492,30.9-26.492,30.9s0.074,2.547,0.379,9.294
		c9.608,0.003,16.439,0.444,25.031,0.464c9.906-9.543,12.211-13.233,19.405-20.606c-0.389-0.979-0.21-2.132-1.482-2.162
		c-0.931-0.022-2.292-0.162-2.292-0.162s-4.248-12.589-6.328-17.688C39.113,11.389,40.488,9.464,33.326,17.313z"/>
	<g>
		<path style="&st5;" d="M39.956,12.894c-0.234-0.664-0.856-1.102-1.561-1.102c-0.695,0-1.316,0.438-1.56,1.102l-3.155,8.864h9.438
			L39.956,12.894z M39.956,12.894"/>
		<path style="&st5;" d="M44.89,26.736H31.911l-2.37,6.64h17.718L44.89,26.736z M44.89,26.736"/>
		<path style="&st5;" d="M49.992,35.04H26.808c-0.914,0-1.658,0.746-1.658,1.662c0,0.914,0.744,1.662,1.658,1.662h23.185
			c0.914,0,1.657-0.748,1.657-1.662C51.649,35.786,50.906,35.04,49.992,35.04L49.992,35.04z M49.992,35.04"/>
	</g>
	<g>
		<g>
			<path style="&st5;" d="M18.637,54.885c-0.462,0-0.928-0.085-1.397-0.254c-0.471-0.169-0.888-0.397-1.25-0.687l0.482-0.681
				c0.347,0.264,0.707,0.466,1.083,0.606c0.375,0.14,0.752,0.21,1.132,0.21c0.388,0,0.705-0.091,0.953-0.272
				c0.247-0.181,0.371-0.429,0.371-0.742v-0.024c0-0.157-0.044-0.293-0.13-0.408c-0.087-0.115-0.204-0.217-0.354-0.304
				c-0.148-0.086-0.319-0.162-0.513-0.229c-0.194-0.066-0.395-0.128-0.601-0.186c-0.247-0.074-0.497-0.155-0.748-0.241
				c-0.252-0.087-0.479-0.196-0.681-0.328s-0.367-0.297-0.495-0.495s-0.191-0.445-0.191-0.742v-0.024
				c0-0.272,0.053-0.521,0.16-0.749c0.107-0.227,0.258-0.421,0.452-0.581c0.193-0.161,0.425-0.285,0.692-0.371
				c0.269-0.087,0.559-0.131,0.873-0.131c0.396,0,0.796,0.064,1.2,0.192c0.403,0.128,0.771,0.299,1.101,0.514l-0.433,0.718
				c-0.297-0.19-0.608-0.341-0.935-0.452s-0.646-0.167-0.959-0.167c-0.379,0-0.681,0.089-0.903,0.266
				c-0.223,0.178-0.334,0.398-0.334,0.662v0.025c0,0.148,0.045,0.278,0.137,0.39c0.09,0.111,0.212,0.208,0.364,0.291
				c0.153,0.082,0.328,0.156,0.526,0.223c0.198,0.065,0.404,0.132,0.618,0.197c0.248,0.074,0.493,0.157,0.736,0.248
				s0.464,0.206,0.662,0.346c0.198,0.141,0.356,0.31,0.477,0.508c0.119,0.198,0.18,0.441,0.18,0.729v0.025
				c0,0.305-0.061,0.575-0.18,0.811c-0.12,0.234-0.28,0.435-0.482,0.6s-0.441,0.291-0.718,0.378
				C19.258,54.841,18.959,54.885,18.637,54.885z"/>
			<path style="&st5;" d="M22.089,45.914h1.089v1.052h-1.089V45.914z M22.15,48.364h0.953v6.396H22.15V48.364z"/>
			<path style="&st5;" d="M24.7,48.364h0.952v1.113c0.215-0.347,0.495-0.642,0.842-0.885s0.796-0.365,1.349-0.365
				c0.388,0,0.731,0.062,1.033,0.186c0.301,0.124,0.557,0.299,0.767,0.526c0.211,0.227,0.371,0.497,0.483,0.811
				c0.111,0.313,0.167,0.659,0.167,1.039v3.972H29.34v-3.729c0-0.593-0.152-1.062-0.458-1.407c-0.305-0.346-0.742-0.519-1.312-0.519
				c-0.272,0-0.525,0.047-0.761,0.142s-0.439,0.23-0.612,0.407c-0.174,0.178-0.308,0.39-0.402,0.636
				c-0.095,0.247-0.143,0.519-0.143,0.815v3.654H24.7V48.364z"/>
			<path style="&st5;" d="M36.701,54.896c-0.297,0-0.59-0.041-0.879-0.123c-0.289-0.083-0.544-0.209-0.767-0.378
				s-0.402-0.377-0.538-0.625c-0.137-0.247-0.205-0.536-0.205-0.866V52.88c0-0.347,0.066-0.649,0.198-0.909s0.319-0.477,0.563-0.649
				c0.243-0.174,0.532-0.306,0.866-0.396s0.703-0.136,1.107-0.136c0.412,0,0.769,0.024,1.07,0.074
				c0.301,0.05,0.596,0.115,0.885,0.198v-0.197c0-0.565-0.166-0.993-0.495-1.284c-0.33-0.291-0.797-0.437-1.398-0.437
				c-0.38,0-0.724,0.041-1.033,0.123c-0.31,0.083-0.612,0.194-0.909,0.335l-0.285-0.784c0.354-0.168,0.714-0.302,1.077-0.402
				c0.362-0.1,0.779-0.15,1.249-0.15c0.907,0,1.597,0.235,2.066,0.705c0.445,0.445,0.668,1.072,0.668,1.881v3.91h-0.939v-0.953
				c-0.224,0.289-0.522,0.543-0.897,0.762C37.729,54.787,37.262,54.896,36.701,54.896z M36.894,54.117
				c0.296,0,0.571-0.041,0.826-0.123s0.479-0.199,0.673-0.351c0.192-0.152,0.345-0.333,0.456-0.542
				c0.11-0.209,0.166-0.441,0.166-0.695v-0.592c-0.238-0.065-0.51-0.127-0.813-0.185c-0.305-0.058-0.654-0.086-1.049-0.086
				c-0.592,0-1.05,0.117-1.375,0.351c-0.324,0.234-0.487,0.544-0.487,0.93v0.024c0,0.197,0.044,0.376,0.13,0.536
				s0.203,0.293,0.352,0.4c0.147,0.106,0.318,0.188,0.512,0.246S36.68,54.117,36.894,54.117z"/>
			<path style="&st5;" d="M43.692,54.896c-0.388,0-0.732-0.062-1.033-0.186c-0.301-0.123-0.557-0.299-0.768-0.525
				c-0.21-0.227-0.371-0.497-0.482-0.811s-0.167-0.66-0.167-1.039v-3.972h0.953v3.729c0,0.593,0.152,1.062,0.458,1.407
				c0.305,0.346,0.742,0.519,1.312,0.519c0.271,0,0.525-0.048,0.761-0.143s0.438-0.23,0.606-0.407s0.303-0.389,0.402-0.636
				c0.099-0.247,0.148-0.519,0.148-0.814v-3.654h0.94v6.396h-0.94v-1.113c-0.215,0.346-0.495,0.642-0.842,0.885
				S44.245,54.896,43.692,54.896z"/>
			<path style="&st5;" d="M50.485,54.872c-0.256,0-0.495-0.033-0.718-0.099c-0.223-0.066-0.415-0.172-0.575-0.315
				c-0.161-0.145-0.287-0.332-0.378-0.563c-0.091-0.23-0.136-0.507-0.136-0.829v-3.86h-0.892v-0.841h0.892v-1.931h0.952v1.931h2.029
				v0.841h-2.029v3.728c0,0.395,0.1,0.67,0.297,0.826c0.198,0.156,0.458,0.234,0.78,0.234c0.165,0,0.319-0.015,0.464-0.046
				c0.144-0.031,0.299-0.086,0.464-0.164V54.6c-0.165,0.091-0.341,0.159-0.526,0.204C50.924,54.85,50.716,54.872,50.485,54.872z"/>
			<path style="&st5;" d="M55.645,54.909c-0.479,0-0.92-0.089-1.324-0.266c-0.404-0.178-0.755-0.417-1.052-0.718
				s-0.528-0.651-0.692-1.052c-0.165-0.4-0.248-0.827-0.248-1.281v-0.024c0-0.453,0.083-0.883,0.248-1.287
				c0.164-0.403,0.396-0.759,0.692-1.063c0.297-0.306,0.649-0.547,1.058-0.724c0.409-0.178,0.856-0.267,1.343-0.267
				c0.479,0,0.922,0.089,1.33,0.267c0.408,0.177,0.761,0.416,1.058,0.717c0.298,0.302,0.528,0.652,0.693,1.052
				c0.165,0.4,0.247,0.827,0.247,1.281v0.024c0,0.454-0.084,0.883-0.253,1.287c-0.17,0.404-0.402,0.759-0.699,1.063
				c-0.297,0.306-0.652,0.547-1.064,0.725C56.568,54.82,56.123,54.909,55.645,54.909z M55.669,54.056
				c0.347,0,0.664-0.066,0.953-0.198c0.288-0.132,0.536-0.31,0.742-0.532s0.367-0.482,0.482-0.779s0.173-0.614,0.173-0.953v-0.024
				c0-0.347-0.06-0.67-0.179-0.972c-0.12-0.301-0.287-0.564-0.501-0.791c-0.215-0.228-0.467-0.406-0.755-0.539
				c-0.289-0.132-0.603-0.197-0.94-0.197c-0.347,0-0.664,0.065-0.953,0.197c-0.289,0.133-0.534,0.31-0.736,0.532
				s-0.36,0.485-0.476,0.786c-0.116,0.301-0.174,0.62-0.174,0.959v0.024c0,0.347,0.06,0.67,0.18,0.972
				c0.119,0.301,0.284,0.563,0.495,0.785c0.21,0.223,0.459,0.4,0.748,0.532S55.331,54.056,55.669,54.056z"/>
		</g>
	</g>
</g>
<g style="&st9;">
	<rect style="&st3;" width="76.801" height="69.356"/>
	<linearGradient id="SVGID_4_" gradientUnits="userSpaceOnUse" x1="3.9492" y1="57.2725" x2="49.1907" y2="19.3103">
		<stop  offset="0" style="stop-color:#141659;stop-opacity:0"/>
		<stop  offset="1" style="stop-color:#141659"/>
		<a:midPointStop  offset="0" style="stop-color:#141659;stop-opacity:0"/>
		<a:midPointStop  offset="0.7" style="stop-color:#141659;stop-opacity:0"/>
		<a:midPointStop  offset="1" style="stop-color:#141659"/>
	</linearGradient>
	<path style="&st2;" d="M27.037,16.197c-3.074,3.606-23.521,27.36-23.521,27.36s-0.175,7.774-0.144,13.028
		c8.53,0.003,19.875,0.393,27.504,0.412c7.115-8.21,7.652-8.713,13.92-16.32c0.014-4.947-0.598-22.022-0.48-24.48
		c0.103-2.135-0.96-3.84-0.96-3.84H30.877C30.877,12.357,29.436,13.928,27.037,16.197z"/>
	<g style="&st6;">
		<g>
			<path style="&st5;" d="M15.139,45.729h0.953v9.032h-0.953V45.729z"/>
			<path style="&st5;" d="M17.774,45.729h0.953v9.032h-0.953V45.729z"/>
			<path style="&st5;" d="M22.229,54.896c-0.297,0-0.59-0.041-0.879-0.124c-0.289-0.082-0.544-0.209-0.767-0.378
				c-0.223-0.17-0.402-0.379-0.538-0.627c-0.137-0.248-0.205-0.538-0.205-0.869v-0.024c0-0.348,0.066-0.651,0.198-0.912
				s0.319-0.478,0.563-0.651c0.243-0.174,0.532-0.307,0.866-0.397s0.703-0.137,1.107-0.137c0.412,0,0.769,0.025,1.07,0.074
				c0.301,0.05,0.596,0.116,0.885,0.198v-0.195c0-0.563-0.166-0.987-0.495-1.276c-0.33-0.289-0.797-0.434-1.398-0.434
				c-0.38,0-0.724,0.041-1.033,0.123c-0.31,0.083-0.612,0.194-0.909,0.335l-0.285-0.784c0.354-0.168,0.714-0.302,1.077-0.402
				c0.362-0.1,0.779-0.15,1.249-0.15c0.907,0,1.597,0.235,2.066,0.705c0.445,0.445,0.668,1.072,0.668,1.881v3.91H24.53v-0.965
				c-0.224,0.292-0.522,0.548-0.897,0.77C23.257,54.786,22.789,54.896,22.229,54.896z M22.421,54.117
				c0.296,0,0.571-0.041,0.826-0.124c0.255-0.082,0.479-0.199,0.673-0.353c0.192-0.152,0.345-0.334,0.456-0.544
				c0.11-0.211,0.166-0.443,0.166-0.699v-0.594c-0.238-0.066-0.51-0.128-0.813-0.186c-0.305-0.058-0.654-0.087-1.049-0.087
				c-0.592,0-1.05,0.117-1.375,0.353c-0.324,0.235-0.487,0.547-0.487,0.935v0.024c0,0.198,0.044,0.378,0.13,0.538
				c0.086,0.161,0.203,0.295,0.352,0.402c0.147,0.107,0.318,0.189,0.512,0.247C22.004,54.089,22.207,54.117,22.421,54.117z
				 M23.503,45.604l0.989,0.455l-1.397,1.327h-0.768L23.503,45.604z"/>
			<path style="&st5;" d="M26.869,48.364h0.952v1.076c0.107-0.157,0.225-0.31,0.353-0.458s0.274-0.278,0.439-0.39
				s0.351-0.2,0.557-0.267c0.206-0.065,0.445-0.099,0.718-0.099c0.52,0,0.948,0.122,1.287,0.365
				c0.338,0.243,0.594,0.547,0.767,0.909c0.116-0.173,0.246-0.338,0.391-0.495c0.144-0.156,0.307-0.292,0.488-0.408
				c0.182-0.115,0.386-0.206,0.612-0.272c0.227-0.065,0.48-0.099,0.761-0.099c0.743,0,1.324,0.229,1.745,0.687
				c0.421,0.458,0.631,1.087,0.631,1.888v3.959h-0.953v-3.729c0-0.617-0.146-1.093-0.438-1.426c-0.293-0.333-0.699-0.5-1.219-0.5
				c-0.239,0-0.467,0.043-0.681,0.13c-0.215,0.086-0.402,0.214-0.563,0.382c-0.16,0.169-0.288,0.377-0.383,0.624
				c-0.096,0.247-0.143,0.526-0.143,0.84v3.679h-0.94v-3.753c0-0.602-0.146-1.068-0.439-1.401s-0.695-0.5-1.206-0.5
				c-0.256,0-0.491,0.049-0.705,0.148c-0.215,0.099-0.402,0.238-0.563,0.419c-0.161,0.182-0.287,0.394-0.377,0.636
				c-0.091,0.243-0.137,0.513-0.137,0.809v3.643h-0.952V48.364z"/>
			<path style="&st5;" d="M39.922,54.896c-0.297,0-0.59-0.041-0.879-0.123c-0.289-0.083-0.544-0.209-0.767-0.378
				s-0.402-0.377-0.538-0.625c-0.137-0.247-0.205-0.536-0.205-0.866V52.88c0-0.347,0.066-0.649,0.198-0.909s0.319-0.477,0.563-0.649
				c0.243-0.174,0.532-0.306,0.866-0.396s0.703-0.136,1.107-0.136c0.412,0,0.769,0.024,1.07,0.074
				c0.301,0.05,0.596,0.115,0.885,0.198v-0.197c0-0.565-0.166-0.993-0.495-1.284c-0.33-0.291-0.797-0.437-1.398-0.437
				c-0.38,0-0.724,0.041-1.033,0.123c-0.31,0.083-0.612,0.194-0.909,0.335l-0.285-0.784c0.354-0.168,0.714-0.302,1.077-0.402
				c0.362-0.1,0.779-0.15,1.249-0.15c0.907,0,1.597,0.235,2.066,0.705c0.445,0.445,0.668,1.072,0.668,1.881v3.91h-0.939v-0.953
				c-0.224,0.289-0.522,0.543-0.897,0.762C40.95,54.787,40.482,54.896,39.922,54.896z M40.114,54.117
				c0.296,0,0.571-0.041,0.826-0.123s0.479-0.199,0.673-0.351c0.192-0.152,0.345-0.333,0.456-0.542
				c0.11-0.209,0.166-0.441,0.166-0.695v-0.592c-0.238-0.065-0.51-0.127-0.813-0.185c-0.305-0.058-0.654-0.086-1.049-0.086
				c-0.592,0-1.05,0.117-1.375,0.351c-0.324,0.234-0.487,0.544-0.487,0.93v0.024c0,0.197,0.044,0.376,0.13,0.536
				s0.203,0.293,0.352,0.4c0.147,0.106,0.318,0.188,0.512,0.246S39.9,54.117,40.114,54.117z"/>
			<path style="&st5;" d="M44.563,48.364h0.952v1.076c0.107-0.157,0.225-0.31,0.353-0.458s0.274-0.278,0.439-0.39
				s0.351-0.2,0.557-0.267c0.206-0.065,0.445-0.099,0.718-0.099c0.52,0,0.948,0.122,1.287,0.365
				c0.338,0.243,0.594,0.547,0.767,0.909c0.116-0.173,0.246-0.338,0.391-0.495c0.144-0.156,0.307-0.292,0.488-0.408
				c0.182-0.115,0.386-0.206,0.612-0.272c0.227-0.065,0.48-0.099,0.761-0.099c0.743,0,1.324,0.229,1.745,0.687
				c0.421,0.458,0.631,1.087,0.631,1.888v3.959H53.31v-3.729c0-0.617-0.146-1.093-0.438-1.426c-0.293-0.333-0.699-0.5-1.219-0.5
				c-0.239,0-0.467,0.043-0.681,0.13c-0.215,0.086-0.402,0.214-0.563,0.382c-0.16,0.169-0.288,0.377-0.383,0.624
				c-0.096,0.247-0.143,0.526-0.143,0.84v3.679h-0.94v-3.753c0-0.602-0.146-1.068-0.439-1.401s-0.695-0.5-1.206-0.5
				c-0.256,0-0.491,0.049-0.705,0.148c-0.215,0.099-0.402,0.238-0.563,0.419c-0.161,0.182-0.287,0.394-0.377,0.636
				c-0.091,0.243-0.137,0.513-0.137,0.809v3.643h-0.952V48.364z"/>
			<path style="&st5;" d="M56.278,51.952c0.033,0.338,0.116,0.64,0.248,0.903s0.301,0.486,0.507,0.668s0.438,0.319,0.693,0.414
				c0.256,0.096,0.523,0.143,0.804,0.143c0.446,0,0.827-0.082,1.145-0.247c0.318-0.165,0.608-0.384,0.873-0.656l0.594,0.532
				c-0.322,0.363-0.689,0.654-1.102,0.872c-0.412,0.219-0.924,0.328-1.534,0.328c-0.438,0-0.85-0.08-1.237-0.241
				s-0.726-0.388-1.015-0.681s-0.518-0.646-0.687-1.058s-0.254-0.866-0.254-1.361c0-0.462,0.076-0.897,0.229-1.306
				c0.152-0.408,0.364-0.763,0.637-1.063s0.596-0.538,0.972-0.712c0.375-0.173,0.785-0.26,1.23-0.26
				c0.471,0,0.892,0.089,1.263,0.267c0.371,0.177,0.685,0.418,0.94,0.724c0.255,0.305,0.449,0.664,0.581,1.076
				c0.132,0.413,0.198,0.854,0.198,1.324c0,0.041,0,0.089,0,0.142c0,0.055-0.004,0.118-0.013,0.192H56.278z M60.399,51.173
				c-0.025-0.287-0.087-0.56-0.186-0.818c-0.1-0.258-0.233-0.486-0.402-0.683c-0.169-0.197-0.376-0.353-0.619-0.468
				s-0.521-0.172-0.835-0.172c-0.272,0-0.528,0.053-0.767,0.159c-0.24,0.107-0.45,0.257-0.632,0.449
				c-0.182,0.193-0.332,0.421-0.451,0.684c-0.12,0.262-0.196,0.545-0.229,0.849H60.399z"/>
		</g>
	</g>
	<path style="&st4;" d="M43.016,11.855H32.67c-1.252,0-2.268,1.032-2.268,2.301v25.154c0,1.272,1.016,2.306,2.268,2.306h10.346
		c1.25,0,2.264-1.033,2.264-2.306V14.156C45.279,12.888,44.266,11.855,43.016,11.855z M35.893,13.531h3.896
		c0.109,0,0.203,0.139,0.203,0.303c0,0.171-0.094,0.303-0.203,0.303h-3.896c-0.112,0-0.199-0.132-0.199-0.303
		C35.693,13.67,35.78,13.531,35.893,13.531z M37.838,39.919c-0.719,0-1.311-0.599-1.311-1.338c0-0.735,0.592-1.331,1.311-1.331
		c0.73,0,1.315,0.596,1.315,1.331C39.153,39.32,38.568,39.919,37.838,39.919z M44.286,35.793h-12.89V16.382h12.89V35.793z"/>
</g>
</svg>
