<?xml version="1.0" encoding="iso-8859-1"?>
<!-- Generator: Adobe Illustrator 16.0.0, SVG Export Plug-In . SVG Version: 6.00 Build 0)  -->
<!DOCTYPE svg PUBLIC "-//W3C//DTD SVG 1.1//EN" "http://www.w3.org/Graphics/SVG/1.1/DTD/svg11.dtd" [
	<!ENTITY ns_flows "http://ns.adobe.com/Flows/1.0/">
	<!ENTITY ns_extend "http://ns.adobe.com/Extensibility/1.0/">
	<!ENTITY ns_ai "http://ns.adobe.com/AdobeIllustrator/10.0/">
	<!ENTITY ns_graphs "http://ns.adobe.com/Graphs/1.0/">
	<!ENTITY st0 "clip-path:url(#SVGID_2_);">
	<!ENTITY st1 "fill:url(#SVGID_3_);">
	<!ENTITY st2 "fill:#FFFFFF;">
]>
<svg version="1.1" id="Capa_1" xmlns:x="&ns_extend;" xmlns:i="&ns_ai;" xmlns:graph="&ns_graphs;"
	 xmlns="http://www.w3.org/2000/svg" xmlns:xlink="http://www.w3.org/1999/xlink" xmlns:a="http://ns.adobe.com/AdobeSVGViewerExtensions/3.0/"
	 x="0px" y="0px" width="142.321px" height="62.88px" viewBox="0 0 142.321 62.88"
	 style="enable-background:new 0 0 142.321 62.88;" xml:space="preserve">
<g>
	<g>
		<defs>
			<rect id="SVGID_1_" width="142.321" height="62.88"/>
		</defs>
		<use xlink:href="#SVGID_1_"  style="overflow:visible;fill:#E8271D;"/>
		<clipPath id="SVGID_2_">
			<use xlink:href="#SVGID_1_"  style="overflow:visible;"/>
		</clipPath>
		<g style="&st0;">
			<linearGradient id="SVGID_3_" gradientUnits="userSpaceOnUse" x1="-24.9404" y1="70.3369" x2="40.4205" y2="15.4925">
				<stop  offset="0" style="stop-color:#AC1D17;stop-opacity:0"/>
				<stop  offset="1" style="stop-color:#AC1D17"/>
				<a:midPointStop  offset="0" style="stop-color:#AC1D17;stop-opacity:0"/>
				<a:midPointStop  offset="0.7" style="stop-color:#AC1D17;stop-opacity:0"/>
				<a:midPointStop  offset="1" style="stop-color:#AC1D17"/>
			</linearGradient>
			<path style="&st1;" d="M39.354,20.117c-2.556,0-4.887,0.92-6.715,2.429l3.672-4.328c-0.303-4.862-2.584-9.117-6.239-11.858
				l-2.13,2.132l-2.014,2.385c-0.986-0.667-2.091-1.18-3.301-1.471v-1.07c0-1.219-1.069-2.28-2.287-2.28
				c-0.944,0-1.794,0.648-2.125,1.508L13.18,9.285l-0.29-0.794l-2.131-2.132L8.632,8.277C7.195,9.451-32.201,54.905-35.004,58.344
				h64.901L46.84,38.239c1.927-1.922,3.122-4.579,3.122-7.515C49.961,24.866,45.212,20.117,39.354,20.117z"/>
			<g>
				<g>
					<path style="&st2;" d="M12.89,8.491l-2.131-2.132c-3.646,2.741-6.081,6.996-6.386,11.858h3.045
						C7.725,14.11,9.698,10.613,12.89,8.491z"/>
					<path style="&st2;" d="M33.265,18.218h3.045c-0.303-4.862-2.584-9.117-6.239-11.858l-2.13,2.132
						C30.985,10.613,32.964,14.11,33.265,18.218z"/>
					<path style="&st2;" d="M26.518,30.918c0-3.335,1.435-6.332,3.709-8.434v-3.5c0-4.717-3.192-8.519-7.601-9.579v-1.07
						c0-1.219-1.069-2.28-2.287-2.28c-1.213,0-2.28,1.062-2.28,2.28v1.07c-4.411,1.061-7.604,4.862-7.604,9.579v8.358l-3.036,3.045
						v1.521h19.149C26.54,31.583,26.518,31.252,26.518,30.918z"/>
					<path style="&st2;" d="M20.339,36.467h0.608c1.068-0.146,1.827-0.913,2.133-1.826c0.154-0.303,0.304-0.755,0.304-1.215h-6.084
						C17.299,35.104,18.668,36.467,20.339,36.467z"/>
				</g>
				<path style="&st2;" d="M39.354,20.117c-5.859,0-10.607,4.749-10.607,10.607s4.748,10.607,10.607,10.607
					c5.858,0,10.608-4.749,10.608-10.607S45.212,20.117,39.354,20.117z M39.355,22.721c1.84,0,3.332,1.492,3.332,3.33
					c0,1.839-1.491,3.328-3.332,3.328c-1.839,0-3.33-1.489-3.33-3.327C36.025,24.213,37.516,22.721,39.355,22.721z M45.031,37.331
					h-0.024l-0.22,0.11c-0.112,0.059-1.929,0.951-5.064,0.951c-1.605,0-3.556-0.234-5.798-0.936l-0.238-0.072l-0.009-0.054v-3.458
					c0-2.353,1.914-4.267,4.265-4.267h2.823c2.354,0,4.267,1.914,4.265,4.267V37.331z"/>
			</g>
		</g>
	</g>
	<g>
		<path style="&st2;" d="M58.944,19.755c-0.494,0-0.971-0.094-1.434-0.283c-0.461-0.188-0.876-0.465-1.244-0.826
			c-0.367-0.362-0.66-0.804-0.881-1.323s-0.331-1.115-0.331-1.787v-0.031c0-0.662,0.11-1.255,0.331-1.78
			c0.221-0.524,0.514-0.968,0.881-1.33c0.368-0.362,0.783-0.641,1.244-0.835c0.463-0.193,0.939-0.291,1.434-0.291
			c0.378,0,0.725,0.047,1.039,0.142s0.599,0.221,0.851,0.378s0.479,0.342,0.685,0.551c0.205,0.211,0.387,0.431,0.543,0.662V8.087
			h1.213v11.495h-1.213v-1.638c-0.168,0.241-0.354,0.473-0.559,0.692c-0.205,0.221-0.433,0.415-0.685,0.583
			s-0.533,0.299-0.843,0.394S59.322,19.755,58.944,19.755z M59.165,18.669c0.377,0,0.742-0.076,1.094-0.229s0.667-0.367,0.945-0.646
			c0.277-0.278,0.498-0.609,0.661-0.992s0.244-0.812,0.244-1.283v-0.032c0-0.472-0.081-0.899-0.244-1.283
			c-0.163-0.383-0.384-0.711-0.661-0.984c-0.278-0.272-0.594-0.485-0.945-0.638c-0.352-0.151-0.717-0.228-1.094-0.228
			c-0.399,0-0.771,0.07-1.118,0.212s-0.648,0.347-0.905,0.614c-0.258,0.268-0.463,0.596-0.615,0.984s-0.228,0.829-0.228,1.322v0.032
			c0,0.482,0.075,0.919,0.228,1.307c0.152,0.389,0.36,0.72,0.623,0.992c0.262,0.273,0.566,0.483,0.913,0.63
			C58.409,18.596,58.776,18.669,59.165,18.669z"/>
		<path style="&st2;" d="M65.919,16.008c0.042,0.431,0.147,0.813,0.315,1.149s0.383,0.619,0.645,0.85
			c0.263,0.231,0.557,0.407,0.883,0.528c0.324,0.12,0.666,0.181,1.023,0.181c0.566,0,1.053-0.104,1.457-0.314
			c0.403-0.21,0.773-0.488,1.109-0.835l0.756,0.677c-0.409,0.463-0.877,0.832-1.401,1.11s-1.176,0.418-1.952,0.418
			c-0.557,0-1.082-0.103-1.575-0.308s-0.924-0.493-1.291-0.866c-0.368-0.372-0.659-0.821-0.874-1.347
			c-0.215-0.524-0.322-1.102-0.322-1.731c0-0.588,0.096-1.142,0.291-1.661c0.193-0.521,0.465-0.972,0.811-1.354
			c0.347-0.383,0.758-0.686,1.236-0.905c0.478-0.221,1-0.331,1.566-0.331c0.599,0,1.135,0.113,1.606,0.339
			c0.473,0.226,0.871,0.532,1.196,0.921c0.326,0.389,0.572,0.845,0.74,1.37s0.252,1.086,0.252,1.685c0,0.053,0,0.113,0,0.182
			s-0.005,0.149-0.016,0.244H65.919z M71.163,15.016c-0.031-0.365-0.109-0.713-0.235-1.041c-0.126-0.329-0.297-0.619-0.513-0.869
			c-0.215-0.251-0.477-0.449-0.787-0.595c-0.31-0.146-0.664-0.22-1.063-0.22c-0.346,0-0.672,0.068-0.977,0.203
			c-0.305,0.137-0.572,0.327-0.803,0.572s-0.423,0.535-0.574,0.869c-0.152,0.334-0.25,0.693-0.292,1.08H71.163z"/>
		<path style="&st2;" d="M76.454,19.724c-0.325,0-0.629-0.042-0.913-0.126c-0.283-0.084-0.527-0.218-0.731-0.401
			c-0.205-0.184-0.365-0.423-0.48-0.717c-0.116-0.294-0.174-0.646-0.174-1.055v-4.913h-1.134V11.44h1.134V8.984h1.213v2.456h2.582
			v1.071h-2.582v4.743c0,0.503,0.126,0.854,0.378,1.053c0.252,0.198,0.583,0.298,0.991,0.298c0.211,0,0.407-0.02,0.592-0.06
			c0.184-0.039,0.38-0.108,0.59-0.208v1.039c-0.21,0.116-0.434,0.202-0.67,0.26C77.013,19.694,76.748,19.724,76.454,19.724z"/>
		<path style="&st2;" d="M81.729,19.755c-0.377,0-0.75-0.053-1.117-0.157c-0.368-0.104-0.693-0.265-0.977-0.48
			c-0.283-0.215-0.512-0.48-0.686-0.795c-0.173-0.315-0.26-0.683-0.26-1.103v-0.031c0-0.441,0.084-0.827,0.252-1.157
			c0.168-0.331,0.407-0.606,0.717-0.827s0.678-0.388,1.103-0.504c0.425-0.115,0.895-0.173,1.409-0.173
			c0.525,0,0.979,0.031,1.362,0.095c0.383,0.063,0.759,0.146,1.126,0.252v-0.251c0-0.72-0.211-1.265-0.63-1.635
			c-0.421-0.37-1.014-0.556-1.78-0.556c-0.482,0-0.92,0.053-1.314,0.157c-0.394,0.105-0.779,0.247-1.157,0.426l-0.362-0.998
			c0.451-0.213,0.908-0.383,1.37-0.511s0.992-0.192,1.591-0.192c1.154,0,2.031,0.3,2.629,0.897c0.567,0.567,0.852,1.365,0.852,2.394
			v4.977h-1.197v-1.213c-0.283,0.368-0.664,0.69-1.143,0.969C83.04,19.616,82.444,19.755,81.729,19.755z M81.975,18.763
			c0.376,0,0.727-0.052,1.051-0.156s0.609-0.253,0.855-0.446s0.439-0.424,0.581-0.69c0.142-0.266,0.212-0.561,0.212-0.885v-0.753
			c-0.304-0.083-0.648-0.161-1.036-0.234s-0.831-0.11-1.334-0.11c-0.753,0-1.337,0.149-1.75,0.447s-0.62,0.692-0.62,1.183v0.032
			c0,0.25,0.055,0.478,0.165,0.682c0.11,0.203,0.259,0.373,0.447,0.509s0.405,0.24,0.651,0.313S81.703,18.763,81.975,18.763z"/>
		<path style="&st2;" d="M87.745,8.087h1.213v11.495h-1.213V8.087z"/>
		<path style="&st2;" d="M91.098,8.087h1.213v11.495h-1.213V8.087z"/>
		<path style="&st2;" d="M95.067,16.008c0.041,0.431,0.146,0.813,0.314,1.149s0.383,0.619,0.646,0.85
			c0.263,0.231,0.557,0.407,0.882,0.528c0.325,0.12,0.666,0.181,1.023,0.181c0.567,0,1.053-0.104,1.457-0.314
			s0.773-0.488,1.109-0.835l0.756,0.677c-0.408,0.463-0.876,0.832-1.4,1.11c-0.525,0.278-1.176,0.418-1.953,0.418
			c-0.557,0-1.082-0.103-1.574-0.308c-0.494-0.205-0.924-0.493-1.291-0.866c-0.368-0.372-0.66-0.821-0.875-1.347
			c-0.215-0.524-0.322-1.102-0.322-1.731c0-0.588,0.097-1.142,0.291-1.661c0.194-0.521,0.465-0.972,0.811-1.354
			c0.348-0.383,0.759-0.686,1.236-0.905c0.479-0.221,1-0.331,1.567-0.331c0.599,0,1.134,0.113,1.606,0.339s0.871,0.532,1.196,0.921
			s0.572,0.845,0.74,1.37c0.167,0.525,0.252,1.086,0.252,1.685c0,0.053,0,0.113,0,0.182s-0.005,0.149-0.016,0.244H95.067z
			 M100.31,15.016c-0.031-0.365-0.11-0.713-0.235-1.041c-0.127-0.329-0.297-0.619-0.513-0.869c-0.216-0.251-0.478-0.449-0.787-0.595
			c-0.31-0.146-0.664-0.22-1.063-0.22c-0.346,0-0.672,0.068-0.976,0.203c-0.305,0.137-0.573,0.327-0.804,0.572
			s-0.422,0.535-0.574,0.869s-0.25,0.693-0.291,1.08H100.31z"/>
		<path style="&st2;" d="M105.57,19.739c-0.588,0-1.181-0.107-1.779-0.322c-0.599-0.216-1.128-0.507-1.591-0.874l0.615-0.866
			c0.44,0.336,0.899,0.593,1.377,0.771s0.958,0.268,1.441,0.268c0.493,0,0.897-0.115,1.212-0.347
			c0.315-0.23,0.473-0.545,0.473-0.944v-0.031c0-0.199-0.056-0.373-0.166-0.521c-0.109-0.146-0.26-0.275-0.448-0.386
			c-0.189-0.109-0.407-0.207-0.653-0.291c-0.247-0.084-0.501-0.162-0.764-0.236c-0.315-0.095-0.633-0.196-0.952-0.307
			c-0.32-0.11-0.609-0.249-0.867-0.418c-0.257-0.167-0.467-0.378-0.629-0.63c-0.164-0.252-0.244-0.566-0.244-0.944V13.63
			c0-0.347,0.068-0.664,0.204-0.953c0.136-0.288,0.328-0.535,0.575-0.74c0.246-0.204,0.54-0.362,0.881-0.472
			c0.342-0.11,0.712-0.166,1.111-0.166c0.503,0,1.013,0.082,1.526,0.244c0.515,0.163,0.981,0.381,1.402,0.653l-0.552,0.914
			c-0.378-0.242-0.774-0.434-1.188-0.575c-0.415-0.142-0.821-0.213-1.22-0.213c-0.484,0-0.867,0.113-1.15,0.339
			s-0.425,0.507-0.425,0.843v0.031c0,0.188,0.058,0.354,0.173,0.496s0.271,0.266,0.465,0.37c0.193,0.104,0.417,0.199,0.669,0.283
			s0.515,0.168,0.787,0.252c0.315,0.095,0.627,0.199,0.938,0.315c0.31,0.115,0.59,0.262,0.842,0.44s0.454,0.394,0.606,0.646
			s0.229,0.562,0.229,0.93v0.031c0,0.389-0.076,0.732-0.229,1.031s-0.357,0.554-0.614,0.764s-0.562,0.37-0.913,0.48
			S105.979,19.739,105.57,19.739z"/>
	</g>
	<g>
		<g>
			<path style="&st2;" d="M58.944,38.103c-0.493,0-0.971-0.094-1.433-0.283c-0.462-0.188-0.876-0.465-1.244-0.826
				c-0.368-0.362-0.661-0.804-0.882-1.323s-0.33-1.115-0.33-1.787v-0.031c0-0.662,0.109-1.255,0.33-1.78
				c0.221-0.524,0.514-0.968,0.882-1.33s0.782-0.641,1.244-0.835c0.462-0.193,0.939-0.291,1.433-0.291
				c0.379,0,0.725,0.047,1.039,0.142c0.315,0.095,0.6,0.221,0.852,0.378s0.479,0.342,0.685,0.551
				c0.204,0.211,0.386,0.431,0.543,0.662v-4.913h1.213V37.93h-1.213v-1.638c-0.168,0.241-0.354,0.473-0.56,0.692
				c-0.204,0.221-0.432,0.415-0.684,0.583s-0.533,0.299-0.844,0.394C59.667,38.056,59.323,38.103,58.944,38.103z M59.165,37.017
				c0.378,0,0.742-0.076,1.095-0.229c0.352-0.152,0.667-0.367,0.944-0.646c0.278-0.278,0.499-0.609,0.662-0.992
				c0.162-0.383,0.244-0.812,0.244-1.283v-0.032c0-0.472-0.082-0.899-0.244-1.283c-0.163-0.383-0.384-0.711-0.662-0.984
				c-0.277-0.272-0.593-0.485-0.944-0.638c-0.353-0.151-0.717-0.228-1.095-0.228c-0.398,0-0.771,0.07-1.117,0.212
				c-0.348,0.142-0.648,0.347-0.906,0.614s-0.462,0.596-0.614,0.984s-0.228,0.829-0.228,1.322v0.032
				c0,0.482,0.075,0.919,0.228,1.307c0.152,0.389,0.36,0.72,0.622,0.992c0.262,0.273,0.566,0.483,0.914,0.63
				C58.409,36.943,58.776,37.017,59.165,37.017z"/>
			<path style="&st2;" d="M65.92,34.355c0.041,0.431,0.146,0.813,0.314,1.149s0.383,0.619,0.646,0.85
				c0.263,0.231,0.557,0.407,0.882,0.528c0.325,0.12,0.666,0.181,1.023,0.181c0.567,0,1.053-0.104,1.457-0.314
				s0.773-0.488,1.109-0.835l0.756,0.677c-0.408,0.463-0.876,0.832-1.4,1.11c-0.525,0.278-1.176,0.418-1.953,0.418
				c-0.557,0-1.082-0.103-1.574-0.308c-0.494-0.205-0.924-0.493-1.291-0.866c-0.368-0.372-0.66-0.821-0.875-1.347
				c-0.215-0.524-0.322-1.102-0.322-1.731c0-0.588,0.097-1.142,0.291-1.661c0.194-0.521,0.465-0.972,0.811-1.354
				c0.348-0.383,0.759-0.686,1.236-0.905c0.479-0.221,1-0.331,1.567-0.331c0.599,0,1.134,0.113,1.606,0.339s0.871,0.532,1.196,0.921
				s0.572,0.845,0.74,1.37c0.167,0.525,0.252,1.086,0.252,1.685c0,0.053,0,0.113,0,0.182s-0.005,0.149-0.016,0.244H65.92z
				 M71.164,33.363c-0.031-0.365-0.11-0.713-0.235-1.041c-0.127-0.329-0.297-0.619-0.513-0.869
				c-0.216-0.251-0.478-0.449-0.787-0.595c-0.31-0.146-0.664-0.22-1.063-0.22c-0.346,0-0.672,0.068-0.976,0.203
				c-0.305,0.137-0.573,0.327-0.804,0.572s-0.422,0.535-0.574,0.869s-0.25,0.693-0.291,1.08H71.164z"/>
			<path style="&st2;" d="M80.092,38.103c-0.378,0-0.75-0.053-1.118-0.157s-0.692-0.265-0.976-0.48
				c-0.284-0.215-0.512-0.48-0.686-0.795c-0.174-0.315-0.26-0.683-0.26-1.103v-0.031c0-0.441,0.084-0.827,0.252-1.157
				c0.168-0.331,0.406-0.606,0.717-0.827c0.309-0.221,0.677-0.388,1.102-0.504c0.426-0.115,0.895-0.173,1.41-0.173
				c0.524,0,0.979,0.031,1.361,0.095c0.383,0.063,0.759,0.146,1.127,0.252v-0.251c0-0.72-0.211-1.265-0.631-1.635
				s-1.014-0.556-1.779-0.556c-0.482,0-0.921,0.053-1.314,0.157c-0.395,0.105-0.779,0.247-1.158,0.426l-0.361-0.998
				c0.451-0.213,0.908-0.383,1.369-0.511c0.463-0.128,0.992-0.192,1.591-0.192c1.155,0,2.032,0.3,2.63,0.897
				c0.566,0.567,0.851,1.365,0.851,2.394v4.977h-1.196v-1.213c-0.284,0.368-0.665,0.69-1.143,0.969S80.806,38.103,80.092,38.103z
				 M80.337,37.11c0.376,0,0.728-0.052,1.052-0.156s0.609-0.253,0.855-0.446s0.439-0.424,0.58-0.69
				c0.142-0.266,0.213-0.561,0.213-0.885V34.18c-0.305-0.083-0.649-0.161-1.037-0.234c-0.387-0.073-0.831-0.11-1.334-0.11
				c-0.753,0-1.336,0.149-1.75,0.447c-0.413,0.298-0.619,0.692-0.619,1.183v0.032c0,0.25,0.055,0.478,0.164,0.682
				c0.11,0.203,0.26,0.373,0.447,0.509c0.189,0.136,0.406,0.24,0.652,0.313C79.806,37.074,80.065,37.11,80.337,37.11z"/>
			<path style="&st2;" d="M86.108,26.435h1.213V37.93h-1.213V26.435z"/>
			<path style="&st2;" d="M91.776,38.103c-0.378,0-0.75-0.053-1.118-0.157s-0.692-0.265-0.976-0.48
				c-0.284-0.215-0.512-0.48-0.686-0.795c-0.174-0.315-0.26-0.683-0.26-1.103v-0.031c0-0.441,0.084-0.827,0.252-1.157
				c0.168-0.331,0.406-0.606,0.717-0.827c0.309-0.221,0.677-0.388,1.102-0.504c0.426-0.115,0.895-0.173,1.41-0.173
				c0.524,0,0.979,0.031,1.361,0.095c0.383,0.063,0.759,0.146,1.127,0.252v-0.251c0-0.72-0.211-1.265-0.631-1.635
				s-1.014-0.556-1.779-0.556c-0.482,0-0.921,0.053-1.314,0.157c-0.395,0.105-0.779,0.247-1.158,0.426l-0.361-0.998
				c0.451-0.213,0.908-0.383,1.369-0.511c0.463-0.128,0.992-0.192,1.591-0.192c1.155,0,2.032,0.3,2.63,0.897
				c0.566,0.567,0.851,1.365,0.851,2.394v4.977h-1.196v-1.213c-0.284,0.368-0.665,0.69-1.143,0.969S92.49,38.103,91.776,38.103z
				 M92.021,37.11c0.376,0,0.728-0.052,1.052-0.156s0.609-0.253,0.855-0.446s0.439-0.424,0.58-0.69
				c0.142-0.266,0.213-0.561,0.213-0.885V34.18c-0.305-0.083-0.649-0.161-1.037-0.234c-0.387-0.073-0.831-0.11-1.334-0.11
				c-0.753,0-1.336,0.149-1.75,0.447c-0.413,0.298-0.619,0.692-0.619,1.183v0.032c0,0.25,0.055,0.478,0.164,0.682
				c0.11,0.203,0.26,0.373,0.447,0.509c0.189,0.136,0.406,0.24,0.652,0.313C91.49,37.074,91.749,37.11,92.021,37.11z"/>
			<path style="&st2;" d="M97.682,29.788h1.212v2.126c0.147-0.336,0.331-0.646,0.552-0.929c0.22-0.283,0.472-0.527,0.756-0.732
				c0.283-0.205,0.592-0.359,0.928-0.465c0.336-0.104,0.699-0.151,1.088-0.142v1.308h-0.096c-0.44,0-0.857,0.078-1.252,0.235
				c-0.393,0.158-0.737,0.395-1.031,0.709c-0.293,0.315-0.525,0.706-0.692,1.173c-0.168,0.468-0.252,1.006-0.252,1.614v3.244h-1.212
				V29.788z"/>
			<path style="&st2;" d="M103.272,29.788h1.212v1.37c0.136-0.199,0.286-0.394,0.448-0.582c0.163-0.189,0.35-0.354,0.56-0.496
				s0.445-0.255,0.708-0.339s0.567-0.126,0.914-0.126c0.661,0,1.207,0.155,1.638,0.465c0.43,0.31,0.756,0.695,0.976,1.157
				c0.147-0.221,0.313-0.431,0.496-0.63s0.392-0.373,0.622-0.52c0.23-0.147,0.491-0.263,0.779-0.347
				c0.289-0.084,0.611-0.126,0.969-0.126c0.945,0,1.685,0.291,2.221,0.874c0.535,0.583,0.803,1.383,0.803,2.401v5.039h-1.213v-4.745
				c0-0.785-0.187-1.391-0.559-1.814c-0.373-0.425-0.89-0.637-1.551-0.637c-0.305,0-0.594,0.055-0.866,0.165
				c-0.273,0.11-0.512,0.272-0.717,0.487c-0.205,0.214-0.367,0.479-0.488,0.793s-0.181,0.671-0.181,1.068v4.683h-1.197v-4.776
				c0-0.765-0.187-1.359-0.559-1.783c-0.373-0.425-0.885-0.637-1.535-0.637c-0.326,0-0.625,0.063-0.897,0.188
				c-0.273,0.126-0.512,0.304-0.717,0.534s-0.365,0.5-0.48,0.81c-0.115,0.309-0.173,0.651-0.173,1.028v4.636h-1.212V29.788z"/>
			<path style="&st2;" d="M119.884,38.103c-0.378,0-0.751-0.053-1.118-0.157c-0.368-0.104-0.693-0.265-0.977-0.48
				c-0.283-0.215-0.512-0.48-0.685-0.795c-0.174-0.315-0.26-0.683-0.26-1.103v-0.031c0-0.441,0.084-0.827,0.252-1.157
				c0.167-0.331,0.406-0.606,0.716-0.827s0.678-0.388,1.103-0.504c0.425-0.115,0.895-0.173,1.409-0.173
				c0.525,0,0.979,0.031,1.362,0.095c0.383,0.063,0.759,0.146,1.126,0.252v-0.251c0-0.72-0.21-1.265-0.63-1.635
				s-1.014-0.556-1.779-0.556c-0.483,0-0.921,0.053-1.315,0.157c-0.394,0.105-0.779,0.247-1.157,0.426l-0.362-0.998
				c0.451-0.213,0.908-0.383,1.37-0.511s0.992-0.192,1.591-0.192c1.154,0,2.031,0.3,2.63,0.897c0.566,0.567,0.851,1.365,0.851,2.394
				v4.977h-1.197v-1.213c-0.283,0.368-0.664,0.69-1.142,0.969S120.598,38.103,119.884,38.103z M120.129,37.11
				c0.376,0,0.727-0.052,1.052-0.156c0.324-0.104,0.609-0.253,0.855-0.446c0.245-0.193,0.439-0.424,0.58-0.69
				c0.142-0.266,0.212-0.561,0.212-0.885V34.18c-0.304-0.083-0.648-0.161-1.036-0.234c-0.387-0.073-0.831-0.11-1.334-0.11
				c-0.753,0-1.337,0.149-1.75,0.447s-0.619,0.692-0.619,1.183v0.032c0,0.25,0.055,0.478,0.164,0.682
				c0.11,0.203,0.259,0.373,0.447,0.509s0.405,0.24,0.651,0.313S119.857,37.11,120.129,37.11z"/>
		</g>
	</g>
</g>
</svg>
